<svg width="933" height="697" viewBox="0 0 933 697" fill="none" xmlns="http://www.w3.org/2000/svg">
<path d="M759.626 719.926L759.129 719.384L869.729 624.276L870.023 624.705L759.626 719.926Z" fill="url(#paint0_linear_31_892)"/>
<path d="M266.481 267.555L243.603 219.736L244.326 219.872L352.18 256.448L266.481 267.555ZM244.913 220.73L266.82 266.946L349.697 256.131L244.913 220.73Z" fill="url(#paint1_linear_31_892)"/>
<path d="M302.061 426.932L300.549 425.825L232.251 369.766L232.364 369.563L251.808 346.076L252.102 346.505L302.061 426.932ZM233.087 369.699L299.578 424.222L251.763 347.114L233.087 369.699Z" fill="url(#paint2_linear_31_892)"/>
<path d="M912.339 347.249L834.774 331.77L835.316 331.274L931.399 242.186L931.896 242.728L836.039 331.41L912.565 346.843L912.339 347.249Z" fill="url(#paint3_linear_31_892)"/>
<path d="M869.707 624.796L720.632 500.686L721.76 501.048L799.8 512.802L799.574 513.209L722.776 501.612L870.046 624.186L869.707 624.796Z" fill="url(#paint4_linear_31_892)"/>
<path d="M705.181 694.436L599.379 501.594L600.011 501.414L705.813 694.256L705.181 694.436Z" fill="url(#paint5_linear_31_892)"/>
<path d="M599.786 501.82L599.605 501.188L721.76 501.048L721.737 501.567L599.786 501.82Z" fill="url(#paint6_linear_31_892)"/>
<path d="M705.587 694.662L705.407 694.03L869.729 624.276L870.023 624.705L705.587 694.662Z" fill="url(#paint7_linear_31_892)"/>
<path d="M705.587 694.662L705.407 694.03L869.729 624.276L870.023 624.705L705.587 694.662Z" fill="url(#paint8_linear_31_892)"/>
<path d="M244.709 220.617L244.19 220.594L103.805 183.211L104.753 182.94L226.13 141.154L226.22 141.47L244.709 220.617ZM105.904 182.783L243.92 219.646L225.475 141.853L105.904 182.783Z" fill="url(#paint9_linear_31_892)"/>
<path d="M721.015 501.431L721.241 501.025L770.2 445.026L770.493 445.455L800.093 513.231L799.574 513.209L721.015 501.431ZM770.358 446.177L722.279 501.071L799.281 512.78L770.358 446.177Z" fill="url(#paint10_linear_31_892)"/>
<path d="M787.535 293.802L785.165 293.282L667.848 268.46L667.983 267.738L783.133 292.152L694.063 247.143L694.289 246.737L787.535 293.802Z" fill="url(#paint11_linear_31_892)"/>
<path d="M795.584 330.982L794.974 330.644L665.613 267.218L667.983 267.738L785.503 292.673L785.594 292.989L795.584 330.982ZM670.015 268.868L794.591 329.899L784.961 293.169L670.015 268.868Z" fill="url(#paint12_linear_31_892)"/>
<path d="M785.774 293.621L785.165 293.282L694.063 247.143L694.289 246.737L784.894 292.334L756.752 176.976L757.271 176.999L785.774 293.621Z" fill="url(#paint13_linear_31_892)"/>
<path d="M785.165 293.282L785.074 292.966L756.752 176.976L757.271 176.999L785.503 292.673L931.602 242.299L931.896 242.728L785.165 293.282Z" fill="url(#paint14_linear_31_892)"/>
<path d="M794.974 330.644L784.894 292.334L785.594 292.989L836.422 332.155L835.587 332.222L794.974 330.644ZM785.977 293.734L795.313 330.034L834.594 331.138L785.977 293.734Z" fill="url(#paint15_linear_31_892)"/>
<path d="M835.497 331.906L835.293 331.793L784.871 292.853L785.503 292.673L932.979 241.735L931.896 242.728L835.497 331.906ZM786.113 293.011L835.632 331.184L930.518 243.291L786.113 293.011Z" fill="url(#paint16_linear_31_892)"/>
<path d="M232.319 370.602L232.251 369.766L232.515 313.811L233.102 314.669L252.305 346.618L252.192 346.821L232.319 370.602ZM233.26 315.82L233.019 368.864L251.582 346.482L233.26 315.82Z" fill="url(#paint17_linear_31_892)"/>
<path d="M146.198 358.075L146.943 357.692L233.215 314.465L233.192 314.985L233.064 370.218L146.198 358.075ZM232.763 315.278L148.297 357.647L232.477 369.36L232.763 315.278Z" fill="url(#paint18_linear_31_892)"/>
<path d="M573.739 402.784L573.852 402.58L608.989 286.781L609.033 288.136L625.389 411.297L624.869 411.274L573.739 402.784ZM608.762 289.58L574.484 402.4L624.802 410.439L608.762 289.58Z" fill="url(#paint19_linear_31_892)"/>
<path d="M625.14 412.222L624.779 410.958L608.514 288.113L609.146 287.933L625.367 409.424L667.554 268.031L668.277 268.167L625.14 412.222Z" fill="url(#paint20_linear_31_892)"/>
<path d="M624.757 411.477L624.892 410.755L667.78 267.625L668.186 267.851L797.389 334.911L796.757 335.091L624.757 411.477ZM668.051 268.573L625.637 410.372L795.831 334.842L668.051 268.573Z" fill="url(#paint21_linear_31_892)"/>
<path d="M770.471 445.974L770.267 445.861L624.26 410.935L625.005 410.552L796.892 334.369L796.869 334.888L770.471 445.974ZM626.134 410.914L770.29 445.342L796.124 335.271L626.134 410.914Z" fill="url(#paint22_linear_31_892)"/>
<path d="M796.847 335.407L796.237 335.068L667.644 268.347L667.983 267.738L795.313 330.034L796.847 335.407ZM690.262 279.329L796.17 334.233L795.087 330.441L690.262 279.329Z" fill="url(#paint23_linear_31_892)"/>
<path d="M796.237 335.068L794.794 330.012L835.632 331.184L835.61 331.703L796.237 335.068ZM795.494 330.666L796.576 334.459L830.101 331.564L795.494 330.666Z" fill="url(#paint24_linear_31_892)"/>
<path d="M244.371 221.226L244.1 220.278L225.497 141.334L225.813 141.244L282.415 122.199L282.076 122.809L244.371 221.226ZM226.107 141.673L244.258 219.037L281.331 123.192L226.107 141.673Z" fill="url(#paint25_linear_31_892)"/>
<path d="M351.638 256.945L350.916 256.809L244.1 220.278L282.009 121.973L282.189 122.606L351.638 256.945ZM244.732 220.098L350.329 255.951L281.941 123.531L244.732 220.098Z" fill="url(#paint26_linear_31_892)"/>
<path d="M769.929 446.471L770.064 445.748L796.373 334.346L841.191 394.366L840.875 394.456L769.929 446.471ZM796.531 335.497L770.719 445.049L840.265 394.117L796.531 335.497Z" fill="url(#paint27_linear_31_892)"/>
<path d="M841.055 395.088L840.468 394.23L795.741 334.526L796.26 334.549L835.632 331.184L835.723 331.5L841.055 395.088ZM797.073 335.001L840.311 393.079L835.293 331.793L797.073 335.001Z" fill="url(#paint28_linear_31_892)"/>
<path d="M840.468 394.23L835.113 331.161L835.632 331.184L912.565 346.843L912.339 347.249L835.813 331.816L841.101 394.05L840.468 394.23Z" fill="url(#paint29_linear_31_892)"/>
<path d="M436.574 313.215L349.81 255.928L351.052 256.087L487.22 278.096L487.197 278.616L352.271 256.765L436.8 312.809L436.574 313.215Z" fill="url(#paint30_linear_31_892)"/>
<path d="M454.418 359.565L454.034 358.82L436.371 313.102L437.003 312.922L454.283 357.894L486.904 278.187L487.31 278.412L454.418 359.565Z" fill="url(#paint31_linear_31_892)"/>
<path d="M574.867 403.145L573.942 402.897L453.921 359.023L454.034 358.82L487.017 277.983L487.31 278.412L574.867 403.145ZM454.666 358.639L573.355 402.038L487.287 278.932L454.666 358.639Z" fill="url(#paint32_linear_31_892)"/>
<path d="M574.235 403.325L573.942 402.897L486.994 278.503L487.423 278.209L573.987 401.858L608.514 288.113L609.237 288.249L574.235 403.325Z" fill="url(#paint33_linear_31_892)"/>
<path d="M585.609 740.151L545.439 531.159L545.958 531.182L586.129 740.174L585.609 740.151Z" fill="url(#paint34_linear_31_892)"/>
<path d="M705.384 694.549L545.326 531.362L545.868 530.866L705.61 694.143L705.384 694.549Z" fill="url(#paint35_linear_31_892)"/>
<path d="M585.609 740.151L545.439 531.159L545.958 531.182L586.129 740.174L585.609 740.151Z" fill="url(#paint36_linear_31_892)"/>
<path d="M281.534 123.305L281.557 122.786L274.75 2.54109L275.27 2.56392L282.212 122.086L348.212 76.0958L348.506 76.5248L281.534 123.305Z" fill="url(#paint37_linear_31_892)"/>
<path d="M799.371 513.096L769.884 445.116L802.886 456.555L802.66 456.961L770.877 446.2L800.003 512.915L799.371 513.096Z" fill="url(#paint38_linear_31_892)"/>
<path d="M802.66 456.961L769.748 445.838L770.29 445.342L840.581 394.027L840.875 394.456L771.012 445.478L802.886 456.555L802.66 456.961Z" fill="url(#paint39_linear_31_892)"/>
<path d="M300.549 425.825L250.996 345.624L252.214 346.302L352.204 415.198L351.865 415.807L252.982 347.792L301.091 425.329L300.549 425.825Z" fill="url(#paint40_linear_31_892)"/>
<path d="M377.576 425.052L377.079 424.51L452.092 360.399L352.181 415.717L351.888 415.288L456.811 357.173L377.576 425.052Z" fill="url(#paint41_linear_31_892)"/>
<path d="M26.9942 297.905L27.0169 297.386L88.0817 302.36L1.00481 235.593L1.54676 235.096L90.0229 303.174L26.9942 297.905Z" fill="url(#paint42_linear_31_892)"/>
<path d="M89.1876 303.241L88.7813 303.015L0.711461 235.164L1.14047 234.871L105.408 182.241L105.385 182.76L89.1876 303.241ZM1.95306 235.322L88.917 302.293L104.73 183.459L1.95306 235.322Z" fill="url(#paint43_linear_31_892)"/>
<path d="M148.658 358.912L92.7006 334.708L92.8135 334.505L88.5107 302.067L89.0072 302.609L148.658 358.912ZM93.0394 334.099L145.724 357.014L89.2779 303.557L93.0394 334.099Z" fill="url(#paint44_linear_31_892)"/>
<path d="M147.123 358.324L88.2848 302.473L89.0072 302.609L234.14 314.714L233.079 315.188L147.123 358.324ZM89.8198 303.061L147.372 357.399L231.951 314.826L89.8198 303.061Z" fill="url(#paint45_linear_31_892)"/>
<path d="M468.953 450.605L454.011 359.339L377.576 425.052L377.079 424.51L454.689 358.12L454.666 358.639L469.586 450.425L468.953 450.605Z" fill="url(#paint46_linear_31_892)"/>
<path d="M469.044 450.921L468.953 450.605L454.057 358.301L454.463 358.526L574.89 402.626L574.258 402.806L469.044 450.921ZM454.644 359.159L469.292 449.996L573.332 402.558L454.644 359.159Z" fill="url(#paint47_linear_31_892)"/>
<path d="M599.379 501.594L573.829 403.1L469.36 450.831L469.066 450.402L574.281 402.287L574.371 402.603L600.011 501.414L599.379 501.594Z" fill="url(#paint48_linear_31_892)"/>
<path d="M224.413 142.327L252.414 118.279L252.617 118.392L283.228 122.651L281.963 123.012L224.413 142.327ZM252.594 118.911L227.078 140.883L280.722 122.853L252.594 118.911Z" fill="url(#paint49_linear_31_892)"/>
<path d="M252.391 118.798L252.504 118.595L275.27 0.171295L282.279 122.922L281.963 123.012L252.391 118.798ZM274.953 5.04669L252.933 118.302L281.58 122.267L274.953 5.04669Z" fill="url(#paint50_linear_31_892)"/>
<path d="M1.3209 235.503L1.02755 235.074L103.376 183.504L5.32835 193.859L5.35106 193.34L106.537 182.602L105.159 183.166L1.3209 235.503Z" fill="url(#paint51_linear_31_892)"/>
<path d="M60.1524 315.28L59.972 314.648L87.7429 302.97L26.9942 297.905L27.0169 297.386L90.3617 302.565L60.1524 315.28Z" fill="url(#paint52_linear_31_892)"/>
<path d="M92.6104 334.392L88.6684 303.218L60.1524 315.28L59.972 314.648L89.1201 302.406L89.2104 302.722L93.1296 334.415L92.6104 334.392Z" fill="url(#paint53_linear_31_892)"/>
<path d="M641.43 446.54L640.617 446.088L572.836 402.016L625.321 410.462L625.524 410.575L641.43 446.54ZM575.387 403.168L639.94 444.914L624.779 410.958L575.387 403.168Z" fill="url(#paint54_linear_31_892)"/>
<path d="M599.56 502.227L573.671 401.948L574.281 402.287L641.159 445.592L641.046 445.795L599.56 502.227ZM574.551 403.235L599.831 500.782L640.211 445.862L574.551 403.235Z" fill="url(#paint55_linear_31_892)"/>
<path d="M640.617 446.088L624.802 410.439L625.321 410.462L772.976 445.772L770.583 445.771L640.617 446.088ZM625.705 411.207L640.956 445.479L767.897 445.341L625.705 411.207Z" fill="url(#paint56_linear_31_892)"/>
<path d="M598.95 501.888L599.289 501.278L640.55 445.253L722.37 501.387L721.331 501.341L598.95 501.888ZM640.82 446.201L600.124 501.211L720.519 500.889L640.82 446.201Z" fill="url(#paint57_linear_31_892)"/>
<path d="M721.737 501.567L721.534 501.454L639.805 445.636L640.843 445.682L771.012 445.478L770.471 445.974L721.737 501.567ZM641.656 446.134L721.557 500.935L769.635 446.042L641.656 446.134Z" fill="url(#paint58_linear_31_892)"/>
<path d="M185.589 527.815L145.941 387.712L146.347 387.938L301.091 425.329L300.752 425.938L146.731 388.683L186.018 527.521L185.589 527.815Z" fill="url(#paint59_linear_31_892)"/>
<path d="M302.196 426.21L300.955 426.051L145.083 388.299L146.347 387.938L232.996 369.383L233.2 369.496L302.196 426.21ZM147.589 388.097L299.759 424.854L232.658 369.992L147.589 388.097Z" fill="url(#paint60_linear_31_892)"/>
<path d="M46.9172 498.829L46.3078 498.49L145.918 388.231L92.4974 334.595L93.0394 334.099L146.754 388.164L146.437 388.254L46.9172 498.829Z" fill="url(#paint61_linear_31_892)"/>
<path d="M146.618 388.886L146.121 388.344L91.5044 333.511L147.462 357.715L147.349 357.918L146.618 388.886ZM94.0324 335.183L145.851 387.396L146.83 357.895L94.0324 335.183Z" fill="url(#paint62_linear_31_892)"/>
<path d="M185.589 527.815L146.099 388.863L46.9172 498.829L46.3078 498.49L146.46 387.735L146.55 388.051L186.018 527.521L185.589 527.815Z" fill="url(#paint63_linear_31_892)"/>
<path d="M146.008 388.547L146.943 357.692L234.644 369.768L146.008 388.547ZM147.439 358.234L146.663 387.848L231.1 369.924L147.439 358.234Z" fill="url(#paint64_linear_31_892)"/>
<path d="M232.357 315.052L232.696 314.443L266.527 266.517L266.73 266.63L342.911 306.599L341.872 306.553L232.357 315.052ZM266.798 267.465L233.531 314.375L340.834 306.507L266.798 267.465Z" fill="url(#paint65_linear_31_892)"/>
<path d="M251.876 346.911L232.493 314.33L343.656 306.215L251.876 346.911ZM233.395 315.098L252.011 346.189L340.179 307.207L233.395 315.098Z" fill="url(#paint66_linear_31_892)"/>
<path d="M342.053 307.185L341.646 306.959L265.466 266.99L266.301 266.923L351.052 256.087L342.053 307.185ZM267.633 267.398L341.782 306.237L350.713 256.696L267.633 267.398Z" fill="url(#paint67_linear_31_892)"/>
<path d="M352.271 416.033L351.662 415.694L251.266 346.572L251.695 346.279L342.098 306.147L342.188 306.463L352.271 416.033ZM252.508 346.731L351.481 415.062L341.42 307.365L252.508 346.731Z" fill="url(#paint68_linear_31_892)"/>
<path d="M341.646 306.959L341.759 306.756L350.962 255.771L351.368 255.997L437.815 313.374L436.777 313.328L341.646 306.959ZM351.232 256.719L342.188 306.463L435.558 312.65L351.232 256.719Z" fill="url(#paint69_linear_31_892)"/>
<path d="M351.752 416.01L351.775 415.491L341.782 306.237L342.188 306.463L455.186 358.662L454.757 358.955L351.752 416.01ZM342.256 307.298L352.204 415.198L453.718 358.91L342.256 307.298Z" fill="url(#paint70_linear_31_892)"/>
<path d="M454.847 359.272L454.237 358.933L340.427 306.282L341.985 306.35L436.912 312.606L437.116 312.719L454.847 359.272ZM343.407 307.141L453.651 358.075L436.371 313.102L343.407 307.141Z" fill="url(#paint71_linear_31_892)"/>
<path d="M225.881 142.079L98.3105 51.9964L100.861 53.1489L253.136 118.415L225.881 142.079ZM103.186 54.7076L225.813 141.244L252.188 118.685L103.186 54.7076Z" fill="url(#paint72_linear_31_892)"/>
<path d="M252.797 119.024L252.594 118.911L100.635 53.5551L100.861 53.1489L252.414 118.279L274.75 2.54109L275.473 2.67689L252.797 119.024Z" fill="url(#paint73_linear_31_892)"/>
<path d="M444.513 176.974L281.241 122.876L281.783 122.38L348.212 76.0958L348.506 76.5248L282.708 122.628L444.649 176.252L444.513 176.974Z" fill="url(#paint74_linear_31_892)"/>
<path d="M350.916 256.809L350.826 256.493L281.377 122.154L282.099 122.29L445.371 176.388L444.942 176.681L350.916 256.809ZM282.573 123.351L351.165 255.884L444.107 176.748L282.573 123.351Z" fill="url(#paint75_linear_31_892)"/>
<path d="M350.307 256.47L350.849 255.974L444.536 176.455L444.829 176.884L351.774 256.223L487.22 278.096L487.197 278.616L350.307 256.47Z" fill="url(#paint76_linear_31_892)"/>
<path d="M5.32835 193.859L5.35106 193.34L104.144 182.601L69.566 154.865L69.7919 154.459L105.679 183.189L104.843 183.256L5.32835 193.859Z" fill="url(#paint77_linear_31_892)"/>
<path d="M69.8821 154.775L69.4758 154.549L100.545 53.239L100.951 53.465L69.8821 154.775Z" fill="url(#paint78_linear_31_892)"/>
<path d="M225.678 141.966L100.635 53.5551L100.861 53.1489L226.017 141.357L225.678 141.966Z" fill="url(#paint79_linear_31_892)"/>
<path d="M104.843 183.256L68.9566 154.526L69.7919 154.459L228.319 141.042L225.994 141.876L104.843 183.256ZM70.4013 154.798L104.979 182.534L223.488 142.078L70.4013 154.798Z" fill="url(#paint80_linear_31_892)"/>
<path d="M69.8821 154.775L69.4758 154.549L100.545 53.239L100.951 53.465L69.8821 154.775Z" fill="url(#paint81_linear_31_892)"/>
<path d="M226.115 274.622L226.341 274.216L244.349 219.353L244.732 220.098L267.317 267.488L267.001 267.578L226.115 274.622ZM244.484 221.023L227.086 273.833L266.301 266.923L244.484 221.023Z" fill="url(#paint82_linear_31_892)"/>
<path d="M232.853 315.594L232.673 314.962L226.341 274.216L226.657 274.126L267.34 266.969L232.853 315.594ZM226.95 274.555L233.125 314.149L266.052 267.848L226.95 274.555Z" fill="url(#paint83_linear_31_892)"/>
<path d="M226.837 274.758L226.431 274.532L103.534 182.262L104.979 182.534L244.642 219.782L226.837 274.758ZM106.288 183.528L226.363 273.697L243.897 220.165L106.288 183.528Z" fill="url(#paint84_linear_31_892)"/>
<path d="M88.6684 303.218L88.6911 302.699L104.776 182.421L105.182 182.647L227.379 274.262L226.747 274.442L88.6684 303.218ZM105.25 183.482L89.4362 302.316L225.934 273.99L105.25 183.482Z" fill="url(#paint85_linear_31_892)"/>
<path d="M87.0205 302.834L226.883 273.72L233.508 314.894L232.876 315.075L87.0205 302.834ZM226.431 274.532L91.197 302.497L232.809 314.24L226.431 274.532Z" fill="url(#paint86_linear_31_892)"/>
<defs>
<linearGradient id="paint0_linear_31_892" x1="386.798" y1="-55.2527" x2="857.459" y2="206.47" gradientUnits="userSpaceOnUse">
<stop stop-color="#D752B3"/>
<stop offset="1" stop-color="#73BCFF"/>
</linearGradient>
<linearGradient id="paint1_linear_31_892" x1="386.798" y1="-55.2527" x2="857.459" y2="206.47" gradientUnits="userSpaceOnUse">
<stop stop-color="#D752B3"/>
<stop offset="1" stop-color="#73BCFF"/>
</linearGradient>
<linearGradient id="paint2_linear_31_892" x1="386.798" y1="-55.2527" x2="857.459" y2="206.47" gradientUnits="userSpaceOnUse">
<stop stop-color="#D752B3"/>
<stop offset="1" stop-color="#73BCFF"/>
</linearGradient>
<linearGradient id="paint3_linear_31_892" x1="386.798" y1="-55.2527" x2="857.459" y2="206.47" gradientUnits="userSpaceOnUse">
<stop stop-color="#D752B3"/>
<stop offset="1" stop-color="#73BCFF"/>
</linearGradient>
<linearGradient id="paint4_linear_31_892" x1="386.798" y1="-55.2527" x2="857.459" y2="206.47" gradientUnits="userSpaceOnUse">
<stop stop-color="#D752B3"/>
<stop offset="1" stop-color="#73BCFF"/>
</linearGradient>
<linearGradient id="paint5_linear_31_892" x1="386.798" y1="-55.2527" x2="857.459" y2="206.47" gradientUnits="userSpaceOnUse">
<stop stop-color="#D752B3"/>
<stop offset="1" stop-color="#73BCFF"/>
</linearGradient>
<linearGradient id="paint6_linear_31_892" x1="386.798" y1="-55.2527" x2="857.459" y2="206.47" gradientUnits="userSpaceOnUse">
<stop stop-color="#D752B3"/>
<stop offset="1" stop-color="#73BCFF"/>
</linearGradient>
<linearGradient id="paint7_linear_31_892" x1="386.798" y1="-55.2527" x2="857.459" y2="206.47" gradientUnits="userSpaceOnUse">
<stop stop-color="#D752B3"/>
<stop offset="1" stop-color="#73BCFF"/>
</linearGradient>
<linearGradient id="paint8_linear_31_892" x1="386.798" y1="-55.2527" x2="857.459" y2="206.47" gradientUnits="userSpaceOnUse">
<stop stop-color="#D752B3"/>
<stop offset="1" stop-color="#73BCFF"/>
</linearGradient>
<linearGradient id="paint9_linear_31_892" x1="386.798" y1="-55.2527" x2="857.459" y2="206.47" gradientUnits="userSpaceOnUse">
<stop stop-color="#D752B3"/>
<stop offset="1" stop-color="#73BCFF"/>
</linearGradient>
<linearGradient id="paint10_linear_31_892" x1="386.798" y1="-55.2527" x2="857.459" y2="206.47" gradientUnits="userSpaceOnUse">
<stop stop-color="#D752B3"/>
<stop offset="1" stop-color="#73BCFF"/>
</linearGradient>
<linearGradient id="paint11_linear_31_892" x1="386.798" y1="-55.2527" x2="857.459" y2="206.47" gradientUnits="userSpaceOnUse">
<stop stop-color="#D752B3"/>
<stop offset="1" stop-color="#73BCFF"/>
</linearGradient>
<linearGradient id="paint12_linear_31_892" x1="386.798" y1="-55.2527" x2="857.459" y2="206.47" gradientUnits="userSpaceOnUse">
<stop stop-color="#D752B3"/>
<stop offset="1" stop-color="#73BCFF"/>
</linearGradient>
<linearGradient id="paint13_linear_31_892" x1="386.798" y1="-55.2527" x2="857.459" y2="206.47" gradientUnits="userSpaceOnUse">
<stop stop-color="#D752B3"/>
<stop offset="1" stop-color="#73BCFF"/>
</linearGradient>
<linearGradient id="paint14_linear_31_892" x1="386.798" y1="-55.2527" x2="857.459" y2="206.47" gradientUnits="userSpaceOnUse">
<stop stop-color="#D752B3"/>
<stop offset="1" stop-color="#73BCFF"/>
</linearGradient>
<linearGradient id="paint15_linear_31_892" x1="386.798" y1="-55.2527" x2="857.459" y2="206.47" gradientUnits="userSpaceOnUse">
<stop stop-color="#D752B3"/>
<stop offset="1" stop-color="#73BCFF"/>
</linearGradient>
<linearGradient id="paint16_linear_31_892" x1="386.798" y1="-55.2527" x2="857.459" y2="206.47" gradientUnits="userSpaceOnUse">
<stop stop-color="#D752B3"/>
<stop offset="1" stop-color="#73BCFF"/>
</linearGradient>
<linearGradient id="paint17_linear_31_892" x1="386.798" y1="-55.2527" x2="857.459" y2="206.47" gradientUnits="userSpaceOnUse">
<stop stop-color="#D752B3"/>
<stop offset="1" stop-color="#73BCFF"/>
</linearGradient>
<linearGradient id="paint18_linear_31_892" x1="386.798" y1="-55.2527" x2="857.459" y2="206.47" gradientUnits="userSpaceOnUse">
<stop stop-color="#D752B3"/>
<stop offset="1" stop-color="#73BCFF"/>
</linearGradient>
<linearGradient id="paint19_linear_31_892" x1="386.798" y1="-55.2527" x2="857.459" y2="206.47" gradientUnits="userSpaceOnUse">
<stop stop-color="#D752B3"/>
<stop offset="1" stop-color="#73BCFF"/>
</linearGradient>
<linearGradient id="paint20_linear_31_892" x1="386.798" y1="-55.2527" x2="857.459" y2="206.47" gradientUnits="userSpaceOnUse">
<stop stop-color="#D752B3"/>
<stop offset="1" stop-color="#73BCFF"/>
</linearGradient>
<linearGradient id="paint21_linear_31_892" x1="386.798" y1="-55.2527" x2="857.459" y2="206.47" gradientUnits="userSpaceOnUse">
<stop stop-color="#D752B3"/>
<stop offset="1" stop-color="#73BCFF"/>
</linearGradient>
<linearGradient id="paint22_linear_31_892" x1="386.798" y1="-55.2527" x2="857.459" y2="206.47" gradientUnits="userSpaceOnUse">
<stop stop-color="#D752B3"/>
<stop offset="1" stop-color="#73BCFF"/>
</linearGradient>
<linearGradient id="paint23_linear_31_892" x1="386.798" y1="-55.2527" x2="857.459" y2="206.47" gradientUnits="userSpaceOnUse">
<stop stop-color="#D752B3"/>
<stop offset="1" stop-color="#73BCFF"/>
</linearGradient>
<linearGradient id="paint24_linear_31_892" x1="386.798" y1="-55.2527" x2="857.459" y2="206.47" gradientUnits="userSpaceOnUse">
<stop stop-color="#D752B3"/>
<stop offset="1" stop-color="#73BCFF"/>
</linearGradient>
<linearGradient id="paint25_linear_31_892" x1="386.798" y1="-55.2527" x2="857.459" y2="206.47" gradientUnits="userSpaceOnUse">
<stop stop-color="#D752B3"/>
<stop offset="1" stop-color="#73BCFF"/>
</linearGradient>
<linearGradient id="paint26_linear_31_892" x1="386.798" y1="-55.2527" x2="857.459" y2="206.47" gradientUnits="userSpaceOnUse">
<stop stop-color="#D752B3"/>
<stop offset="1" stop-color="#73BCFF"/>
</linearGradient>
<linearGradient id="paint27_linear_31_892" x1="386.798" y1="-55.2527" x2="857.459" y2="206.47" gradientUnits="userSpaceOnUse">
<stop stop-color="#D752B3"/>
<stop offset="1" stop-color="#73BCFF"/>
</linearGradient>
<linearGradient id="paint28_linear_31_892" x1="386.798" y1="-55.2527" x2="857.459" y2="206.47" gradientUnits="userSpaceOnUse">
<stop stop-color="#D752B3"/>
<stop offset="1" stop-color="#73BCFF"/>
</linearGradient>
<linearGradient id="paint29_linear_31_892" x1="386.798" y1="-55.2527" x2="857.459" y2="206.47" gradientUnits="userSpaceOnUse">
<stop stop-color="#D752B3"/>
<stop offset="1" stop-color="#73BCFF"/>
</linearGradient>
<linearGradient id="paint30_linear_31_892" x1="386.798" y1="-55.2527" x2="857.459" y2="206.47" gradientUnits="userSpaceOnUse">
<stop stop-color="#D752B3"/>
<stop offset="1" stop-color="#73BCFF"/>
</linearGradient>
<linearGradient id="paint31_linear_31_892" x1="386.798" y1="-55.2527" x2="857.459" y2="206.47" gradientUnits="userSpaceOnUse">
<stop stop-color="#D752B3"/>
<stop offset="1" stop-color="#73BCFF"/>
</linearGradient>
<linearGradient id="paint32_linear_31_892" x1="386.798" y1="-55.2527" x2="857.459" y2="206.47" gradientUnits="userSpaceOnUse">
<stop stop-color="#D752B3"/>
<stop offset="1" stop-color="#73BCFF"/>
</linearGradient>
<linearGradient id="paint33_linear_31_892" x1="386.798" y1="-55.2527" x2="857.459" y2="206.47" gradientUnits="userSpaceOnUse">
<stop stop-color="#D752B3"/>
<stop offset="1" stop-color="#73BCFF"/>
</linearGradient>
<linearGradient id="paint34_linear_31_892" x1="386.798" y1="-55.2527" x2="857.459" y2="206.47" gradientUnits="userSpaceOnUse">
<stop stop-color="#D752B3"/>
<stop offset="1" stop-color="#73BCFF"/>
</linearGradient>
<linearGradient id="paint35_linear_31_892" x1="386.798" y1="-55.2527" x2="857.459" y2="206.47" gradientUnits="userSpaceOnUse">
<stop stop-color="#D752B3"/>
<stop offset="1" stop-color="#73BCFF"/>
</linearGradient>
<linearGradient id="paint36_linear_31_892" x1="386.798" y1="-55.2527" x2="857.459" y2="206.47" gradientUnits="userSpaceOnUse">
<stop stop-color="#D752B3"/>
<stop offset="1" stop-color="#73BCFF"/>
</linearGradient>
<linearGradient id="paint37_linear_31_892" x1="386.798" y1="-55.2527" x2="857.459" y2="206.47" gradientUnits="userSpaceOnUse">
<stop stop-color="#D752B3"/>
<stop offset="1" stop-color="#73BCFF"/>
</linearGradient>
<linearGradient id="paint38_linear_31_892" x1="386.798" y1="-55.2527" x2="857.459" y2="206.47" gradientUnits="userSpaceOnUse">
<stop stop-color="#D752B3"/>
<stop offset="1" stop-color="#73BCFF"/>
</linearGradient>
<linearGradient id="paint39_linear_31_892" x1="386.798" y1="-55.2527" x2="857.459" y2="206.47" gradientUnits="userSpaceOnUse">
<stop stop-color="#D752B3"/>
<stop offset="1" stop-color="#73BCFF"/>
</linearGradient>
<linearGradient id="paint40_linear_31_892" x1="386.798" y1="-55.2527" x2="857.459" y2="206.47" gradientUnits="userSpaceOnUse">
<stop stop-color="#D752B3"/>
<stop offset="1" stop-color="#73BCFF"/>
</linearGradient>
<linearGradient id="paint41_linear_31_892" x1="386.798" y1="-55.2527" x2="857.459" y2="206.47" gradientUnits="userSpaceOnUse">
<stop stop-color="#D752B3"/>
<stop offset="1" stop-color="#73BCFF"/>
</linearGradient>
<linearGradient id="paint42_linear_31_892" x1="386.798" y1="-55.2527" x2="857.459" y2="206.47" gradientUnits="userSpaceOnUse">
<stop stop-color="#D752B3"/>
<stop offset="1" stop-color="#73BCFF"/>
</linearGradient>
<linearGradient id="paint43_linear_31_892" x1="386.798" y1="-55.2527" x2="857.459" y2="206.47" gradientUnits="userSpaceOnUse">
<stop stop-color="#D752B3"/>
<stop offset="1" stop-color="#73BCFF"/>
</linearGradient>
<linearGradient id="paint44_linear_31_892" x1="386.798" y1="-55.2527" x2="857.459" y2="206.47" gradientUnits="userSpaceOnUse">
<stop stop-color="#D752B3"/>
<stop offset="1" stop-color="#73BCFF"/>
</linearGradient>
<linearGradient id="paint45_linear_31_892" x1="386.798" y1="-55.2527" x2="857.459" y2="206.47" gradientUnits="userSpaceOnUse">
<stop stop-color="#D752B3"/>
<stop offset="1" stop-color="#73BCFF"/>
</linearGradient>
<linearGradient id="paint46_linear_31_892" x1="386.798" y1="-55.2527" x2="857.459" y2="206.47" gradientUnits="userSpaceOnUse">
<stop stop-color="#D752B3"/>
<stop offset="1" stop-color="#73BCFF"/>
</linearGradient>
<linearGradient id="paint47_linear_31_892" x1="386.798" y1="-55.2527" x2="857.459" y2="206.47" gradientUnits="userSpaceOnUse">
<stop stop-color="#D752B3"/>
<stop offset="1" stop-color="#73BCFF"/>
</linearGradient>
<linearGradient id="paint48_linear_31_892" x1="386.798" y1="-55.2527" x2="857.459" y2="206.47" gradientUnits="userSpaceOnUse">
<stop stop-color="#D752B3"/>
<stop offset="1" stop-color="#73BCFF"/>
</linearGradient>
<linearGradient id="paint49_linear_31_892" x1="386.798" y1="-55.2527" x2="857.459" y2="206.47" gradientUnits="userSpaceOnUse">
<stop stop-color="#D752B3"/>
<stop offset="1" stop-color="#73BCFF"/>
</linearGradient>
<linearGradient id="paint50_linear_31_892" x1="386.798" y1="-55.2527" x2="857.459" y2="206.47" gradientUnits="userSpaceOnUse">
<stop stop-color="#D752B3"/>
<stop offset="1" stop-color="#73BCFF"/>
</linearGradient>
<linearGradient id="paint51_linear_31_892" x1="386.798" y1="-55.2527" x2="857.459" y2="206.47" gradientUnits="userSpaceOnUse">
<stop stop-color="#D752B3"/>
<stop offset="1" stop-color="#73BCFF"/>
</linearGradient>
<linearGradient id="paint52_linear_31_892" x1="386.798" y1="-55.2527" x2="857.459" y2="206.47" gradientUnits="userSpaceOnUse">
<stop stop-color="#D752B3"/>
<stop offset="1" stop-color="#73BCFF"/>
</linearGradient>
<linearGradient id="paint53_linear_31_892" x1="386.798" y1="-55.2527" x2="857.459" y2="206.47" gradientUnits="userSpaceOnUse">
<stop stop-color="#D752B3"/>
<stop offset="1" stop-color="#73BCFF"/>
</linearGradient>
<linearGradient id="paint54_linear_31_892" x1="386.798" y1="-55.2527" x2="857.459" y2="206.47" gradientUnits="userSpaceOnUse">
<stop stop-color="#D752B3"/>
<stop offset="1" stop-color="#73BCFF"/>
</linearGradient>
<linearGradient id="paint55_linear_31_892" x1="386.798" y1="-55.2527" x2="857.459" y2="206.47" gradientUnits="userSpaceOnUse">
<stop stop-color="#D752B3"/>
<stop offset="1" stop-color="#73BCFF"/>
</linearGradient>
<linearGradient id="paint56_linear_31_892" x1="386.798" y1="-55.2527" x2="857.459" y2="206.47" gradientUnits="userSpaceOnUse">
<stop stop-color="#D752B3"/>
<stop offset="1" stop-color="#73BCFF"/>
</linearGradient>
<linearGradient id="paint57_linear_31_892" x1="386.798" y1="-55.2527" x2="857.459" y2="206.47" gradientUnits="userSpaceOnUse">
<stop stop-color="#D752B3"/>
<stop offset="1" stop-color="#73BCFF"/>
</linearGradient>
<linearGradient id="paint58_linear_31_892" x1="386.798" y1="-55.2527" x2="857.459" y2="206.47" gradientUnits="userSpaceOnUse">
<stop stop-color="#D752B3"/>
<stop offset="1" stop-color="#73BCFF"/>
</linearGradient>
<linearGradient id="paint59_linear_31_892" x1="386.798" y1="-55.2527" x2="857.459" y2="206.47" gradientUnits="userSpaceOnUse">
<stop stop-color="#D752B3"/>
<stop offset="1" stop-color="#73BCFF"/>
</linearGradient>
<linearGradient id="paint60_linear_31_892" x1="386.798" y1="-55.2527" x2="857.459" y2="206.47" gradientUnits="userSpaceOnUse">
<stop stop-color="#D752B3"/>
<stop offset="1" stop-color="#73BCFF"/>
</linearGradient>
<linearGradient id="paint61_linear_31_892" x1="386.798" y1="-55.2527" x2="857.459" y2="206.47" gradientUnits="userSpaceOnUse">
<stop stop-color="#D752B3"/>
<stop offset="1" stop-color="#73BCFF"/>
</linearGradient>
<linearGradient id="paint62_linear_31_892" x1="386.798" y1="-55.2527" x2="857.459" y2="206.47" gradientUnits="userSpaceOnUse">
<stop stop-color="#D752B3"/>
<stop offset="1" stop-color="#73BCFF"/>
</linearGradient>
<linearGradient id="paint63_linear_31_892" x1="386.798" y1="-55.2527" x2="857.459" y2="206.47" gradientUnits="userSpaceOnUse">
<stop stop-color="#D752B3"/>
<stop offset="1" stop-color="#73BCFF"/>
</linearGradient>
<linearGradient id="paint64_linear_31_892" x1="386.798" y1="-55.2527" x2="857.459" y2="206.47" gradientUnits="userSpaceOnUse">
<stop stop-color="#D752B3"/>
<stop offset="1" stop-color="#73BCFF"/>
</linearGradient>
<linearGradient id="paint65_linear_31_892" x1="386.798" y1="-55.2527" x2="857.459" y2="206.47" gradientUnits="userSpaceOnUse">
<stop stop-color="#D752B3"/>
<stop offset="1" stop-color="#73BCFF"/>
</linearGradient>
<linearGradient id="paint66_linear_31_892" x1="386.798" y1="-55.2527" x2="857.459" y2="206.47" gradientUnits="userSpaceOnUse">
<stop stop-color="#D752B3"/>
<stop offset="1" stop-color="#73BCFF"/>
</linearGradient>
<linearGradient id="paint67_linear_31_892" x1="386.798" y1="-55.2527" x2="857.459" y2="206.47" gradientUnits="userSpaceOnUse">
<stop stop-color="#D752B3"/>
<stop offset="1" stop-color="#73BCFF"/>
</linearGradient>
<linearGradient id="paint68_linear_31_892" x1="386.798" y1="-55.2527" x2="857.459" y2="206.47" gradientUnits="userSpaceOnUse">
<stop stop-color="#D752B3"/>
<stop offset="1" stop-color="#73BCFF"/>
</linearGradient>
<linearGradient id="paint69_linear_31_892" x1="386.798" y1="-55.2527" x2="857.459" y2="206.47" gradientUnits="userSpaceOnUse">
<stop stop-color="#D752B3"/>
<stop offset="1" stop-color="#73BCFF"/>
</linearGradient>
<linearGradient id="paint70_linear_31_892" x1="386.798" y1="-55.2527" x2="857.459" y2="206.47" gradientUnits="userSpaceOnUse">
<stop stop-color="#D752B3"/>
<stop offset="1" stop-color="#73BCFF"/>
</linearGradient>
<linearGradient id="paint71_linear_31_892" x1="386.798" y1="-55.2527" x2="857.459" y2="206.47" gradientUnits="userSpaceOnUse">
<stop stop-color="#D752B3"/>
<stop offset="1" stop-color="#73BCFF"/>
</linearGradient>
<linearGradient id="paint72_linear_31_892" x1="386.798" y1="-55.2527" x2="857.459" y2="206.47" gradientUnits="userSpaceOnUse">
<stop stop-color="#D752B3"/>
<stop offset="1" stop-color="#73BCFF"/>
</linearGradient>
<linearGradient id="paint73_linear_31_892" x1="386.798" y1="-55.2527" x2="857.459" y2="206.47" gradientUnits="userSpaceOnUse">
<stop stop-color="#D752B3"/>
<stop offset="1" stop-color="#73BCFF"/>
</linearGradient>
<linearGradient id="paint74_linear_31_892" x1="386.798" y1="-55.2527" x2="857.459" y2="206.47" gradientUnits="userSpaceOnUse">
<stop stop-color="#D752B3"/>
<stop offset="1" stop-color="#73BCFF"/>
</linearGradient>
<linearGradient id="paint75_linear_31_892" x1="386.798" y1="-55.2527" x2="857.459" y2="206.47" gradientUnits="userSpaceOnUse">
<stop stop-color="#D752B3"/>
<stop offset="1" stop-color="#73BCFF"/>
</linearGradient>
<linearGradient id="paint76_linear_31_892" x1="386.798" y1="-55.2527" x2="857.459" y2="206.47" gradientUnits="userSpaceOnUse">
<stop stop-color="#D752B3"/>
<stop offset="1" stop-color="#73BCFF"/>
</linearGradient>
<linearGradient id="paint77_linear_31_892" x1="386.798" y1="-55.2527" x2="857.459" y2="206.47" gradientUnits="userSpaceOnUse">
<stop stop-color="#D752B3"/>
<stop offset="1" stop-color="#73BCFF"/>
</linearGradient>
<linearGradient id="paint78_linear_31_892" x1="386.798" y1="-55.2527" x2="857.459" y2="206.47" gradientUnits="userSpaceOnUse">
<stop stop-color="#D752B3"/>
<stop offset="1" stop-color="#73BCFF"/>
</linearGradient>
<linearGradient id="paint79_linear_31_892" x1="386.798" y1="-55.2527" x2="857.459" y2="206.47" gradientUnits="userSpaceOnUse">
<stop stop-color="#D752B3"/>
<stop offset="1" stop-color="#73BCFF"/>
</linearGradient>
<linearGradient id="paint80_linear_31_892" x1="386.798" y1="-55.2527" x2="857.459" y2="206.47" gradientUnits="userSpaceOnUse">
<stop stop-color="#D752B3"/>
<stop offset="1" stop-color="#73BCFF"/>
</linearGradient>
<linearGradient id="paint81_linear_31_892" x1="386.798" y1="-55.2527" x2="857.459" y2="206.47" gradientUnits="userSpaceOnUse">
<stop stop-color="#D752B3"/>
<stop offset="1" stop-color="#73BCFF"/>
</linearGradient>
<linearGradient id="paint82_linear_31_892" x1="386.798" y1="-55.2527" x2="857.459" y2="206.47" gradientUnits="userSpaceOnUse">
<stop stop-color="#D752B3"/>
<stop offset="1" stop-color="#73BCFF"/>
</linearGradient>
<linearGradient id="paint83_linear_31_892" x1="386.798" y1="-55.2527" x2="857.459" y2="206.47" gradientUnits="userSpaceOnUse">
<stop stop-color="#D752B3"/>
<stop offset="1" stop-color="#73BCFF"/>
</linearGradient>
<linearGradient id="paint84_linear_31_892" x1="386.798" y1="-55.2527" x2="857.459" y2="206.47" gradientUnits="userSpaceOnUse">
<stop stop-color="#D752B3"/>
<stop offset="1" stop-color="#73BCFF"/>
</linearGradient>
<linearGradient id="paint85_linear_31_892" x1="386.798" y1="-55.2527" x2="857.459" y2="206.47" gradientUnits="userSpaceOnUse">
<stop stop-color="#D752B3"/>
<stop offset="1" stop-color="#73BCFF"/>
</linearGradient>
<linearGradient id="paint86_linear_31_892" x1="386.798" y1="-55.2527" x2="857.459" y2="206.47" gradientUnits="userSpaceOnUse">
<stop stop-color="#D752B3"/>
<stop offset="1" stop-color="#73BCFF"/>
</linearGradient>
</defs>
</svg>
