<svg width="794" height="242" viewBox="0 0 794 242" fill="none" xmlns="http://www.w3.org/2000/svg">
<path d="M752.704 -171.042L752.13 -170.851L793.618 -58.2727L794 -58.4638L752.704 -171.042Z" fill="url(#paint0_linear_194_181)"/>
<path d="M217.38 -42.9819L181.819 -17.7521L182.392 -17.561L274.545 -0.741135L217.38 -42.9819ZM183.157 -17.9433L217.38 -42.4085L272.633 -1.50568L183.157 -17.9433Z" fill="url(#paint1_linear_194_181)"/>
<path d="M306.664 -143.328L305.135 -143.137L233.631 -130.139V-129.948L238.219 -105.292L238.602 -105.483L306.664 -143.328ZM234.204 -129.757L303.796 -142.372L238.602 -106.056L234.204 -129.757Z" fill="url(#paint2_linear_194_181)"/>
<path d="M713.51 157.901L651.566 138.023L651.757 138.596L685.215 241.044L685.788 240.853L652.33 138.787L713.51 158.283V157.901Z" fill="url(#paint3_linear_194_181)"/>
<path d="M793.809 -58.655L637.035 -29.0291L637.991 -28.8379L698.789 -6.09291V-6.47517L638.947 -28.8379L793.809 -58.0816V-58.655Z" fill="url(#paint4_linear_194_181)"/>
<path d="M703.377 -174.483L550.236 -78.1507L550.619 -77.7684L703.76 -174.1L703.377 -174.483Z" fill="url(#paint5_linear_194_181)"/>
<path d="M550.619 -78.1507L550.236 -77.7684L637.991 -28.8379L638.182 -29.2202L550.619 -78.1507Z" fill="url(#paint6_linear_194_181)"/>
<path d="M703.76 -174.483L703.377 -174.1L793.618 -58.2727L794 -58.4638L703.76 -174.483Z" fill="url(#paint7_linear_194_181)"/>
<path d="M703.76 -174.483L703.377 -174.1L793.618 -58.2727L794 -58.4638L703.76 -174.483Z" fill="url(#paint8_linear_194_181)"/>
<path d="M182.966 -17.9433L182.584 -18.1344L66.7243 -47.378L67.2979 -46.8046L137.846 31.7518L138.037 31.5606L182.966 -17.9433ZM68.0626 -46.2312L182.01 -17.561L137.655 30.9872L68.0626 -46.2312Z" fill="url(#paint9_linear_194_181)"/>
<path d="M637.609 -29.4113V-29.0291L650.419 30.7961L650.801 30.605L699.171 -6.28403L698.789 -6.47517L637.609 -29.4113ZM650.992 30.0316L638.374 -28.6468L698.406 -6.28403L650.992 30.0316Z" fill="url(#paint10_linear_194_181)"/>
<path d="M602.431 146.433L600.519 145.859L506.263 116.807L506.072 117.38L598.607 145.859L516.588 142.61V142.992L602.431 146.433Z" fill="url(#paint11_linear_194_181)"/>
<path d="M623.079 122.923H622.505L504.16 116.807L506.072 117.38L600.519 146.433L600.71 146.241L623.079 122.923ZM507.984 117.38L621.932 123.305L600.327 145.859L507.984 117.38Z" fill="url(#paint12_linear_194_181)"/>
<path d="M601.092 145.859L600.519 145.859L516.588 142.61V142.992L599.945 146.433L533.603 218.108L533.986 218.299L601.092 145.859Z" fill="url(#paint13_linear_194_181)"/>
<path d="M600.519 145.859L600.327 146.05L533.603 218.108L533.986 218.299L600.519 146.433L685.406 241.044L685.788 240.853L600.519 145.859Z" fill="url(#paint14_linear_194_181)"/>
<path d="M622.505 122.923L599.945 146.433L600.71 146.241L652.904 138.405L652.33 138.023L622.505 122.923ZM601.283 145.859L622.505 123.496L651.183 138.405L601.283 145.859Z" fill="url(#paint15_linear_194_181)"/>
<path d="M652.139 138.214H651.948L600.136 146.05L600.519 146.433L686.17 242L685.788 240.853L652.139 138.214ZM601.092 146.433L651.948 138.787L685.023 239.898L601.092 146.433Z" fill="url(#paint16_linear_194_181)"/>
<path d="M234.013 -130.713L233.631 -130.139L211.453 -89.8099L212.218 -90.1922L238.793 -105.483V-105.674L234.013 -130.713ZM212.791 -90.9567L233.822 -129.184L238.219 -105.674L212.791 -90.9567Z" fill="url(#paint17_linear_194_181)"/>
<path d="M167.098 -156.134L167.48 -155.56L212.218 -90.0011L212.409 -90.3833L234.395 -130.139L167.098 -156.134ZM212.218 -90.7656L168.436 -154.987L233.631 -129.757L212.218 -90.7656Z" fill="url(#paint18_linear_194_181)"/>
<path d="M492.307 -17.3698V-17.1787L471.276 80.1089L471.85 79.1532L532.838 -2.84363L532.456 -3.03474L492.307 -17.3698ZM472.232 78.0064L492.689 -16.7964L532.074 -2.46135L472.232 78.0064Z" fill="url(#paint19_linear_194_181)"/>
<path d="M533.03 -3.60815L532.265 -2.84363L471.467 78.9621L471.85 79.3443L532.074 -1.50568L505.881 116.998L506.455 117.189L533.03 -3.60815Z" fill="url(#paint20_linear_194_181)"/>
<path d="M532.456 -3.22589L532.265 -2.65248L505.881 117.38H506.263L625.947 120.821L625.564 120.438L532.456 -3.22589ZM506.455 116.807L532.647 -2.07907L624.799 120.247L506.455 116.807Z" fill="url(#paint21_linear_194_181)"/>
<path d="M650.992 30.2227H650.801L531.883 -3.03474L532.265 -2.46136L625.373 121.012L625.564 120.629L650.992 30.2227ZM533.221 -2.27022L650.61 30.605L625.182 120.056L533.221 -2.27022Z" fill="url(#paint22_linear_194_181)"/>
<path d="M625.755 120.247H625.182L506.072 116.807V117.38L622.505 123.496L625.755 120.247ZM526.72 117.954L624.799 120.821L622.505 123.114L526.72 117.954Z" fill="url(#paint23_linear_194_181)"/>
<path d="M625.182 120.247L622.123 123.305L651.948 138.787L652.139 138.405L625.182 120.247ZM622.888 123.114L625.182 120.821L648.124 136.302L622.888 123.114Z" fill="url(#paint24_linear_194_181)"/>
<path d="M182.966 -18.5167L182.392 -17.9433L137.464 31.3695L137.655 31.5606L170.73 67.8763V67.3028L182.966 -18.5167ZM138.037 31.3695L182.01 -16.9876L170.348 66.7294L138.037 31.3695Z" fill="url(#paint25_linear_194_181)"/>
<path d="M274.353 -1.31454L273.78 -1.50568L182.392 -17.9433L170.348 67.8763L170.73 67.494L274.353 -1.31454ZM182.775 -17.561L273.015 -1.1234L170.921 66.7294L182.775 -17.561Z" fill="url(#paint26_linear_194_181)"/>
<path d="M650.801 29.6493L650.61 30.2227L624.991 120.821L681.2 95.5908L681.008 95.3997L650.801 29.6493ZM625.564 120.056L650.801 30.9872L680.435 95.3997L625.564 120.056Z" fill="url(#paint27_linear_194_181)"/>
<path d="M681.391 95.0174L680.626 95.3997L624.608 120.438L624.991 120.629L651.948 138.787L652.139 138.596L681.391 95.0174ZM625.755 120.629L680.053 96.1642L651.948 138.214L625.755 120.629Z" fill="url(#paint28_linear_194_181)"/>
<path d="M680.626 95.3997L651.566 138.596L651.948 138.787L713.51 158.283V157.901L652.33 138.405L681.008 95.7819L680.626 95.3997Z" fill="url(#paint29_linear_194_181)"/>
<path d="M357.902 -7.81311L272.633 -1.31454L273.589 -0.932266L380.271 37.6769L380.462 37.2947L274.736 -0.932266L357.902 -7.43085V-7.81311Z" fill="url(#paint30_linear_194_181)"/>
<path d="M389.257 -33.9986L388.683 -33.6163L357.711 -7.81311L358.093 -7.43085L388.492 -32.8518L380.08 37.4858H380.462L389.257 -33.9986Z" fill="url(#paint31_linear_194_181)"/>
<path d="M493.263 -17.1787L492.498 -17.3698L388.683 -33.8075V-33.6163L380.08 37.6769L380.462 37.4858L493.263 -17.1787ZM389.066 -33.234L491.733 -16.9876L380.654 37.1035L389.066 -33.234Z" fill="url(#paint32_linear_194_181)"/>
<path d="M492.88 -17.561L492.498 -17.3698L380.271 37.2947L380.462 37.6769L492.116 -16.6053L471.467 78.9621L472.041 79.1532L492.88 -17.561Z" fill="url(#paint33_linear_194_181)"/>
<path d="M635.697 -255.142L523.279 -120.965L523.661 -120.774L636.079 -254.95L635.697 -255.142Z" fill="url(#paint34_linear_194_181)"/>
<path d="M703.568 -174.483L523.279 -121.156L523.47 -120.583L703.568 -174.1V-174.483Z" fill="url(#paint35_linear_194_181)"/>
<path d="M635.697 -255.142L523.279 -120.965L523.661 -120.774L636.079 -254.95L635.697 -255.142Z" fill="url(#paint36_linear_194_181)"/>
<path d="M170.539 66.7294L170.348 67.1117L117.389 150.829L117.771 151.02L170.539 67.8763L199.599 127.319L199.982 127.128L170.539 66.7294Z" fill="url(#paint37_linear_194_181)"/>
<path d="M698.598 -6.47517L650.227 30.605L678.523 35.5745V35.1922L651.374 30.2227L698.98 -6.09291L698.598 -6.47517Z" fill="url(#paint38_linear_194_181)"/>
<path d="M678.523 35.1922L650.419 30.0316L650.61 30.605L680.626 95.5908L681.008 95.3997L651.183 30.7961L678.523 35.5745V35.1922Z" fill="url(#paint39_linear_194_181)"/>
<path d="M305.135 -143.137L237.454 -105.292H238.602L338.019 -114.849V-115.422L239.749 -106.056L305.326 -142.563L305.135 -143.137Z" fill="url(#paint40_linear_194_181)"/>
<path d="M360.196 -111.79L359.623 -111.599L387.919 -35.5276L338.21 -115.231L337.828 -115.04L390.022 -31.3227L360.196 -111.79Z" fill="url(#paint41_linear_194_181)"/>
<path d="M57.3561 -160.53L57.1649 -160.147L103.05 -139.314L13.7655 -126.126L13.9567 -125.552L104.771 -139.123L57.3561 -160.53Z" fill="url(#paint42_linear_194_181)"/>
<path d="M104.197 -139.505H103.815L13.3831 -125.934L13.5743 -125.552L67.489 -46.0401L67.6802 -46.4223L104.197 -139.505ZM14.339 -125.552L103.623 -138.932L67.489 -47.1869L14.339 -125.552Z" fill="url(#paint43_linear_194_181)"/>
<path d="M169.201 -155.751L119.301 -160.721V-160.53L103.241 -138.932L103.815 -139.123L169.201 -155.751ZM119.301 -160.147L166.333 -155.56L104.388 -139.696L119.301 -160.147Z" fill="url(#paint44_linear_194_181)"/>
<path d="M167.862 -155.943L103.241 -139.314L103.815 -139.123L212.982 -89.8099L212.409 -90.5745L167.862 -155.943ZM104.579 -139.123L167.671 -155.178L211.453 -90.7656L104.579 -139.123Z" fill="url(#paint45_linear_194_181)"/>
<path d="M436.098 -93.6326L388.875 -33.9986L360.196 -111.79L359.623 -111.599L388.875 -32.8518L389.066 -33.234L436.48 -93.2503L436.098 -93.6326Z" fill="url(#paint46_linear_194_181)"/>
<path d="M436.289 -93.8238L436.098 -93.6326L388.492 -33.234H388.875L493.072 -16.7964L492.689 -17.1787L436.289 -93.8238ZM389.257 -33.6163L436.098 -93.0592L491.924 -17.3698L389.257 -33.6163Z" fill="url(#paint47_linear_194_181)"/>
<path d="M550.236 -78.1507L492.498 -17.561L436.48 -93.6326L436.098 -93.4415L492.498 -16.7964L492.689 -16.9876L550.619 -77.7684L550.236 -78.1507Z" fill="url(#paint48_linear_194_181)"/>
<path d="M137.081 30.2227L147.596 58.7018H147.788L171.495 67.8763L170.73 67.1117L137.081 30.2227ZM147.979 58.3195L138.419 32.3252L169.774 66.7294L147.979 58.3195Z" fill="url(#paint49_linear_194_181)"/>
<path d="M147.788 58.3195V58.5106L116.815 152.74L170.921 67.3028L170.73 67.1117L147.788 58.3195ZM118.536 149.109L147.979 58.8929L170.157 67.494L118.536 149.109Z" fill="url(#paint50_linear_194_181)"/>
<path d="M13.9567 -125.934L13.5743 -125.743L66.5331 -47.7603L0.191187 -94.3972L0 -94.0149L68.445 -45.8489L67.6802 -46.8046L13.9567 -125.934Z" fill="url(#paint51_linear_194_181)"/>
<path d="M88.1372 -159.765L87.7549 -159.383L103.05 -139.887L57.3561 -160.53L57.1649 -160.147L104.771 -138.549L88.1372 -159.765Z" fill="url(#paint52_linear_194_181)"/>
<path d="M119.11 -160.53L103.815 -139.696L88.1372 -159.765L87.7549 -159.383L103.815 -138.932L104.006 -139.123L119.492 -160.339L119.11 -160.53Z" fill="url(#paint53_linear_194_181)"/>
<path d="M558.458 -21.766H557.693L491.351 -17.1787L532.456 -2.27022H532.647L558.458 -21.766ZM493.645 -16.9876L556.737 -21.1925L532.265 -2.84363L493.645 -16.9876Z" fill="url(#paint54_linear_194_181)"/>
<path d="M550.619 -78.533L491.924 -16.7964H492.498L557.884 -21.1925V-21.3837L550.619 -78.533ZM493.072 -17.3698L550.236 -77.3862L557.31 -21.766L493.072 -17.3698Z" fill="url(#paint55_linear_194_181)"/>
<path d="M557.693 -21.766L532.074 -2.46135L532.456 -2.27022L652.713 31.3695L650.992 30.4138L557.693 -21.766ZM533.03 -2.65248L557.693 -21.1925L648.889 29.6493L533.03 -2.65248Z" fill="url(#paint56_linear_194_181)"/>
<path d="M550.045 -78.533V-77.9596L557.31 -21.1925L638.565 -28.8379L637.8 -29.2202L550.045 -78.533ZM557.884 -21.766L550.619 -77.5773L637.035 -29.2202L557.884 -21.766Z" fill="url(#paint57_linear_194_181)"/>
<path d="M638.182 -29.2202H637.991L556.928 -21.766L557.693 -21.3837L651.183 30.7961L650.992 30.2227L638.182 -29.2202ZM558.458 -21.3837L637.8 -28.8379L650.419 29.8404L558.458 -21.3837Z" fill="url(#paint58_linear_194_181)"/>
<path d="M263.265 -262.405L178.76 -177.541H179.142L305.326 -142.563V-143.137L179.716 -177.923L263.456 -262.022L263.265 -262.405Z" fill="url(#paint59_linear_194_181)"/>
<path d="M306.473 -142.754L305.517 -143.137L178.378 -178.305L179.142 -177.541L234.013 -129.566H234.204L306.473 -142.754ZM180.098 -177.159L304.179 -142.754L234.013 -130.139L180.098 -177.159Z" fill="url(#paint60_linear_194_181)"/>
<path d="M151.994 -297H151.42L178.951 -177.923L119.11 -160.721L119.301 -160.147L179.525 -177.541L179.333 -177.732L151.994 -297Z" fill="url(#paint61_linear_194_181)"/>
<path d="M179.716 -178.114L179.142 -177.923L117.962 -160.339L167.862 -155.369V-155.56L179.716 -178.114ZM120.448 -160.53L178.569 -177.35L167.48 -155.751L120.448 -160.53Z" fill="url(#paint62_linear_194_181)"/>
<path d="M263.265 -262.405L179.333 -178.305L151.994 -297H151.42L179.142 -177.35L179.333 -177.541L263.456 -262.022L263.265 -262.405Z" fill="url(#paint63_linear_194_181)"/>
<path d="M179.142 -178.114L167.48 -155.56L235.351 -129.184L179.142 -178.114ZM168.053 -155.751L179.333 -177.35L232.866 -130.713L168.053 -155.751Z" fill="url(#paint64_linear_194_181)"/>
<path d="M211.835 -90.7656V-90.1922L216.997 -42.2174H217.189L287.928 -40.4972L287.163 -40.8794L211.835 -90.7656ZM217.571 -42.7908L212.409 -89.8099L286.398 -41.2617L217.571 -42.7908Z" fill="url(#paint65_linear_194_181)"/>
<path d="M238.602 -105.865L211.644 -90.1922L288.31 -39.9238L238.602 -105.865ZM212.6 -90.3833L238.41 -105.292L286.207 -42.0262L212.6 -90.3833Z" fill="url(#paint66_linear_194_181)"/>
<path d="M287.545 -41.2617H287.163L216.424 -42.9819L216.997 -42.5996L273.589 -0.932266L287.545 -41.2617ZM218.144 -42.4085L286.972 -40.6883L273.589 -1.50568L218.144 -42.4085Z" fill="url(#paint67_linear_194_181)"/>
<path d="M338.401 -115.422H337.828L238.028 -105.865L238.219 -105.483L287.163 -40.4972L287.354 -40.6883L338.401 -115.422ZM238.984 -105.483L337.445 -115.04L287.163 -41.644L238.984 -105.483Z" fill="url(#paint68_linear_194_181)"/>
<path d="M287.163 -41.2617V-41.0706L273.398 -0.741135H273.78L358.858 -7.43085L358.093 -7.81311L287.163 -41.2617ZM273.971 -1.31454L287.354 -40.6883L356.946 -7.81311L273.971 -1.31454Z" fill="url(#paint69_linear_194_181)"/>
<path d="M338.019 -115.613L337.828 -115.231L286.972 -40.6883H287.354L389.448 -33.0429L389.257 -33.4252L338.019 -115.613ZM287.737 -41.2617L338.019 -114.849L388.492 -33.8075L287.737 -41.2617Z" fill="url(#paint70_linear_194_181)"/>
<path d="M389.448 -33.6163H388.875L286.016 -41.2617L287.163 -40.6883L357.902 -7.2397H358.093L389.448 -33.6163ZM288.501 -40.6883L388.11 -33.234L357.711 -7.81311L288.501 -40.6883Z" fill="url(#paint71_linear_194_181)"/>
<path d="M138.037 30.9872L10.3241 44.7489L12.6183 44.9401L148.17 58.8929L138.037 30.9872ZM14.9126 44.7489L137.655 31.5606L147.596 58.3195L14.9126 44.7489Z" fill="url(#paint72_linear_194_181)"/>
<path d="M148.17 58.3195H147.979L12.6183 44.5578V44.9401L147.596 58.7018L117.389 150.829L117.962 151.02L148.17 58.3195Z" fill="url(#paint73_linear_194_181)"/>
<path d="M309.15 93.2972L170.157 66.9206L170.348 67.494L199.599 127.319L199.982 127.128L171.112 67.6851L308.958 93.8706L309.15 93.2972Z" fill="url(#paint74_linear_194_181)"/>
<path d="M273.78 -1.50568L273.589 -1.31454L169.965 67.494L170.539 67.6851L309.532 94.0617L309.341 93.6794L273.78 -1.50568ZM171.304 67.1117L273.589 -0.741135L308.767 93.2972L171.304 67.1117Z" fill="url(#paint75_linear_194_181)"/>
<path d="M273.206 -1.50568L273.398 -0.932266L308.958 93.6794L309.341 93.4883L274.162 -0.741135L380.271 37.6769L380.462 37.2947L273.206 -1.50568Z" fill="url(#paint76_linear_194_181)"/>
<path d="M0.191187 -94.3972L0 -94.0149L66.7243 -46.8046L30.7811 -40.6883V-40.306L68.0626 -46.6135L67.489 -46.9957L0.191187 -94.3972Z" fill="url(#paint77_linear_194_181)"/>
<path d="M30.9723 -40.4972H30.5899L12.4272 44.7489H12.8095L30.9723 -40.4972Z" fill="url(#paint78_linear_194_181)"/>
<path d="M137.846 30.9872L12.6183 44.5578V44.9401L137.846 31.5606V30.9872Z" fill="url(#paint79_linear_194_181)"/>
<path d="M67.489 -46.9957L30.2076 -40.6883L30.7811 -40.306L139.375 32.7074L138.037 31.1784L67.489 -46.9957ZM31.3547 -40.306L67.2979 -46.4223L136.316 30.0316L31.3547 -40.306Z" fill="url(#paint80_linear_194_181)"/>
<path d="M30.9723 -40.4972H30.5899L12.4272 44.7489H12.8095L30.9723 -40.4972Z" fill="url(#paint81_linear_194_181)"/>
<path d="M191.187 -64.1979V-63.8156L182.201 -17.1787L182.775 -17.561L217.953 -42.5996L217.762 -42.7908L191.187 -64.1979ZM182.966 -18.3255L191.569 -63.2422L216.997 -42.5996L182.966 -18.3255Z" fill="url(#paint82_linear_194_181)"/>
<path d="M212.409 -90.9567L212.026 -90.5745L191.187 -63.8156L191.378 -63.6245L217.762 -42.2174L212.409 -90.9567ZM191.761 -63.8156L212.026 -89.8099L217.189 -43.3642L191.761 -63.8156Z" fill="url(#paint83_linear_194_181)"/>
<path d="M191.761 -64.0067H191.378L66.1507 -46.8046L67.2979 -46.4223L182.584 -17.3698L191.761 -64.0067ZM68.6362 -46.6135L190.996 -63.4333L182.201 -17.9433L68.6362 -46.6135Z" fill="url(#paint84_linear_194_181)"/>
<path d="M103.815 -139.696L103.623 -139.314L67.1067 -46.4223H67.489L191.952 -63.4333L191.569 -63.8156L103.815 -139.696ZM67.8714 -46.9957L104.006 -138.74L190.805 -63.8156L67.8714 -46.9957Z" fill="url(#paint85_linear_194_181)"/>
<path d="M102.476 -140.078L191.378 -63.2422L212.6 -90.1922L212.218 -90.5745L102.476 -140.078ZM191.378 -64.0067L105.344 -138.167L211.835 -90.0011L191.378 -64.0067Z" fill="url(#paint86_linear_194_181)"/>
<defs>
<linearGradient id="paint0_linear_194_181" x1="174.832" y1="237.163" x2="617.786" y2="237.163" gradientUnits="userSpaceOnUse">
<stop stop-color="#D752B3"/>
<stop offset="1" stop-color="#73BCFF"/>
</linearGradient>
<linearGradient id="paint1_linear_194_181" x1="174.832" y1="237.163" x2="617.786" y2="237.163" gradientUnits="userSpaceOnUse">
<stop stop-color="#D752B3"/>
<stop offset="1" stop-color="#73BCFF"/>
</linearGradient>
<linearGradient id="paint2_linear_194_181" x1="174.832" y1="237.163" x2="617.786" y2="237.163" gradientUnits="userSpaceOnUse">
<stop stop-color="#D752B3"/>
<stop offset="1" stop-color="#73BCFF"/>
</linearGradient>
<linearGradient id="paint3_linear_194_181" x1="174.832" y1="237.163" x2="617.786" y2="237.163" gradientUnits="userSpaceOnUse">
<stop stop-color="#D752B3"/>
<stop offset="1" stop-color="#73BCFF"/>
</linearGradient>
<linearGradient id="paint4_linear_194_181" x1="174.832" y1="237.163" x2="617.786" y2="237.163" gradientUnits="userSpaceOnUse">
<stop stop-color="#D752B3"/>
<stop offset="1" stop-color="#73BCFF"/>
</linearGradient>
<linearGradient id="paint5_linear_194_181" x1="174.832" y1="237.163" x2="617.786" y2="237.163" gradientUnits="userSpaceOnUse">
<stop stop-color="#D752B3"/>
<stop offset="1" stop-color="#73BCFF"/>
</linearGradient>
<linearGradient id="paint6_linear_194_181" x1="174.832" y1="237.163" x2="617.786" y2="237.163" gradientUnits="userSpaceOnUse">
<stop stop-color="#D752B3"/>
<stop offset="1" stop-color="#73BCFF"/>
</linearGradient>
<linearGradient id="paint7_linear_194_181" x1="174.832" y1="237.163" x2="617.786" y2="237.163" gradientUnits="userSpaceOnUse">
<stop stop-color="#D752B3"/>
<stop offset="1" stop-color="#73BCFF"/>
</linearGradient>
<linearGradient id="paint8_linear_194_181" x1="174.832" y1="237.163" x2="617.786" y2="237.163" gradientUnits="userSpaceOnUse">
<stop stop-color="#D752B3"/>
<stop offset="1" stop-color="#73BCFF"/>
</linearGradient>
<linearGradient id="paint9_linear_194_181" x1="174.832" y1="237.163" x2="617.786" y2="237.163" gradientUnits="userSpaceOnUse">
<stop stop-color="#D752B3"/>
<stop offset="1" stop-color="#73BCFF"/>
</linearGradient>
<linearGradient id="paint10_linear_194_181" x1="174.832" y1="237.163" x2="617.786" y2="237.163" gradientUnits="userSpaceOnUse">
<stop stop-color="#D752B3"/>
<stop offset="1" stop-color="#73BCFF"/>
</linearGradient>
<linearGradient id="paint11_linear_194_181" x1="174.832" y1="237.163" x2="617.786" y2="237.163" gradientUnits="userSpaceOnUse">
<stop stop-color="#D752B3"/>
<stop offset="1" stop-color="#73BCFF"/>
</linearGradient>
<linearGradient id="paint12_linear_194_181" x1="174.832" y1="237.163" x2="617.786" y2="237.163" gradientUnits="userSpaceOnUse">
<stop stop-color="#D752B3"/>
<stop offset="1" stop-color="#73BCFF"/>
</linearGradient>
<linearGradient id="paint13_linear_194_181" x1="174.832" y1="237.163" x2="617.786" y2="237.163" gradientUnits="userSpaceOnUse">
<stop stop-color="#D752B3"/>
<stop offset="1" stop-color="#73BCFF"/>
</linearGradient>
<linearGradient id="paint14_linear_194_181" x1="174.832" y1="237.163" x2="617.786" y2="237.163" gradientUnits="userSpaceOnUse">
<stop stop-color="#D752B3"/>
<stop offset="1" stop-color="#73BCFF"/>
</linearGradient>
<linearGradient id="paint15_linear_194_181" x1="174.832" y1="237.163" x2="617.786" y2="237.163" gradientUnits="userSpaceOnUse">
<stop stop-color="#D752B3"/>
<stop offset="1" stop-color="#73BCFF"/>
</linearGradient>
<linearGradient id="paint16_linear_194_181" x1="174.832" y1="237.163" x2="617.786" y2="237.163" gradientUnits="userSpaceOnUse">
<stop stop-color="#D752B3"/>
<stop offset="1" stop-color="#73BCFF"/>
</linearGradient>
<linearGradient id="paint17_linear_194_181" x1="174.832" y1="237.163" x2="617.786" y2="237.163" gradientUnits="userSpaceOnUse">
<stop stop-color="#D752B3"/>
<stop offset="1" stop-color="#73BCFF"/>
</linearGradient>
<linearGradient id="paint18_linear_194_181" x1="174.832" y1="237.163" x2="617.786" y2="237.163" gradientUnits="userSpaceOnUse">
<stop stop-color="#D752B3"/>
<stop offset="1" stop-color="#73BCFF"/>
</linearGradient>
<linearGradient id="paint19_linear_194_181" x1="174.832" y1="237.163" x2="617.786" y2="237.163" gradientUnits="userSpaceOnUse">
<stop stop-color="#D752B3"/>
<stop offset="1" stop-color="#73BCFF"/>
</linearGradient>
<linearGradient id="paint20_linear_194_181" x1="174.832" y1="237.163" x2="617.786" y2="237.163" gradientUnits="userSpaceOnUse">
<stop stop-color="#D752B3"/>
<stop offset="1" stop-color="#73BCFF"/>
</linearGradient>
<linearGradient id="paint21_linear_194_181" x1="174.832" y1="237.163" x2="617.786" y2="237.163" gradientUnits="userSpaceOnUse">
<stop stop-color="#D752B3"/>
<stop offset="1" stop-color="#73BCFF"/>
</linearGradient>
<linearGradient id="paint22_linear_194_181" x1="174.832" y1="237.163" x2="617.786" y2="237.163" gradientUnits="userSpaceOnUse">
<stop stop-color="#D752B3"/>
<stop offset="1" stop-color="#73BCFF"/>
</linearGradient>
<linearGradient id="paint23_linear_194_181" x1="174.832" y1="237.163" x2="617.786" y2="237.163" gradientUnits="userSpaceOnUse">
<stop stop-color="#D752B3"/>
<stop offset="1" stop-color="#73BCFF"/>
</linearGradient>
<linearGradient id="paint24_linear_194_181" x1="174.832" y1="237.163" x2="617.786" y2="237.163" gradientUnits="userSpaceOnUse">
<stop stop-color="#D752B3"/>
<stop offset="1" stop-color="#73BCFF"/>
</linearGradient>
<linearGradient id="paint25_linear_194_181" x1="174.832" y1="237.163" x2="617.786" y2="237.163" gradientUnits="userSpaceOnUse">
<stop stop-color="#D752B3"/>
<stop offset="1" stop-color="#73BCFF"/>
</linearGradient>
<linearGradient id="paint26_linear_194_181" x1="174.832" y1="237.163" x2="617.786" y2="237.163" gradientUnits="userSpaceOnUse">
<stop stop-color="#D752B3"/>
<stop offset="1" stop-color="#73BCFF"/>
</linearGradient>
<linearGradient id="paint27_linear_194_181" x1="174.832" y1="237.163" x2="617.786" y2="237.163" gradientUnits="userSpaceOnUse">
<stop stop-color="#D752B3"/>
<stop offset="1" stop-color="#73BCFF"/>
</linearGradient>
<linearGradient id="paint28_linear_194_181" x1="174.832" y1="237.163" x2="617.786" y2="237.163" gradientUnits="userSpaceOnUse">
<stop stop-color="#D752B3"/>
<stop offset="1" stop-color="#73BCFF"/>
</linearGradient>
<linearGradient id="paint29_linear_194_181" x1="174.832" y1="237.163" x2="617.786" y2="237.163" gradientUnits="userSpaceOnUse">
<stop stop-color="#D752B3"/>
<stop offset="1" stop-color="#73BCFF"/>
</linearGradient>
<linearGradient id="paint30_linear_194_181" x1="174.832" y1="237.163" x2="617.786" y2="237.163" gradientUnits="userSpaceOnUse">
<stop stop-color="#D752B3"/>
<stop offset="1" stop-color="#73BCFF"/>
</linearGradient>
<linearGradient id="paint31_linear_194_181" x1="174.832" y1="237.163" x2="617.786" y2="237.163" gradientUnits="userSpaceOnUse">
<stop stop-color="#D752B3"/>
<stop offset="1" stop-color="#73BCFF"/>
</linearGradient>
<linearGradient id="paint32_linear_194_181" x1="174.832" y1="237.163" x2="617.786" y2="237.163" gradientUnits="userSpaceOnUse">
<stop stop-color="#D752B3"/>
<stop offset="1" stop-color="#73BCFF"/>
</linearGradient>
<linearGradient id="paint33_linear_194_181" x1="174.832" y1="237.163" x2="617.786" y2="237.163" gradientUnits="userSpaceOnUse">
<stop stop-color="#D752B3"/>
<stop offset="1" stop-color="#73BCFF"/>
</linearGradient>
<linearGradient id="paint34_linear_194_181" x1="174.832" y1="237.163" x2="617.786" y2="237.163" gradientUnits="userSpaceOnUse">
<stop stop-color="#D752B3"/>
<stop offset="1" stop-color="#73BCFF"/>
</linearGradient>
<linearGradient id="paint35_linear_194_181" x1="174.832" y1="237.163" x2="617.786" y2="237.163" gradientUnits="userSpaceOnUse">
<stop stop-color="#D752B3"/>
<stop offset="1" stop-color="#73BCFF"/>
</linearGradient>
<linearGradient id="paint36_linear_194_181" x1="174.832" y1="237.163" x2="617.786" y2="237.163" gradientUnits="userSpaceOnUse">
<stop stop-color="#D752B3"/>
<stop offset="1" stop-color="#73BCFF"/>
</linearGradient>
<linearGradient id="paint37_linear_194_181" x1="174.832" y1="237.163" x2="617.786" y2="237.163" gradientUnits="userSpaceOnUse">
<stop stop-color="#D752B3"/>
<stop offset="1" stop-color="#73BCFF"/>
</linearGradient>
<linearGradient id="paint38_linear_194_181" x1="174.832" y1="237.163" x2="617.786" y2="237.163" gradientUnits="userSpaceOnUse">
<stop stop-color="#D752B3"/>
<stop offset="1" stop-color="#73BCFF"/>
</linearGradient>
<linearGradient id="paint39_linear_194_181" x1="174.832" y1="237.163" x2="617.786" y2="237.163" gradientUnits="userSpaceOnUse">
<stop stop-color="#D752B3"/>
<stop offset="1" stop-color="#73BCFF"/>
</linearGradient>
<linearGradient id="paint40_linear_194_181" x1="174.832" y1="237.163" x2="617.786" y2="237.163" gradientUnits="userSpaceOnUse">
<stop stop-color="#D752B3"/>
<stop offset="1" stop-color="#73BCFF"/>
</linearGradient>
<linearGradient id="paint41_linear_194_181" x1="174.832" y1="237.163" x2="617.786" y2="237.163" gradientUnits="userSpaceOnUse">
<stop stop-color="#D752B3"/>
<stop offset="1" stop-color="#73BCFF"/>
</linearGradient>
<linearGradient id="paint42_linear_194_181" x1="174.832" y1="237.163" x2="617.786" y2="237.163" gradientUnits="userSpaceOnUse">
<stop stop-color="#D752B3"/>
<stop offset="1" stop-color="#73BCFF"/>
</linearGradient>
<linearGradient id="paint43_linear_194_181" x1="174.832" y1="237.163" x2="617.786" y2="237.163" gradientUnits="userSpaceOnUse">
<stop stop-color="#D752B3"/>
<stop offset="1" stop-color="#73BCFF"/>
</linearGradient>
<linearGradient id="paint44_linear_194_181" x1="174.832" y1="237.163" x2="617.786" y2="237.163" gradientUnits="userSpaceOnUse">
<stop stop-color="#D752B3"/>
<stop offset="1" stop-color="#73BCFF"/>
</linearGradient>
<linearGradient id="paint45_linear_194_181" x1="174.832" y1="237.163" x2="617.786" y2="237.163" gradientUnits="userSpaceOnUse">
<stop stop-color="#D752B3"/>
<stop offset="1" stop-color="#73BCFF"/>
</linearGradient>
<linearGradient id="paint46_linear_194_181" x1="174.832" y1="237.163" x2="617.786" y2="237.163" gradientUnits="userSpaceOnUse">
<stop stop-color="#D752B3"/>
<stop offset="1" stop-color="#73BCFF"/>
</linearGradient>
<linearGradient id="paint47_linear_194_181" x1="174.832" y1="237.163" x2="617.786" y2="237.163" gradientUnits="userSpaceOnUse">
<stop stop-color="#D752B3"/>
<stop offset="1" stop-color="#73BCFF"/>
</linearGradient>
<linearGradient id="paint48_linear_194_181" x1="174.832" y1="237.163" x2="617.786" y2="237.163" gradientUnits="userSpaceOnUse">
<stop stop-color="#D752B3"/>
<stop offset="1" stop-color="#73BCFF"/>
</linearGradient>
<linearGradient id="paint49_linear_194_181" x1="174.832" y1="237.163" x2="617.786" y2="237.163" gradientUnits="userSpaceOnUse">
<stop stop-color="#D752B3"/>
<stop offset="1" stop-color="#73BCFF"/>
</linearGradient>
<linearGradient id="paint50_linear_194_181" x1="174.832" y1="237.163" x2="617.786" y2="237.163" gradientUnits="userSpaceOnUse">
<stop stop-color="#D752B3"/>
<stop offset="1" stop-color="#73BCFF"/>
</linearGradient>
<linearGradient id="paint51_linear_194_181" x1="174.832" y1="237.163" x2="617.786" y2="237.163" gradientUnits="userSpaceOnUse">
<stop stop-color="#D752B3"/>
<stop offset="1" stop-color="#73BCFF"/>
</linearGradient>
<linearGradient id="paint52_linear_194_181" x1="174.832" y1="237.163" x2="617.786" y2="237.163" gradientUnits="userSpaceOnUse">
<stop stop-color="#D752B3"/>
<stop offset="1" stop-color="#73BCFF"/>
</linearGradient>
<linearGradient id="paint53_linear_194_181" x1="174.832" y1="237.163" x2="617.786" y2="237.163" gradientUnits="userSpaceOnUse">
<stop stop-color="#D752B3"/>
<stop offset="1" stop-color="#73BCFF"/>
</linearGradient>
<linearGradient id="paint54_linear_194_181" x1="174.832" y1="237.163" x2="617.786" y2="237.163" gradientUnits="userSpaceOnUse">
<stop stop-color="#D752B3"/>
<stop offset="1" stop-color="#73BCFF"/>
</linearGradient>
<linearGradient id="paint55_linear_194_181" x1="174.832" y1="237.163" x2="617.786" y2="237.163" gradientUnits="userSpaceOnUse">
<stop stop-color="#D752B3"/>
<stop offset="1" stop-color="#73BCFF"/>
</linearGradient>
<linearGradient id="paint56_linear_194_181" x1="174.832" y1="237.163" x2="617.786" y2="237.163" gradientUnits="userSpaceOnUse">
<stop stop-color="#D752B3"/>
<stop offset="1" stop-color="#73BCFF"/>
</linearGradient>
<linearGradient id="paint57_linear_194_181" x1="174.832" y1="237.163" x2="617.786" y2="237.163" gradientUnits="userSpaceOnUse">
<stop stop-color="#D752B3"/>
<stop offset="1" stop-color="#73BCFF"/>
</linearGradient>
<linearGradient id="paint58_linear_194_181" x1="174.832" y1="237.163" x2="617.786" y2="237.163" gradientUnits="userSpaceOnUse">
<stop stop-color="#D752B3"/>
<stop offset="1" stop-color="#73BCFF"/>
</linearGradient>
<linearGradient id="paint59_linear_194_181" x1="174.832" y1="237.163" x2="617.786" y2="237.163" gradientUnits="userSpaceOnUse">
<stop stop-color="#D752B3"/>
<stop offset="1" stop-color="#73BCFF"/>
</linearGradient>
<linearGradient id="paint60_linear_194_181" x1="174.832" y1="237.163" x2="617.786" y2="237.163" gradientUnits="userSpaceOnUse">
<stop stop-color="#D752B3"/>
<stop offset="1" stop-color="#73BCFF"/>
</linearGradient>
<linearGradient id="paint61_linear_194_181" x1="174.832" y1="237.163" x2="617.786" y2="237.163" gradientUnits="userSpaceOnUse">
<stop stop-color="#D752B3"/>
<stop offset="1" stop-color="#73BCFF"/>
</linearGradient>
<linearGradient id="paint62_linear_194_181" x1="174.832" y1="237.163" x2="617.786" y2="237.163" gradientUnits="userSpaceOnUse">
<stop stop-color="#D752B3"/>
<stop offset="1" stop-color="#73BCFF"/>
</linearGradient>
<linearGradient id="paint63_linear_194_181" x1="174.832" y1="237.163" x2="617.786" y2="237.163" gradientUnits="userSpaceOnUse">
<stop stop-color="#D752B3"/>
<stop offset="1" stop-color="#73BCFF"/>
</linearGradient>
<linearGradient id="paint64_linear_194_181" x1="174.832" y1="237.163" x2="617.786" y2="237.163" gradientUnits="userSpaceOnUse">
<stop stop-color="#D752B3"/>
<stop offset="1" stop-color="#73BCFF"/>
</linearGradient>
<linearGradient id="paint65_linear_194_181" x1="174.832" y1="237.163" x2="617.786" y2="237.163" gradientUnits="userSpaceOnUse">
<stop stop-color="#D752B3"/>
<stop offset="1" stop-color="#73BCFF"/>
</linearGradient>
<linearGradient id="paint66_linear_194_181" x1="174.832" y1="237.163" x2="617.786" y2="237.163" gradientUnits="userSpaceOnUse">
<stop stop-color="#D752B3"/>
<stop offset="1" stop-color="#73BCFF"/>
</linearGradient>
<linearGradient id="paint67_linear_194_181" x1="174.832" y1="237.163" x2="617.786" y2="237.163" gradientUnits="userSpaceOnUse">
<stop stop-color="#D752B3"/>
<stop offset="1" stop-color="#73BCFF"/>
</linearGradient>
<linearGradient id="paint68_linear_194_181" x1="174.832" y1="237.163" x2="617.786" y2="237.163" gradientUnits="userSpaceOnUse">
<stop stop-color="#D752B3"/>
<stop offset="1" stop-color="#73BCFF"/>
</linearGradient>
<linearGradient id="paint69_linear_194_181" x1="174.832" y1="237.163" x2="617.786" y2="237.163" gradientUnits="userSpaceOnUse">
<stop stop-color="#D752B3"/>
<stop offset="1" stop-color="#73BCFF"/>
</linearGradient>
<linearGradient id="paint70_linear_194_181" x1="174.832" y1="237.163" x2="617.786" y2="237.163" gradientUnits="userSpaceOnUse">
<stop stop-color="#D752B3"/>
<stop offset="1" stop-color="#73BCFF"/>
</linearGradient>
<linearGradient id="paint71_linear_194_181" x1="174.832" y1="237.163" x2="617.786" y2="237.163" gradientUnits="userSpaceOnUse">
<stop stop-color="#D752B3"/>
<stop offset="1" stop-color="#73BCFF"/>
</linearGradient>
<linearGradient id="paint72_linear_194_181" x1="174.832" y1="237.163" x2="617.786" y2="237.163" gradientUnits="userSpaceOnUse">
<stop stop-color="#D752B3"/>
<stop offset="1" stop-color="#73BCFF"/>
</linearGradient>
<linearGradient id="paint73_linear_194_181" x1="174.832" y1="237.163" x2="617.786" y2="237.163" gradientUnits="userSpaceOnUse">
<stop stop-color="#D752B3"/>
<stop offset="1" stop-color="#73BCFF"/>
</linearGradient>
<linearGradient id="paint74_linear_194_181" x1="174.832" y1="237.163" x2="617.786" y2="237.163" gradientUnits="userSpaceOnUse">
<stop stop-color="#D752B3"/>
<stop offset="1" stop-color="#73BCFF"/>
</linearGradient>
<linearGradient id="paint75_linear_194_181" x1="174.832" y1="237.163" x2="617.786" y2="237.163" gradientUnits="userSpaceOnUse">
<stop stop-color="#D752B3"/>
<stop offset="1" stop-color="#73BCFF"/>
</linearGradient>
<linearGradient id="paint76_linear_194_181" x1="174.832" y1="237.163" x2="617.786" y2="237.163" gradientUnits="userSpaceOnUse">
<stop stop-color="#D752B3"/>
<stop offset="1" stop-color="#73BCFF"/>
</linearGradient>
<linearGradient id="paint77_linear_194_181" x1="174.832" y1="237.163" x2="617.786" y2="237.163" gradientUnits="userSpaceOnUse">
<stop stop-color="#D752B3"/>
<stop offset="1" stop-color="#73BCFF"/>
</linearGradient>
<linearGradient id="paint78_linear_194_181" x1="174.832" y1="237.163" x2="617.786" y2="237.163" gradientUnits="userSpaceOnUse">
<stop stop-color="#D752B3"/>
<stop offset="1" stop-color="#73BCFF"/>
</linearGradient>
<linearGradient id="paint79_linear_194_181" x1="174.832" y1="237.163" x2="617.786" y2="237.163" gradientUnits="userSpaceOnUse">
<stop stop-color="#D752B3"/>
<stop offset="1" stop-color="#73BCFF"/>
</linearGradient>
<linearGradient id="paint80_linear_194_181" x1="174.832" y1="237.163" x2="617.786" y2="237.163" gradientUnits="userSpaceOnUse">
<stop stop-color="#D752B3"/>
<stop offset="1" stop-color="#73BCFF"/>
</linearGradient>
<linearGradient id="paint81_linear_194_181" x1="174.832" y1="237.163" x2="617.786" y2="237.163" gradientUnits="userSpaceOnUse">
<stop stop-color="#D752B3"/>
<stop offset="1" stop-color="#73BCFF"/>
</linearGradient>
<linearGradient id="paint82_linear_194_181" x1="174.832" y1="237.163" x2="617.786" y2="237.163" gradientUnits="userSpaceOnUse">
<stop stop-color="#D752B3"/>
<stop offset="1" stop-color="#73BCFF"/>
</linearGradient>
<linearGradient id="paint83_linear_194_181" x1="174.832" y1="237.163" x2="617.786" y2="237.163" gradientUnits="userSpaceOnUse">
<stop stop-color="#D752B3"/>
<stop offset="1" stop-color="#73BCFF"/>
</linearGradient>
<linearGradient id="paint84_linear_194_181" x1="174.832" y1="237.163" x2="617.786" y2="237.163" gradientUnits="userSpaceOnUse">
<stop stop-color="#D752B3"/>
<stop offset="1" stop-color="#73BCFF"/>
</linearGradient>
<linearGradient id="paint85_linear_194_181" x1="174.832" y1="237.163" x2="617.786" y2="237.163" gradientUnits="userSpaceOnUse">
<stop stop-color="#D752B3"/>
<stop offset="1" stop-color="#73BCFF"/>
</linearGradient>
<linearGradient id="paint86_linear_194_181" x1="174.832" y1="237.163" x2="617.786" y2="237.163" gradientUnits="userSpaceOnUse">
<stop stop-color="#D752B3"/>
<stop offset="1" stop-color="#73BCFF"/>
</linearGradient>
</defs>
</svg>
