<svg width="570" height="226" viewBox="0 0 570 226" fill="none" xmlns="http://www.w3.org/2000/svg">
<path d="M752.704 125.958L752.13 126.149L793.618 238.727L794 238.536L752.704 125.958Z" fill="url(#paint0_linear_194_180)"/>
<path d="M217.38 254.018L181.819 279.248L182.392 279.439L274.545 296.259L217.38 254.018ZM183.157 279.057L217.38 254.591L272.633 295.494L183.157 279.057Z" fill="url(#paint1_linear_194_180)"/>
<path d="M306.664 153.672L305.135 153.863L233.631 166.861V167.052L238.219 191.708L238.602 191.517L306.664 153.672ZM234.204 167.243L303.796 154.628L238.602 190.944L234.204 167.243Z" fill="url(#paint2_linear_194_180)"/>
<path d="M713.51 454.901L651.566 435.023L651.757 435.596L685.215 538.044L685.788 537.853L652.33 435.787L713.51 455.283V454.901Z" fill="url(#paint3_linear_194_180)"/>
<path d="M793.809 238.345L637.035 267.971L637.991 268.162L698.789 290.907V290.525L638.947 268.162L793.809 238.918V238.345Z" fill="url(#paint4_linear_194_180)"/>
<path d="M703.377 122.517L550.236 218.849L550.619 219.232L703.76 122.9L703.377 122.517Z" fill="url(#paint5_linear_194_180)"/>
<path d="M550.619 218.849L550.236 219.232L637.991 268.162L638.182 267.78L550.619 218.849Z" fill="url(#paint6_linear_194_180)"/>
<path d="M703.76 122.517L703.377 122.9L793.618 238.727L794 238.536L703.76 122.517Z" fill="url(#paint7_linear_194_180)"/>
<path d="M703.76 122.517L703.377 122.9L793.618 238.727L794 238.536L703.76 122.517Z" fill="url(#paint8_linear_194_180)"/>
<path d="M182.966 279.057L182.584 278.866L66.7243 249.622L67.2979 250.195L137.846 328.752L138.037 328.561L182.966 279.057ZM68.0626 250.769L182.01 279.439L137.655 327.987L68.0626 250.769Z" fill="url(#paint9_linear_194_180)"/>
<path d="M637.609 267.589V267.971L650.419 327.796L650.801 327.605L699.171 290.716L698.789 290.525L637.609 267.589ZM650.992 327.032L638.374 268.353L698.406 290.716L650.992 327.032Z" fill="url(#paint10_linear_194_180)"/>
<path d="M602.431 443.433L600.519 442.859L506.263 413.807L506.072 414.38L598.607 442.859L516.588 439.61V439.992L602.431 443.433Z" fill="url(#paint11_linear_194_180)"/>
<path d="M623.079 419.923H622.505L504.16 413.807L506.072 414.38L600.519 443.433L600.71 443.241L623.079 419.923ZM507.984 414.38L621.932 420.305L600.327 442.859L507.984 414.38Z" fill="url(#paint12_linear_194_180)"/>
<path d="M601.092 442.859L600.519 442.859L516.588 439.61V439.992L599.945 443.433L533.603 515.108L533.986 515.299L601.092 442.859Z" fill="url(#paint13_linear_194_180)"/>
<path d="M600.519 442.859L600.327 443.05L533.603 515.108L533.986 515.299L600.519 443.433L685.406 538.044L685.788 537.853L600.519 442.859Z" fill="url(#paint14_linear_194_180)"/>
<path d="M622.505 419.923L599.945 443.433L600.71 443.241L652.904 435.405L652.33 435.023L622.505 419.923ZM601.283 442.859L622.505 420.496L651.183 435.405L601.283 442.859Z" fill="url(#paint15_linear_194_180)"/>
<path d="M652.139 435.214H651.948L600.136 443.05L600.519 443.433L686.17 539L685.788 537.853L652.139 435.214ZM601.092 443.433L651.948 435.787L685.023 536.898L601.092 443.433Z" fill="url(#paint16_linear_194_180)"/>
<path d="M234.013 166.287L233.631 166.861L211.453 207.19L212.218 206.808L238.793 191.517V191.326L234.013 166.287ZM212.791 206.043L233.822 167.816L238.219 191.326L212.791 206.043Z" fill="url(#paint17_linear_194_180)"/>
<path d="M167.098 140.866L167.48 141.44L212.218 206.999L212.409 206.617L234.395 166.861L167.098 140.866ZM212.218 206.234L168.436 142.013L233.631 167.243L212.218 206.234Z" fill="url(#paint18_linear_194_180)"/>
<path d="M492.307 279.63V279.821L471.276 377.109L471.85 376.153L532.838 294.156L532.456 293.965L492.307 279.63ZM472.232 375.006L492.689 280.204L532.074 294.539L472.232 375.006Z" fill="url(#paint19_linear_194_180)"/>
<path d="M533.03 293.392L532.265 294.156L471.467 375.962L471.85 376.344L532.074 295.494L505.881 413.998L506.455 414.189L533.03 293.392Z" fill="url(#paint20_linear_194_180)"/>
<path d="M532.456 293.774L532.265 294.348L505.881 414.38H506.263L625.947 417.821L625.564 417.438L532.456 293.774ZM506.455 413.807L532.647 294.921L624.799 417.247L506.455 413.807Z" fill="url(#paint21_linear_194_180)"/>
<path d="M650.992 327.223H650.801L531.883 293.965L532.265 294.539L625.373 418.012L625.564 417.629L650.992 327.223ZM533.221 294.73L650.61 327.605L625.182 417.056L533.221 294.73Z" fill="url(#paint22_linear_194_180)"/>
<path d="M625.755 417.247H625.182L506.072 413.807V414.38L622.505 420.496L625.755 417.247ZM526.72 414.954L624.799 417.821L622.505 420.114L526.72 414.954Z" fill="url(#paint23_linear_194_180)"/>
<path d="M625.182 417.247L622.123 420.305L651.948 435.787L652.139 435.405L625.182 417.247ZM622.888 420.114L625.182 417.821L648.124 433.302L622.888 420.114Z" fill="url(#paint24_linear_194_180)"/>
<path d="M182.966 278.483L182.392 279.057L137.464 328.37L137.655 328.561L170.73 364.876V364.303L182.966 278.483ZM138.037 328.37L182.01 280.012L170.348 363.729L138.037 328.37Z" fill="url(#paint25_linear_194_180)"/>
<path d="M274.353 295.685L273.78 295.494L182.392 279.057L170.348 364.876L170.73 364.494L274.353 295.685ZM182.775 279.439L273.015 295.877L170.921 363.729L182.775 279.439Z" fill="url(#paint26_linear_194_180)"/>
<path d="M650.801 326.649L650.61 327.223L624.991 417.821L681.2 392.591L681.008 392.4L650.801 326.649ZM625.564 417.056L650.801 327.987L680.435 392.4L625.564 417.056Z" fill="url(#paint27_linear_194_180)"/>
<path d="M681.391 392.017L680.626 392.4L624.608 417.438L624.991 417.629L651.948 435.787L652.139 435.596L681.391 392.017ZM625.755 417.629L680.053 393.164L651.948 435.214L625.755 417.629Z" fill="url(#paint28_linear_194_180)"/>
<path d="M680.626 392.4L651.566 435.596L651.948 435.787L713.51 455.283V454.901L652.33 435.405L681.008 392.782L680.626 392.4Z" fill="url(#paint29_linear_194_180)"/>
<path d="M357.902 289.187L272.633 295.685L273.589 296.068L380.271 334.677L380.462 334.295L274.736 296.068L357.902 289.569V289.187Z" fill="url(#paint30_linear_194_180)"/>
<path d="M389.257 263.001L388.683 263.384L357.711 289.187L358.093 289.569L388.492 264.148L380.08 334.486H380.462L389.257 263.001Z" fill="url(#paint31_linear_194_180)"/>
<path d="M493.263 279.821L492.498 279.63L388.683 263.193V263.384L380.08 334.677L380.462 334.486L493.263 279.821ZM389.066 263.766L491.733 280.012L380.654 334.104L389.066 263.766Z" fill="url(#paint32_linear_194_180)"/>
<path d="M492.88 279.439L492.498 279.63L380.271 334.295L380.462 334.677L492.116 280.395L471.467 375.962L472.041 376.153L492.88 279.439Z" fill="url(#paint33_linear_194_180)"/>
<path d="M635.697 41.8585L523.279 176.035L523.661 176.226L636.079 42.0497L635.697 41.8585Z" fill="url(#paint34_linear_194_180)"/>
<path d="M703.568 122.517L523.279 175.844L523.47 176.417L703.568 122.9V122.517Z" fill="url(#paint35_linear_194_180)"/>
<path d="M635.697 41.8585L523.279 176.035L523.661 176.226L636.079 42.0497L635.697 41.8585Z" fill="url(#paint36_linear_194_180)"/>
<path d="M170.539 363.729L170.348 364.112L117.389 447.829L117.771 448.02L170.539 364.876L199.599 424.319L199.982 424.128L170.539 363.729Z" fill="url(#paint37_linear_194_180)"/>
<path d="M698.598 290.525L650.227 327.605L678.523 332.574V332.192L651.374 327.223L698.98 290.907L698.598 290.525Z" fill="url(#paint38_linear_194_180)"/>
<path d="M678.523 332.192L650.419 327.032L650.61 327.605L680.626 392.591L681.008 392.4L651.183 327.796L678.523 332.574V332.192Z" fill="url(#paint39_linear_194_180)"/>
<path d="M305.135 153.863L237.454 191.708H238.602L338.019 182.151V181.578L239.749 190.944L305.326 154.437L305.135 153.863Z" fill="url(#paint40_linear_194_180)"/>
<path d="M360.196 185.21L359.623 185.401L387.919 261.472L338.21 181.769L337.828 181.96L390.022 265.677L360.196 185.21Z" fill="url(#paint41_linear_194_180)"/>
<path d="M57.3561 136.47L57.1649 136.853L103.05 157.686L13.7655 170.874L13.9567 171.448L104.771 157.877L57.3561 136.47Z" fill="url(#paint42_linear_194_180)"/>
<path d="M104.197 157.495H103.815L13.3831 171.066L13.5743 171.448L67.489 250.96L67.6802 250.578L104.197 157.495ZM14.339 171.448L103.623 158.068L67.489 249.813L14.339 171.448Z" fill="url(#paint43_linear_194_180)"/>
<path d="M169.201 141.249L119.301 136.279V136.47L103.241 158.068L103.815 157.877L169.201 141.249ZM119.301 136.853L166.333 141.44L104.388 157.304L119.301 136.853Z" fill="url(#paint44_linear_194_180)"/>
<path d="M167.862 141.057L103.241 157.686L103.815 157.877L212.982 207.19L212.409 206.426L167.862 141.057ZM104.579 157.877L167.671 141.822L211.453 206.234L104.579 157.877Z" fill="url(#paint45_linear_194_180)"/>
<path d="M436.098 203.367L388.875 263.001L360.196 185.21L359.623 185.401L388.875 264.148L389.066 263.766L436.48 203.75L436.098 203.367Z" fill="url(#paint46_linear_194_180)"/>
<path d="M436.289 203.176L436.098 203.367L388.492 263.766H388.875L493.072 280.204L492.689 279.821L436.289 203.176ZM389.257 263.384L436.098 203.941L491.924 279.63L389.257 263.384Z" fill="url(#paint47_linear_194_180)"/>
<path d="M550.236 218.849L492.498 279.439L436.48 203.367L436.098 203.559L492.498 280.204L492.689 280.012L550.619 219.232L550.236 218.849Z" fill="url(#paint48_linear_194_180)"/>
<path d="M137.081 327.223L147.596 355.702H147.788L171.495 364.876L170.73 364.112L137.081 327.223ZM147.979 355.32L138.419 329.325L169.774 363.729L147.979 355.32Z" fill="url(#paint49_linear_194_180)"/>
<path d="M147.788 355.32V355.511L116.815 449.74L170.921 364.303L170.73 364.112L147.788 355.32ZM118.536 446.109L147.979 355.893L170.157 364.494L118.536 446.109Z" fill="url(#paint50_linear_194_180)"/>
<path d="M13.9567 171.066L13.5743 171.257L66.5331 249.24L0.191187 202.603L0 202.985L68.445 251.151L67.6802 250.195L13.9567 171.066Z" fill="url(#paint51_linear_194_180)"/>
<path d="M88.1372 137.235L87.7549 137.617L103.05 157.113L57.3561 136.47L57.1649 136.853L104.771 158.451L88.1372 137.235Z" fill="url(#paint52_linear_194_180)"/>
<path d="M119.11 136.47L103.815 157.304L88.1372 137.235L87.7549 137.617L103.815 158.068L104.006 157.877L119.492 136.661L119.11 136.47Z" fill="url(#paint53_linear_194_180)"/>
<path d="M558.458 275.234H557.693L491.351 279.821L532.456 294.73H532.647L558.458 275.234ZM493.645 280.012L556.737 275.807L532.265 294.156L493.645 280.012Z" fill="url(#paint54_linear_194_180)"/>
<path d="M550.619 218.467L491.924 280.204H492.498L557.884 275.807V275.616L550.619 218.467ZM493.072 279.63L550.236 219.614L557.31 275.234L493.072 279.63Z" fill="url(#paint55_linear_194_180)"/>
<path d="M557.693 275.234L532.074 294.539L532.456 294.73L652.713 328.37L650.992 327.414L557.693 275.234ZM533.03 294.348L557.693 275.807L648.889 326.649L533.03 294.348Z" fill="url(#paint56_linear_194_180)"/>
<path d="M550.045 218.467V219.04L557.31 275.807L638.565 268.162L637.8 267.78L550.045 218.467ZM557.884 275.234L550.619 219.423L637.035 267.78L557.884 275.234Z" fill="url(#paint57_linear_194_180)"/>
<path d="M638.182 267.78H637.991L556.928 275.234L557.693 275.616L651.183 327.796L650.992 327.223L638.182 267.78ZM558.458 275.616L637.8 268.162L650.419 326.84L558.458 275.616Z" fill="url(#paint58_linear_194_180)"/>
<path d="M263.265 34.5954L178.76 119.459H179.142L305.326 154.437V153.863L179.716 119.077L263.456 34.9776L263.265 34.5954Z" fill="url(#paint59_linear_194_180)"/>
<path d="M306.473 154.246L305.517 153.863L178.378 118.695L179.142 119.459L234.013 167.434H234.204L306.473 154.246ZM180.098 119.841L304.179 154.246L234.013 166.861L180.098 119.841Z" fill="url(#paint60_linear_194_180)"/>
<path d="M151.994 0H151.42L178.951 119.077L119.11 136.279L119.301 136.853L179.525 119.459L179.333 119.268L151.994 0Z" fill="url(#paint61_linear_194_180)"/>
<path d="M179.716 118.886L179.142 119.077L117.962 136.661L167.862 141.631V141.44L179.716 118.886ZM120.448 136.47L178.569 119.65L167.48 141.249L120.448 136.47Z" fill="url(#paint62_linear_194_180)"/>
<path d="M263.265 34.5954L179.333 118.695L151.994 0H151.42L179.142 119.65L179.333 119.459L263.456 34.9776L263.265 34.5954Z" fill="url(#paint63_linear_194_180)"/>
<path d="M179.142 118.886L167.48 141.44L235.351 167.816L179.142 118.886ZM168.053 141.249L179.333 119.65L232.866 166.287L168.053 141.249Z" fill="url(#paint64_linear_194_180)"/>
<path d="M211.835 206.234V206.808L216.997 254.783H217.189L287.928 256.503L287.163 256.121L211.835 206.234ZM217.571 254.209L212.409 207.19L286.398 255.738L217.571 254.209Z" fill="url(#paint65_linear_194_180)"/>
<path d="M238.602 191.135L211.644 206.808L288.31 257.076L238.602 191.135ZM212.6 206.617L238.41 191.708L286.207 254.974L212.6 206.617Z" fill="url(#paint66_linear_194_180)"/>
<path d="M287.545 255.738H287.163L216.424 254.018L216.997 254.4L273.589 296.068L287.545 255.738ZM218.144 254.591L286.972 256.312L273.589 295.494L218.144 254.591Z" fill="url(#paint67_linear_194_180)"/>
<path d="M338.401 181.578H337.828L238.028 191.135L238.219 191.517L287.163 256.503L287.354 256.312L338.401 181.578ZM238.984 191.517L337.445 181.96L287.163 255.356L238.984 191.517Z" fill="url(#paint68_linear_194_180)"/>
<path d="M287.163 255.738V255.929L273.398 296.259H273.78L358.858 289.569L358.093 289.187L287.163 255.738ZM273.971 295.685L287.354 256.312L356.946 289.187L273.971 295.685Z" fill="url(#paint69_linear_194_180)"/>
<path d="M338.019 181.387L337.828 181.769L286.972 256.312H287.354L389.448 263.957L389.257 263.575L338.019 181.387ZM287.737 255.738L338.019 182.151L388.492 263.193L287.737 255.738Z" fill="url(#paint70_linear_194_180)"/>
<path d="M389.448 263.384H388.875L286.016 255.738L287.163 256.312L357.902 289.76H358.093L389.448 263.384ZM288.501 256.312L388.11 263.766L357.711 289.187L288.501 256.312Z" fill="url(#paint71_linear_194_180)"/>
<path d="M138.037 327.987L10.3241 341.749L12.6183 341.94L148.17 355.893L138.037 327.987ZM14.9126 341.749L137.655 328.561L147.596 355.32L14.9126 341.749Z" fill="url(#paint72_linear_194_180)"/>
<path d="M148.17 355.32H147.979L12.6183 341.558V341.94L147.596 355.702L117.389 447.829L117.962 448.02L148.17 355.32Z" fill="url(#paint73_linear_194_180)"/>
<path d="M309.15 390.297L170.157 363.921L170.348 364.494L199.599 424.319L199.982 424.128L171.112 364.685L308.958 390.871L309.15 390.297Z" fill="url(#paint74_linear_194_180)"/>
<path d="M273.78 295.494L273.589 295.685L169.965 364.494L170.539 364.685L309.532 391.062L309.341 390.679L273.78 295.494ZM171.304 364.112L273.589 296.259L308.767 390.297L171.304 364.112Z" fill="url(#paint75_linear_194_180)"/>
<path d="M273.206 295.494L273.398 296.068L308.958 390.679L309.341 390.488L274.162 296.259L380.271 334.677L380.462 334.295L273.206 295.494Z" fill="url(#paint76_linear_194_180)"/>
<path d="M0.191187 202.603L0 202.985L66.7243 250.195L30.7811 256.312V256.694L68.0626 250.387L67.489 250.004L0.191187 202.603Z" fill="url(#paint77_linear_194_180)"/>
<path d="M30.9723 256.503H30.5899L12.4272 341.749H12.8095L30.9723 256.503Z" fill="url(#paint78_linear_194_180)"/>
<path d="M137.846 327.987L12.6183 341.558V341.94L137.846 328.561V327.987Z" fill="url(#paint79_linear_194_180)"/>
<path d="M67.489 250.004L30.2076 256.312L30.7811 256.694L139.375 329.707L138.037 328.178L67.489 250.004ZM31.3547 256.694L67.2979 250.578L136.316 327.032L31.3547 256.694Z" fill="url(#paint80_linear_194_180)"/>
<path d="M30.9723 256.503H30.5899L12.4272 341.749H12.8095L30.9723 256.503Z" fill="url(#paint81_linear_194_180)"/>
<path d="M191.187 232.802V233.184L182.201 279.821L182.775 279.439L217.953 254.4L217.762 254.209L191.187 232.802ZM182.966 278.674L191.569 233.758L216.997 254.4L182.966 278.674Z" fill="url(#paint82_linear_194_180)"/>
<path d="M212.409 206.043L212.026 206.426L191.187 233.184L191.378 233.376L217.762 254.783L212.409 206.043ZM191.761 233.184L212.026 207.19L217.189 253.636L191.761 233.184Z" fill="url(#paint83_linear_194_180)"/>
<path d="M191.761 232.993H191.378L66.1507 250.195L67.2979 250.578L182.584 279.63L191.761 232.993ZM68.6362 250.387L190.996 233.567L182.201 279.057L68.6362 250.387Z" fill="url(#paint84_linear_194_180)"/>
<path d="M103.815 157.304L103.623 157.686L67.1067 250.578H67.489L191.952 233.567L191.569 233.184L103.815 157.304ZM67.8714 250.004L104.006 158.26L190.805 233.184L67.8714 250.004Z" fill="url(#paint85_linear_194_180)"/>
<path d="M102.476 156.922L191.378 233.758L212.6 206.808L212.218 206.426L102.476 156.922ZM191.378 232.993L105.344 158.833L211.835 206.999L191.378 232.993Z" fill="url(#paint86_linear_194_180)"/>
<defs>
<linearGradient id="paint0_linear_194_180" x1="174.832" y1="534.163" x2="617.786" y2="534.163" gradientUnits="userSpaceOnUse">
<stop stop-color="#D752B3"/>
<stop offset="1" stop-color="#73BCFF"/>
</linearGradient>
<linearGradient id="paint1_linear_194_180" x1="174.832" y1="534.163" x2="617.786" y2="534.163" gradientUnits="userSpaceOnUse">
<stop stop-color="#D752B3"/>
<stop offset="1" stop-color="#73BCFF"/>
</linearGradient>
<linearGradient id="paint2_linear_194_180" x1="174.832" y1="534.163" x2="617.786" y2="534.163" gradientUnits="userSpaceOnUse">
<stop stop-color="#D752B3"/>
<stop offset="1" stop-color="#73BCFF"/>
</linearGradient>
<linearGradient id="paint3_linear_194_180" x1="174.832" y1="534.163" x2="617.786" y2="534.163" gradientUnits="userSpaceOnUse">
<stop stop-color="#D752B3"/>
<stop offset="1" stop-color="#73BCFF"/>
</linearGradient>
<linearGradient id="paint4_linear_194_180" x1="174.832" y1="534.163" x2="617.786" y2="534.163" gradientUnits="userSpaceOnUse">
<stop stop-color="#D752B3"/>
<stop offset="1" stop-color="#73BCFF"/>
</linearGradient>
<linearGradient id="paint5_linear_194_180" x1="174.832" y1="534.163" x2="617.786" y2="534.163" gradientUnits="userSpaceOnUse">
<stop stop-color="#D752B3"/>
<stop offset="1" stop-color="#73BCFF"/>
</linearGradient>
<linearGradient id="paint6_linear_194_180" x1="174.832" y1="534.163" x2="617.786" y2="534.163" gradientUnits="userSpaceOnUse">
<stop stop-color="#D752B3"/>
<stop offset="1" stop-color="#73BCFF"/>
</linearGradient>
<linearGradient id="paint7_linear_194_180" x1="174.832" y1="534.163" x2="617.786" y2="534.163" gradientUnits="userSpaceOnUse">
<stop stop-color="#D752B3"/>
<stop offset="1" stop-color="#73BCFF"/>
</linearGradient>
<linearGradient id="paint8_linear_194_180" x1="174.832" y1="534.163" x2="617.786" y2="534.163" gradientUnits="userSpaceOnUse">
<stop stop-color="#D752B3"/>
<stop offset="1" stop-color="#73BCFF"/>
</linearGradient>
<linearGradient id="paint9_linear_194_180" x1="174.832" y1="534.163" x2="617.786" y2="534.163" gradientUnits="userSpaceOnUse">
<stop stop-color="#D752B3"/>
<stop offset="1" stop-color="#73BCFF"/>
</linearGradient>
<linearGradient id="paint10_linear_194_180" x1="174.832" y1="534.163" x2="617.786" y2="534.163" gradientUnits="userSpaceOnUse">
<stop stop-color="#D752B3"/>
<stop offset="1" stop-color="#73BCFF"/>
</linearGradient>
<linearGradient id="paint11_linear_194_180" x1="174.832" y1="534.163" x2="617.786" y2="534.163" gradientUnits="userSpaceOnUse">
<stop stop-color="#D752B3"/>
<stop offset="1" stop-color="#73BCFF"/>
</linearGradient>
<linearGradient id="paint12_linear_194_180" x1="174.832" y1="534.163" x2="617.786" y2="534.163" gradientUnits="userSpaceOnUse">
<stop stop-color="#D752B3"/>
<stop offset="1" stop-color="#73BCFF"/>
</linearGradient>
<linearGradient id="paint13_linear_194_180" x1="174.832" y1="534.163" x2="617.786" y2="534.163" gradientUnits="userSpaceOnUse">
<stop stop-color="#D752B3"/>
<stop offset="1" stop-color="#73BCFF"/>
</linearGradient>
<linearGradient id="paint14_linear_194_180" x1="174.832" y1="534.163" x2="617.786" y2="534.163" gradientUnits="userSpaceOnUse">
<stop stop-color="#D752B3"/>
<stop offset="1" stop-color="#73BCFF"/>
</linearGradient>
<linearGradient id="paint15_linear_194_180" x1="174.832" y1="534.163" x2="617.786" y2="534.163" gradientUnits="userSpaceOnUse">
<stop stop-color="#D752B3"/>
<stop offset="1" stop-color="#73BCFF"/>
</linearGradient>
<linearGradient id="paint16_linear_194_180" x1="174.832" y1="534.163" x2="617.786" y2="534.163" gradientUnits="userSpaceOnUse">
<stop stop-color="#D752B3"/>
<stop offset="1" stop-color="#73BCFF"/>
</linearGradient>
<linearGradient id="paint17_linear_194_180" x1="174.832" y1="534.163" x2="617.786" y2="534.163" gradientUnits="userSpaceOnUse">
<stop stop-color="#D752B3"/>
<stop offset="1" stop-color="#73BCFF"/>
</linearGradient>
<linearGradient id="paint18_linear_194_180" x1="174.832" y1="534.163" x2="617.786" y2="534.163" gradientUnits="userSpaceOnUse">
<stop stop-color="#D752B3"/>
<stop offset="1" stop-color="#73BCFF"/>
</linearGradient>
<linearGradient id="paint19_linear_194_180" x1="174.832" y1="534.163" x2="617.786" y2="534.163" gradientUnits="userSpaceOnUse">
<stop stop-color="#D752B3"/>
<stop offset="1" stop-color="#73BCFF"/>
</linearGradient>
<linearGradient id="paint20_linear_194_180" x1="174.832" y1="534.163" x2="617.786" y2="534.163" gradientUnits="userSpaceOnUse">
<stop stop-color="#D752B3"/>
<stop offset="1" stop-color="#73BCFF"/>
</linearGradient>
<linearGradient id="paint21_linear_194_180" x1="174.832" y1="534.163" x2="617.786" y2="534.163" gradientUnits="userSpaceOnUse">
<stop stop-color="#D752B3"/>
<stop offset="1" stop-color="#73BCFF"/>
</linearGradient>
<linearGradient id="paint22_linear_194_180" x1="174.832" y1="534.163" x2="617.786" y2="534.163" gradientUnits="userSpaceOnUse">
<stop stop-color="#D752B3"/>
<stop offset="1" stop-color="#73BCFF"/>
</linearGradient>
<linearGradient id="paint23_linear_194_180" x1="174.832" y1="534.163" x2="617.786" y2="534.163" gradientUnits="userSpaceOnUse">
<stop stop-color="#D752B3"/>
<stop offset="1" stop-color="#73BCFF"/>
</linearGradient>
<linearGradient id="paint24_linear_194_180" x1="174.832" y1="534.163" x2="617.786" y2="534.163" gradientUnits="userSpaceOnUse">
<stop stop-color="#D752B3"/>
<stop offset="1" stop-color="#73BCFF"/>
</linearGradient>
<linearGradient id="paint25_linear_194_180" x1="174.832" y1="534.163" x2="617.786" y2="534.163" gradientUnits="userSpaceOnUse">
<stop stop-color="#D752B3"/>
<stop offset="1" stop-color="#73BCFF"/>
</linearGradient>
<linearGradient id="paint26_linear_194_180" x1="174.832" y1="534.163" x2="617.786" y2="534.163" gradientUnits="userSpaceOnUse">
<stop stop-color="#D752B3"/>
<stop offset="1" stop-color="#73BCFF"/>
</linearGradient>
<linearGradient id="paint27_linear_194_180" x1="174.832" y1="534.163" x2="617.786" y2="534.163" gradientUnits="userSpaceOnUse">
<stop stop-color="#D752B3"/>
<stop offset="1" stop-color="#73BCFF"/>
</linearGradient>
<linearGradient id="paint28_linear_194_180" x1="174.832" y1="534.163" x2="617.786" y2="534.163" gradientUnits="userSpaceOnUse">
<stop stop-color="#D752B3"/>
<stop offset="1" stop-color="#73BCFF"/>
</linearGradient>
<linearGradient id="paint29_linear_194_180" x1="174.832" y1="534.163" x2="617.786" y2="534.163" gradientUnits="userSpaceOnUse">
<stop stop-color="#D752B3"/>
<stop offset="1" stop-color="#73BCFF"/>
</linearGradient>
<linearGradient id="paint30_linear_194_180" x1="174.832" y1="534.163" x2="617.786" y2="534.163" gradientUnits="userSpaceOnUse">
<stop stop-color="#D752B3"/>
<stop offset="1" stop-color="#73BCFF"/>
</linearGradient>
<linearGradient id="paint31_linear_194_180" x1="174.832" y1="534.163" x2="617.786" y2="534.163" gradientUnits="userSpaceOnUse">
<stop stop-color="#D752B3"/>
<stop offset="1" stop-color="#73BCFF"/>
</linearGradient>
<linearGradient id="paint32_linear_194_180" x1="174.832" y1="534.163" x2="617.786" y2="534.163" gradientUnits="userSpaceOnUse">
<stop stop-color="#D752B3"/>
<stop offset="1" stop-color="#73BCFF"/>
</linearGradient>
<linearGradient id="paint33_linear_194_180" x1="174.832" y1="534.163" x2="617.786" y2="534.163" gradientUnits="userSpaceOnUse">
<stop stop-color="#D752B3"/>
<stop offset="1" stop-color="#73BCFF"/>
</linearGradient>
<linearGradient id="paint34_linear_194_180" x1="174.832" y1="534.163" x2="617.786" y2="534.163" gradientUnits="userSpaceOnUse">
<stop stop-color="#D752B3"/>
<stop offset="1" stop-color="#73BCFF"/>
</linearGradient>
<linearGradient id="paint35_linear_194_180" x1="174.832" y1="534.163" x2="617.786" y2="534.163" gradientUnits="userSpaceOnUse">
<stop stop-color="#D752B3"/>
<stop offset="1" stop-color="#73BCFF"/>
</linearGradient>
<linearGradient id="paint36_linear_194_180" x1="174.832" y1="534.163" x2="617.786" y2="534.163" gradientUnits="userSpaceOnUse">
<stop stop-color="#D752B3"/>
<stop offset="1" stop-color="#73BCFF"/>
</linearGradient>
<linearGradient id="paint37_linear_194_180" x1="174.832" y1="534.163" x2="617.786" y2="534.163" gradientUnits="userSpaceOnUse">
<stop stop-color="#D752B3"/>
<stop offset="1" stop-color="#73BCFF"/>
</linearGradient>
<linearGradient id="paint38_linear_194_180" x1="174.832" y1="534.163" x2="617.786" y2="534.163" gradientUnits="userSpaceOnUse">
<stop stop-color="#D752B3"/>
<stop offset="1" stop-color="#73BCFF"/>
</linearGradient>
<linearGradient id="paint39_linear_194_180" x1="174.832" y1="534.163" x2="617.786" y2="534.163" gradientUnits="userSpaceOnUse">
<stop stop-color="#D752B3"/>
<stop offset="1" stop-color="#73BCFF"/>
</linearGradient>
<linearGradient id="paint40_linear_194_180" x1="174.832" y1="534.163" x2="617.786" y2="534.163" gradientUnits="userSpaceOnUse">
<stop stop-color="#D752B3"/>
<stop offset="1" stop-color="#73BCFF"/>
</linearGradient>
<linearGradient id="paint41_linear_194_180" x1="174.832" y1="534.163" x2="617.786" y2="534.163" gradientUnits="userSpaceOnUse">
<stop stop-color="#D752B3"/>
<stop offset="1" stop-color="#73BCFF"/>
</linearGradient>
<linearGradient id="paint42_linear_194_180" x1="174.832" y1="534.163" x2="617.786" y2="534.163" gradientUnits="userSpaceOnUse">
<stop stop-color="#D752B3"/>
<stop offset="1" stop-color="#73BCFF"/>
</linearGradient>
<linearGradient id="paint43_linear_194_180" x1="174.832" y1="534.163" x2="617.786" y2="534.163" gradientUnits="userSpaceOnUse">
<stop stop-color="#D752B3"/>
<stop offset="1" stop-color="#73BCFF"/>
</linearGradient>
<linearGradient id="paint44_linear_194_180" x1="174.832" y1="534.163" x2="617.786" y2="534.163" gradientUnits="userSpaceOnUse">
<stop stop-color="#D752B3"/>
<stop offset="1" stop-color="#73BCFF"/>
</linearGradient>
<linearGradient id="paint45_linear_194_180" x1="174.832" y1="534.163" x2="617.786" y2="534.163" gradientUnits="userSpaceOnUse">
<stop stop-color="#D752B3"/>
<stop offset="1" stop-color="#73BCFF"/>
</linearGradient>
<linearGradient id="paint46_linear_194_180" x1="174.832" y1="534.163" x2="617.786" y2="534.163" gradientUnits="userSpaceOnUse">
<stop stop-color="#D752B3"/>
<stop offset="1" stop-color="#73BCFF"/>
</linearGradient>
<linearGradient id="paint47_linear_194_180" x1="174.832" y1="534.163" x2="617.786" y2="534.163" gradientUnits="userSpaceOnUse">
<stop stop-color="#D752B3"/>
<stop offset="1" stop-color="#73BCFF"/>
</linearGradient>
<linearGradient id="paint48_linear_194_180" x1="174.832" y1="534.163" x2="617.786" y2="534.163" gradientUnits="userSpaceOnUse">
<stop stop-color="#D752B3"/>
<stop offset="1" stop-color="#73BCFF"/>
</linearGradient>
<linearGradient id="paint49_linear_194_180" x1="174.832" y1="534.163" x2="617.786" y2="534.163" gradientUnits="userSpaceOnUse">
<stop stop-color="#D752B3"/>
<stop offset="1" stop-color="#73BCFF"/>
</linearGradient>
<linearGradient id="paint50_linear_194_180" x1="174.832" y1="534.163" x2="617.786" y2="534.163" gradientUnits="userSpaceOnUse">
<stop stop-color="#D752B3"/>
<stop offset="1" stop-color="#73BCFF"/>
</linearGradient>
<linearGradient id="paint51_linear_194_180" x1="174.832" y1="534.163" x2="617.786" y2="534.163" gradientUnits="userSpaceOnUse">
<stop stop-color="#D752B3"/>
<stop offset="1" stop-color="#73BCFF"/>
</linearGradient>
<linearGradient id="paint52_linear_194_180" x1="174.832" y1="534.163" x2="617.786" y2="534.163" gradientUnits="userSpaceOnUse">
<stop stop-color="#D752B3"/>
<stop offset="1" stop-color="#73BCFF"/>
</linearGradient>
<linearGradient id="paint53_linear_194_180" x1="174.832" y1="534.163" x2="617.786" y2="534.163" gradientUnits="userSpaceOnUse">
<stop stop-color="#D752B3"/>
<stop offset="1" stop-color="#73BCFF"/>
</linearGradient>
<linearGradient id="paint54_linear_194_180" x1="174.832" y1="534.163" x2="617.786" y2="534.163" gradientUnits="userSpaceOnUse">
<stop stop-color="#D752B3"/>
<stop offset="1" stop-color="#73BCFF"/>
</linearGradient>
<linearGradient id="paint55_linear_194_180" x1="174.832" y1="534.163" x2="617.786" y2="534.163" gradientUnits="userSpaceOnUse">
<stop stop-color="#D752B3"/>
<stop offset="1" stop-color="#73BCFF"/>
</linearGradient>
<linearGradient id="paint56_linear_194_180" x1="174.832" y1="534.163" x2="617.786" y2="534.163" gradientUnits="userSpaceOnUse">
<stop stop-color="#D752B3"/>
<stop offset="1" stop-color="#73BCFF"/>
</linearGradient>
<linearGradient id="paint57_linear_194_180" x1="174.832" y1="534.163" x2="617.786" y2="534.163" gradientUnits="userSpaceOnUse">
<stop stop-color="#D752B3"/>
<stop offset="1" stop-color="#73BCFF"/>
</linearGradient>
<linearGradient id="paint58_linear_194_180" x1="174.832" y1="534.163" x2="617.786" y2="534.163" gradientUnits="userSpaceOnUse">
<stop stop-color="#D752B3"/>
<stop offset="1" stop-color="#73BCFF"/>
</linearGradient>
<linearGradient id="paint59_linear_194_180" x1="174.832" y1="534.163" x2="617.786" y2="534.163" gradientUnits="userSpaceOnUse">
<stop stop-color="#D752B3"/>
<stop offset="1" stop-color="#73BCFF"/>
</linearGradient>
<linearGradient id="paint60_linear_194_180" x1="174.832" y1="534.163" x2="617.786" y2="534.163" gradientUnits="userSpaceOnUse">
<stop stop-color="#D752B3"/>
<stop offset="1" stop-color="#73BCFF"/>
</linearGradient>
<linearGradient id="paint61_linear_194_180" x1="174.832" y1="534.163" x2="617.786" y2="534.163" gradientUnits="userSpaceOnUse">
<stop stop-color="#D752B3"/>
<stop offset="1" stop-color="#73BCFF"/>
</linearGradient>
<linearGradient id="paint62_linear_194_180" x1="174.832" y1="534.163" x2="617.786" y2="534.163" gradientUnits="userSpaceOnUse">
<stop stop-color="#D752B3"/>
<stop offset="1" stop-color="#73BCFF"/>
</linearGradient>
<linearGradient id="paint63_linear_194_180" x1="174.832" y1="534.163" x2="617.786" y2="534.163" gradientUnits="userSpaceOnUse">
<stop stop-color="#D752B3"/>
<stop offset="1" stop-color="#73BCFF"/>
</linearGradient>
<linearGradient id="paint64_linear_194_180" x1="174.832" y1="534.163" x2="617.786" y2="534.163" gradientUnits="userSpaceOnUse">
<stop stop-color="#D752B3"/>
<stop offset="1" stop-color="#73BCFF"/>
</linearGradient>
<linearGradient id="paint65_linear_194_180" x1="174.832" y1="534.163" x2="617.786" y2="534.163" gradientUnits="userSpaceOnUse">
<stop stop-color="#D752B3"/>
<stop offset="1" stop-color="#73BCFF"/>
</linearGradient>
<linearGradient id="paint66_linear_194_180" x1="174.832" y1="534.163" x2="617.786" y2="534.163" gradientUnits="userSpaceOnUse">
<stop stop-color="#D752B3"/>
<stop offset="1" stop-color="#73BCFF"/>
</linearGradient>
<linearGradient id="paint67_linear_194_180" x1="174.832" y1="534.163" x2="617.786" y2="534.163" gradientUnits="userSpaceOnUse">
<stop stop-color="#D752B3"/>
<stop offset="1" stop-color="#73BCFF"/>
</linearGradient>
<linearGradient id="paint68_linear_194_180" x1="174.832" y1="534.163" x2="617.786" y2="534.163" gradientUnits="userSpaceOnUse">
<stop stop-color="#D752B3"/>
<stop offset="1" stop-color="#73BCFF"/>
</linearGradient>
<linearGradient id="paint69_linear_194_180" x1="174.832" y1="534.163" x2="617.786" y2="534.163" gradientUnits="userSpaceOnUse">
<stop stop-color="#D752B3"/>
<stop offset="1" stop-color="#73BCFF"/>
</linearGradient>
<linearGradient id="paint70_linear_194_180" x1="174.832" y1="534.163" x2="617.786" y2="534.163" gradientUnits="userSpaceOnUse">
<stop stop-color="#D752B3"/>
<stop offset="1" stop-color="#73BCFF"/>
</linearGradient>
<linearGradient id="paint71_linear_194_180" x1="174.832" y1="534.163" x2="617.786" y2="534.163" gradientUnits="userSpaceOnUse">
<stop stop-color="#D752B3"/>
<stop offset="1" stop-color="#73BCFF"/>
</linearGradient>
<linearGradient id="paint72_linear_194_180" x1="174.832" y1="534.163" x2="617.786" y2="534.163" gradientUnits="userSpaceOnUse">
<stop stop-color="#D752B3"/>
<stop offset="1" stop-color="#73BCFF"/>
</linearGradient>
<linearGradient id="paint73_linear_194_180" x1="174.832" y1="534.163" x2="617.786" y2="534.163" gradientUnits="userSpaceOnUse">
<stop stop-color="#D752B3"/>
<stop offset="1" stop-color="#73BCFF"/>
</linearGradient>
<linearGradient id="paint74_linear_194_180" x1="174.832" y1="534.163" x2="617.786" y2="534.163" gradientUnits="userSpaceOnUse">
<stop stop-color="#D752B3"/>
<stop offset="1" stop-color="#73BCFF"/>
</linearGradient>
<linearGradient id="paint75_linear_194_180" x1="174.832" y1="534.163" x2="617.786" y2="534.163" gradientUnits="userSpaceOnUse">
<stop stop-color="#D752B3"/>
<stop offset="1" stop-color="#73BCFF"/>
</linearGradient>
<linearGradient id="paint76_linear_194_180" x1="174.832" y1="534.163" x2="617.786" y2="534.163" gradientUnits="userSpaceOnUse">
<stop stop-color="#D752B3"/>
<stop offset="1" stop-color="#73BCFF"/>
</linearGradient>
<linearGradient id="paint77_linear_194_180" x1="174.832" y1="534.163" x2="617.786" y2="534.163" gradientUnits="userSpaceOnUse">
<stop stop-color="#D752B3"/>
<stop offset="1" stop-color="#73BCFF"/>
</linearGradient>
<linearGradient id="paint78_linear_194_180" x1="174.832" y1="534.163" x2="617.786" y2="534.163" gradientUnits="userSpaceOnUse">
<stop stop-color="#D752B3"/>
<stop offset="1" stop-color="#73BCFF"/>
</linearGradient>
<linearGradient id="paint79_linear_194_180" x1="174.832" y1="534.163" x2="617.786" y2="534.163" gradientUnits="userSpaceOnUse">
<stop stop-color="#D752B3"/>
<stop offset="1" stop-color="#73BCFF"/>
</linearGradient>
<linearGradient id="paint80_linear_194_180" x1="174.832" y1="534.163" x2="617.786" y2="534.163" gradientUnits="userSpaceOnUse">
<stop stop-color="#D752B3"/>
<stop offset="1" stop-color="#73BCFF"/>
</linearGradient>
<linearGradient id="paint81_linear_194_180" x1="174.832" y1="534.163" x2="617.786" y2="534.163" gradientUnits="userSpaceOnUse">
<stop stop-color="#D752B3"/>
<stop offset="1" stop-color="#73BCFF"/>
</linearGradient>
<linearGradient id="paint82_linear_194_180" x1="174.832" y1="534.163" x2="617.786" y2="534.163" gradientUnits="userSpaceOnUse">
<stop stop-color="#D752B3"/>
<stop offset="1" stop-color="#73BCFF"/>
</linearGradient>
<linearGradient id="paint83_linear_194_180" x1="174.832" y1="534.163" x2="617.786" y2="534.163" gradientUnits="userSpaceOnUse">
<stop stop-color="#D752B3"/>
<stop offset="1" stop-color="#73BCFF"/>
</linearGradient>
<linearGradient id="paint84_linear_194_180" x1="174.832" y1="534.163" x2="617.786" y2="534.163" gradientUnits="userSpaceOnUse">
<stop stop-color="#D752B3"/>
<stop offset="1" stop-color="#73BCFF"/>
</linearGradient>
<linearGradient id="paint85_linear_194_180" x1="174.832" y1="534.163" x2="617.786" y2="534.163" gradientUnits="userSpaceOnUse">
<stop stop-color="#D752B3"/>
<stop offset="1" stop-color="#73BCFF"/>
</linearGradient>
<linearGradient id="paint86_linear_194_180" x1="174.832" y1="534.163" x2="617.786" y2="534.163" gradientUnits="userSpaceOnUse">
<stop stop-color="#D752B3"/>
<stop offset="1" stop-color="#73BCFF"/>
</linearGradient>
</defs>
</svg>
