<svg width="34" height="36" viewBox="0 0 34 36" fill="none" xmlns="http://www.w3.org/2000/svg">
<path d="M9.88889 9.94737V8.15789C9.88889 4.2047 13.0726 1 17 1C20.9274 1 24.1111 4.2047 24.1111 8.15789V9.94737M11.6667 22.4737H22.3333M17 17.1053V27.8421M6.68889 35H27.3111C29.3024 35 30.2981 35 31.0586 34.6099C31.7277 34.2668 32.2716 33.7193 32.6125 33.0459C33 32.2803 33 31.2781 33 29.2737V15.6737C33 13.6693 33 12.6671 32.6125 11.9015C32.2716 11.2281 31.7277 10.6806 31.0586 10.3375C30.2981 9.94737 29.3024 9.94737 27.3111 9.94737H6.68889C4.69759 9.94737 3.70194 9.94737 2.94137 10.3375C2.27235 10.6806 1.72842 11.2281 1.38753 11.9015C1 12.6671 1 13.6693 1 15.6737V29.2737C1 31.2781 1 32.2803 1.38753 33.0459C1.72842 33.7193 2.27235 34.2668 2.94137 34.6099C3.70194 35 4.69759 35 6.68889 35Z" stroke="#282828" stroke-width="2" stroke-linecap="round"/>
</svg>
