<svg width="34" height="35" viewBox="0 0 34 35" fill="none" xmlns="http://www.w3.org/2000/svg">
<path d="M22.3333 13.307L15.8508 19.7179C15.5036 20.0612 14.9408 20.0612 14.5937 19.7179L11.6667 16.8233M9.14815 1H24.8519C25.4246 1 25.8889 1.45917 25.8889 2.02558C25.8889 4.85765 28.2104 7.15349 31.0741 7.15349H31.8148C32.4694 7.15349 33 7.67825 33 8.32558V9.83512C33 19.5739 27.6611 28.5473 19.0527 33.2768L18.3804 33.6463C17.5219 34.1179 16.4781 34.1179 15.6197 33.6463L14.9473 33.2768C6.3389 28.5473 1 19.5739 1 9.83512V8.32558C1 7.67825 1.53063 7.15349 2.18519 7.15349H2.92593C5.78962 7.15349 8.11111 4.85765 8.11111 2.02558C8.11111 1.45917 8.57541 1 9.14815 1Z" stroke="#282828" stroke-width="2" stroke-linecap="round"/>
</svg>
