<svg width="34" height="34" viewBox="0 0 34 34" fill="none" xmlns="http://www.w3.org/2000/svg">
<path d="M10.6 20.2C10.6 20.2 13 23.4 17 23.4C21 23.4 23.4 20.2 23.4 20.2M21.8 12.2H21.816M10.6 12.2H13.8M33 17C33 25.8366 25.8366 33 17 33C8.16344 33 1 25.8366 1 17C1 8.16344 8.16344 1 17 1C25.8366 1 33 8.16344 33 17ZM22.6 12.2C22.6 12.6418 22.2418 13 21.8 13C21.3582 13 21 12.6418 21 12.2C21 11.7582 21.3582 11.4 21.8 11.4C22.2418 11.4 22.6 11.7582 22.6 12.2Z" stroke="black" stroke-width="2" stroke-linecap="round" stroke-linejoin="round"/>
</svg>
