<svg width="32" height="32" viewBox="0 0 32 32" fill="none" xmlns="http://www.w3.org/2000/svg">
<rect width="32" height="32" rx="5" fill="#F79A38"/>
<path d="M22.2376 18.7928C22.7624 18.2681 22.8373 17.5185 22.3876 16.7689C22.0128 16.1692 21.3381 15.8694 20.5885 16.0193C20.2887 16.0942 19.9888 16.2442 19.689 16.469C17.3652 18.0432 14.2168 17.9683 11.893 16.3941C11.7431 16.3191 11.5932 16.2442 11.4433 16.1692C10.6187 15.7944 9.79412 15.9443 9.34436 16.6939C8.81963 17.4435 8.89458 18.2681 9.56923 18.9428C9.71915 19.0927 9.86907 19.1676 9.94403 19.3176L10.019 19.3925C11.0685 20.2171 12.3428 20.7418 13.9919 20.9667L13.0174 21.9412C12.1929 22.7658 11.2933 23.6653 10.4688 24.4899C10.2439 24.7148 9.94403 25.0896 9.94403 25.6143C9.94403 26.2889 10.3188 26.9636 10.9935 27.2634C11.2184 27.4133 11.4433 27.4133 11.6681 27.4133C12.0429 27.4133 12.4927 27.2634 12.7926 26.8886C13.917 25.7642 14.8165 24.8647 15.716 23.9651C15.791 23.8902 15.791 23.8902 15.791 23.8902C15.791 23.8902 15.866 23.8902 15.866 23.9651C16.4656 24.6398 17.1403 25.2395 17.74 25.9141C18.0398 26.214 18.3397 26.5138 18.6395 26.8137C19.0143 27.1885 19.3142 27.3384 19.7639 27.3384C20.4386 27.4134 21.1882 26.9636 21.488 26.2889C21.7879 25.6892 21.638 24.9396 21.1132 24.4899C20.3636 23.7403 19.614 22.9157 18.7894 22.1661L17.5151 20.8917C18.1898 20.8168 18.9394 20.6669 19.614 20.367C20.7384 19.9922 21.563 19.4675 22.2376 18.7928Z" fill="white"/>
<path d="M15.791 16.6939C19.0143 16.6939 21.638 14.1452 21.638 10.9219C21.638 9.34773 21.0383 7.84852 19.9138 6.72411C18.7894 5.59969 17.3652 5 15.866 5C12.6426 5 10.094 7.62363 10.019 10.772C10.019 12.3462 10.6187 13.7704 11.7431 14.8948C12.7926 16.0942 14.2168 16.6939 15.791 16.6939ZM14.1419 9.19782C14.5916 8.74805 15.1913 8.52316 15.791 8.52316C17.1403 8.52316 18.1148 9.57262 18.1148 10.847C18.1148 12.1963 17.0653 13.1707 15.791 13.1707C14.4417 13.1707 13.4672 12.1213 13.4672 10.847C13.4672 10.2473 13.6921 9.64759 14.1419 9.19782Z" fill="white"/>
<path d="M22.2376 18.7928C22.7624 18.2681 22.8373 17.5185 22.3876 16.7689C22.0128 16.1692 21.3381 15.8694 20.5885 16.0193C20.2887 16.0942 19.9888 16.2442 19.689 16.469C17.3652 18.0432 14.2168 17.9683 11.893 16.3941C11.7431 16.3191 11.5932 16.2442 11.4433 16.1692C10.6187 15.7944 9.79412 15.9443 9.34436 16.6939C8.81963 17.4435 8.89458 18.2681 9.56923 18.9428C9.71915 19.0927 9.86907 19.1676 9.94403 19.3176L10.019 19.3925C11.0685 20.2171 12.3428 20.7418 13.9919 20.9667L13.0174 21.9412C12.1929 22.7658 11.2933 23.6653 10.4688 24.4899C10.2439 24.7148 9.94403 25.0896 9.94403 25.6143C9.94403 26.2889 10.3188 26.9636 10.9935 27.2634C11.2184 27.4133 11.4433 27.4133 11.6681 27.4133C12.0429 27.4133 12.4927 27.2634 12.7926 26.8886C13.917 25.7642 14.8165 24.8647 15.716 23.9651C15.791 23.8902 15.791 23.8902 15.791 23.8902C15.791 23.8902 15.866 23.8902 15.866 23.9651C16.4656 24.6398 17.1403 25.2395 17.74 25.9141C18.0398 26.214 18.3397 26.5138 18.6395 26.8137C19.0143 27.1885 19.3142 27.3384 19.7639 27.3384C20.4386 27.4134 21.1882 26.9636 21.488 26.2889C21.7879 25.6892 21.638 24.9396 21.1132 24.4899C20.3636 23.7403 19.614 22.9157 18.7894 22.1661L17.5151 20.8917C18.1898 20.8168 18.9394 20.6669 19.614 20.367C20.7384 19.9922 21.563 19.4675 22.2376 18.7928Z" fill="white"/>
</svg>
