<svg width="32" height="32" viewBox="0 0 32 32" fill="none" xmlns="http://www.w3.org/2000/svg">
<rect width="32" height="32" rx="5" fill="#E60023"/>
<path d="M16.5524 7.54004C11.8486 7.54004 8 11.4827 8 16.3016C8 19.9157 10.1381 22.9822 13.1314 24.2965C13.1314 23.6394 13.1314 22.9822 13.2383 22.3251C13.4521 21.5585 14.3074 17.5063 14.3074 17.5063C14.3074 17.5063 13.9867 16.9587 13.9867 16.0825C13.9867 14.7683 14.735 13.7826 15.5902 13.7826C16.3386 13.7826 16.7662 14.3302 16.7662 15.0969C16.7662 15.8635 16.2317 17.0682 16.0178 18.1634C15.804 19.0396 16.4455 19.8062 17.4076 19.8062C19.0112 19.8062 20.0802 17.7253 20.0802 15.0969C20.0802 13.1255 18.7974 11.7018 16.5524 11.7018C13.9867 11.7018 12.3831 13.6731 12.3831 15.8635C12.3831 16.6301 12.5969 17.1777 12.9176 17.6158C13.0245 17.8348 13.1314 17.8348 13.0245 18.0539C13.0245 18.1634 12.9176 18.6015 12.8107 18.711C12.7038 18.93 12.5969 19.0396 12.3831 18.93C11.2071 18.3824 10.6726 17.0682 10.6726 15.5349C10.6726 13.016 12.7038 10.059 16.7662 10.059C20.0802 10.059 22.2183 12.4684 22.2183 15.0969C22.2183 18.492 20.4009 21.1204 17.6214 21.1204C16.6593 21.1204 15.804 20.5728 15.4833 20.0252C15.4833 20.0252 14.9488 21.9966 14.8419 22.4347C14.6281 23.0918 14.3074 23.7489 13.9867 24.2965C14.735 24.5155 15.5902 24.625 16.4455 24.625C21.1493 24.625 24.9978 20.6823 24.9978 15.8635C25.1047 11.4827 21.2562 7.54004 16.5524 7.54004Z" fill="white"/>
</svg>
