<svg width="32" height="32" viewBox="0 0 32 32" fill="none" xmlns="http://www.w3.org/2000/svg">
<rect width="32" height="32" rx="5" fill="#55ACE3"/>
<path d="M26 11.2637C25.3571 11.5343 24.6225 11.7147 23.8878 11.8049C24.6225 11.3539 25.2653 10.6324 25.5408 9.82063C24.8061 10.2716 24.0714 10.5422 23.1531 10.7226C22.5102 10.001 21.5 9.55005 20.4898 9.55005C18.4694 9.55005 16.8163 11.1735 16.8163 13.1577C16.8163 13.4283 16.8163 13.6989 16.9082 13.9695C13.8776 13.7891 11.1224 12.346 9.28571 10.1814C9.0102 10.7225 8.82653 11.3539 8.82653 11.9852C8.82653 13.2479 9.46939 14.3302 10.4796 14.9616C9.83673 14.9616 9.28571 14.7812 8.82653 14.5106C8.82653 16.2243 10.1122 17.7575 11.7653 18.0281C11.4898 18.1183 11.1225 18.1183 10.7551 18.1183C10.4796 18.1183 10.2959 18.1183 10.0204 18.0281C10.4796 19.4712 11.8571 20.5535 13.5102 20.5535C12.2245 21.5456 10.6633 22.0868 8.91837 22.0868C8.64286 22.0868 8.36735 22.0868 8 21.9966C9.65306 22.9887 11.5816 23.62 13.6939 23.62C20.4898 23.62 24.1633 18.1183 24.1633 13.3381V12.8872C24.898 12.6166 25.5408 11.9852 26 11.2637Z" fill="white"/>
</svg>
