<svg width="32" height="32" viewBox="0 0 32 32" fill="none" xmlns="http://www.w3.org/2000/svg">
<rect width="32" height="32" rx="5" fill="#0077FF"/>
<path d="M16.9825 23C9.46596 23 5.17864 17.7447 5 9H8.76515C8.88882 15.4184 11.6646 18.1371 13.8632 18.6977V9H17.4085V14.5355C19.5796 14.2973 21.8607 11.7748 22.6302 9H26.1755C25.8855 10.4391 25.3075 11.8017 24.4776 13.0025C23.6477 14.2033 22.5837 15.2166 21.3523 15.979C22.7269 16.6756 23.941 17.6615 24.9145 18.8717C25.888 20.082 26.5988 21.489 27 23H23.0974C22.7373 21.6876 22.0054 20.5128 20.9934 19.6228C19.9814 18.7328 18.7343 18.1673 17.4085 17.997V23H16.9825Z" fill="white"/>
</svg>
