<svg width="10" height="16" viewBox="0 0 10 16" fill="none" xmlns="http://www.w3.org/2000/svg">
<path d="M9.58015 15.6054C9.86005 15.3423 10 15.0075 10 14.6009C10 14.1943 9.86005 13.8595 9.58015 13.5964L3.62597 8L9.58015 2.40359C9.86005 2.14051 10 1.80568 10 1.3991C10 0.992526 9.86005 0.657697 9.58015 0.394618C9.30026 0.131539 8.94402 0 8.51145 0C8.07889 0 7.72265 0.131539 7.44275 0.394618L0.419871 6.99552C0.2672 7.13901 0.158803 7.29447 0.0946808 7.46188C0.0305586 7.6293 -0.000993729 7.80867 2.38419e-05 8C2.38419e-05 8.19133 0.0320864 8.3707 0.0962076 8.53812C0.16033 8.70553 0.268218 8.86099 0.419871 9.00448L7.44275 15.6054C7.72265 15.8685 8.07889 16 8.51145 16C8.94402 16 9.30026 15.8685 9.58015 15.6054Z" fill="white"/>
<path d="M9.58015 15.6054C9.86005 15.3423 10 15.0075 10 14.6009C10 14.1943 9.86005 13.8595 9.58015 13.5964L3.62597 8L9.58015 2.40359C9.86005 2.14051 10 1.80568 10 1.3991C10 0.992526 9.86005 0.657697 9.58015 0.394618C9.30026 0.131539 8.94402 0 8.51145 0C8.07889 0 7.72265 0.131539 7.44275 0.394618L0.419871 6.99552C0.2672 7.13901 0.158803 7.29447 0.0946808 7.46188C0.0305586 7.6293 -0.000993729 7.80867 2.38419e-05 8C2.38419e-05 8.19133 0.0320864 8.3707 0.0962076 8.53812C0.16033 8.70553 0.268218 8.86099 0.419871 9.00448L7.44275 15.6054C7.72265 15.8685 8.07889 16 8.51145 16C8.94402 16 9.30026 15.8685 9.58015 15.6054Z" fill="url(#paint0_linear_31_176)"/>
<defs>
<linearGradient id="paint0_linear_31_176" x1="10" y1="0" x2="-0.789165" y2="0.379307" gradientUnits="userSpaceOnUse">
<stop stop-color="#C10046"/>
<stop offset="1" stop-color="#D752B3"/>
</linearGradient>
</defs>
</svg>
