<svg width="10" height="16" viewBox="0 0 10 16" fill="none" xmlns="http://www.w3.org/2000/svg">
<path d="M0.419846 15.6054C0.139948 15.3423 0 15.0075 0 14.6009C0 14.1943 0.139948 13.8595 0.419846 13.5964L6.37403 8L0.419846 2.40359C0.139948 2.14051 0 1.80568 0 1.3991C0 0.992526 0.139948 0.657697 0.419846 0.394618C0.699743 0.131539 1.05598 0 1.48855 0C1.92111 0 2.27735 0.131539 2.55725 0.394618L9.58013 6.99552C9.7328 7.13901 9.8412 7.29447 9.90532 7.46188C9.96944 7.6293 10.001 7.80867 9.99998 8C9.99998 8.19133 9.96791 8.3707 9.90379 8.53812C9.83967 8.70553 9.73178 8.86099 9.58013 9.00448L2.55725 15.6054C2.27735 15.8685 1.92111 16 1.48855 16C1.05598 16 0.699743 15.8685 0.419846 15.6054Z" fill="white"/>
<path d="M0.419846 15.6054C0.139948 15.3423 0 15.0075 0 14.6009C0 14.1943 0.139948 13.8595 0.419846 13.5964L6.37403 8L0.419846 2.40359C0.139948 2.14051 0 1.80568 0 1.3991C0 0.992526 0.139948 0.657697 0.419846 0.394618C0.699743 0.131539 1.05598 0 1.48855 0C1.92111 0 2.27735 0.131539 2.55725 0.394618L9.58013 6.99552C9.7328 7.13901 9.8412 7.29447 9.90532 7.46188C9.96944 7.6293 10.001 7.80867 9.99998 8C9.99998 8.19133 9.96791 8.3707 9.90379 8.53812C9.83967 8.70553 9.73178 8.86099 9.58013 9.00448L2.55725 15.6054C2.27735 15.8685 1.92111 16 1.48855 16C1.05598 16 0.699743 15.8685 0.419846 15.6054Z" fill="url(#paint0_linear_31_174)"/>
<defs>
<linearGradient id="paint0_linear_31_174" x1="0" y1="0" x2="10.7892" y2="0.379307" gradientUnits="userSpaceOnUse">
<stop stop-color="#C10046"/>
<stop offset="1" stop-color="#D752B3"/>
</linearGradient>
</defs>
</svg>
