<svg width="27" height="32" viewBox="0 0 27 32" fill="none" xmlns="http://www.w3.org/2000/svg">
<mask id="path-1-inside-1_31_170" fill="white">
<path d="M19.1635 12.1758C18.5133 12.1758 17.8631 12.2444 17.2471 12.4159V11.0439C17.2471 9.36334 15.8783 8.02572 14.2357 8.02572H12.6274V3.60129C13.2776 3.2926 13.7567 2.64094 13.7567 1.88639C13.7567 0.857449 12.9011 0 11.8745 0H5.40684C4.38023 0 3.52471 0.857449 3.52471 1.88639C3.52471 2.64094 4.0038 3.3269 4.65399 3.60129V8.02572H3.04563C1.36882 8.02572 0 9.39764 0 11.0439V28.9818C0 30.6624 1.36882 32 3.04563 32H14.2357C15.9125 32 17.2471 30.6281 17.2471 28.9818V27.6099C17.8631 27.7813 18.5133 27.8499 19.1635 27.8499C23.4753 27.8499 27 24.3173 27 19.9957C27 15.6742 23.4753 12.1758 19.1635 12.1758ZM5.40684 1.16613H11.8745C12.251 1.16613 12.5589 1.47481 12.5589 1.85209C12.5589 2.22937 12.251 2.53805 11.8745 2.53805H5.40684C5.03042 2.53805 4.72243 2.22937 4.72243 1.85209C4.68821 1.47481 4.9962 1.16613 5.40684 1.16613ZM11.4297 3.77278V8.02572H5.81749V3.77278H11.4297ZM1.19772 11.0439C1.19772 10.0493 2.01901 9.22615 3.04563 9.22615H14.2357C15.2281 9.22615 16.0494 10.0493 16.0494 11.0439V12.8274C15.3308 13.1361 14.6806 13.5477 14.0989 14.0622H1.19772V11.0439ZM1.19772 15.2626H12.9354C11.9087 16.6345 11.327 18.3151 11.327 20.03C11.327 21.7792 11.9087 23.4598 12.9354 24.7974H1.19772V15.2626ZM16.0494 29.0161C16.0494 30.0107 15.2281 30.8339 14.2357 30.8339H3.04563C2.01901 30.8339 1.19772 30.0107 1.19772 29.0161V26.0322H14.0989C14.6806 26.5466 15.365 26.9582 16.0494 27.2669V29.0161ZM19.1635 26.6838C18.3764 26.6838 17.5894 26.5466 16.8707 26.2722C16.0836 25.9636 15.3308 25.5177 14.7148 24.9689C13.3118 23.6999 12.5247 21.9164 12.5247 20.03C12.5247 18.1436 13.3118 16.3601 14.7148 15.0911C15.3308 14.508 16.0836 14.0622 16.8707 13.7878C17.5894 13.5134 18.3764 13.3762 19.1635 13.3762C22.8251 13.3762 25.8023 16.3601 25.8023 20.03C25.8023 23.6999 22.8251 26.6838 19.1635 26.6838Z"/>
<path d="M23.8175 19.4126C23.4753 19.4126 23.2015 19.687 23.2015 20.03C23.2015 20.5102 23.1331 20.9561 22.962 21.4019C22.8593 21.7106 22.9962 22.0536 23.3384 22.1565C23.4068 22.1908 23.4753 22.1908 23.5437 22.1908C23.7833 22.1908 24.0228 22.0536 24.0913 21.7792C24.2966 21.1961 24.3992 20.6131 24.3992 19.9957V19.9614C24.3992 19.687 24.1597 19.4126 23.8175 19.4126Z"/>
<path d="M22.4144 15.9143C22.1407 15.7085 21.7643 15.7428 21.5589 16.0171C21.3536 16.2915 21.3878 16.6688 21.6616 16.8746C22.038 17.1833 22.346 17.5263 22.5856 17.9035C22.6882 18.075 22.8935 18.1779 23.0989 18.1779C23.2015 18.1779 23.3042 18.1436 23.4068 18.075C23.6806 17.9035 23.7833 17.5263 23.6122 17.2519C23.3042 16.7374 22.8935 16.2915 22.4144 15.9143Z"/>
<path d="M21.6958 23.2197C21.3194 23.5284 20.9087 23.7342 20.4639 23.9057C20.1559 23.9743 19.9848 24.3173 20.0875 24.6602C20.1559 24.9003 20.3954 25.0718 20.6692 25.0718C20.7376 25.0718 20.8061 25.0718 20.8745 25.0375C21.4563 24.8317 21.9696 24.5573 22.4487 24.1801C22.7224 23.9743 22.7567 23.597 22.5513 23.3226C22.3118 23.0482 21.9354 23.0139 21.6958 23.2197Z"/>
<path d="M18.2738 24.0086C17.8289 23.9057 17.384 23.7342 16.9734 23.4598C16.6996 23.2883 16.3232 23.3569 16.1521 23.6313C15.981 23.9057 16.0494 24.283 16.3232 24.4544C16.8365 24.7974 17.384 25.0032 18 25.1404C18.0342 25.1404 18.1027 25.1404 18.1369 25.1404C18.4106 25.1404 18.6502 24.9346 18.7186 24.6602C18.7871 24.3859 18.5817 24.0772 18.2738 24.0086Z"/>
<path d="M15.1255 20.4759C15.0913 20.1329 14.7833 19.8928 14.4753 19.9271C14.1331 19.9614 13.8935 20.2701 13.9278 20.5788C13.9962 21.1961 14.1673 21.7792 14.4068 22.328C14.5095 22.5338 14.7148 22.671 14.9544 22.671C15.057 22.671 15.1255 22.6367 15.2281 22.6024C15.5361 22.4652 15.6388 22.0879 15.5019 21.8135C15.2966 21.3676 15.1597 20.9218 15.1255 20.4759Z"/>
<path d="M19.7795 14.7824C19.5741 14.7481 19.3688 14.7481 19.1635 14.7481C18.7529 14.7481 18.3764 14.7824 17.9658 14.8853C17.6578 14.9539 17.4525 15.2969 17.5209 15.6056C17.5894 15.88 17.8289 16.0857 18.1027 16.0857C18.1369 16.0857 18.2053 16.0857 18.2395 16.0857C18.5475 16.0171 18.8555 15.9829 19.1635 15.9829C19.3004 15.9829 19.4715 15.9829 19.6426 16.0171C19.9848 16.0514 20.2586 15.8114 20.2928 15.5027C20.327 15.1254 20.0875 14.851 19.7795 14.7824Z"/>
<path d="M15.4677 16.2915C15.0228 16.7374 14.6806 17.2176 14.4068 17.7663C14.27 18.075 14.4068 18.418 14.6806 18.5552C14.749 18.5895 14.8517 18.6238 14.9544 18.6238C15.1939 18.6238 15.3992 18.4866 15.5019 18.2808C15.7072 17.8692 15.981 17.492 16.3232 17.149C16.5627 16.9089 16.5627 16.5316 16.3232 16.2915C16.0837 16.0514 15.7072 16.0514 15.4677 16.2915Z"/>
</mask>
<path d="M19.1635 12.1758C18.5133 12.1758 17.8631 12.2444 17.2471 12.4159V11.0439C17.2471 9.36334 15.8783 8.02572 14.2357 8.02572H12.6274V3.60129C13.2776 3.2926 13.7567 2.64094 13.7567 1.88639C13.7567 0.857449 12.9011 0 11.8745 0H5.40684C4.38023 0 3.52471 0.857449 3.52471 1.88639C3.52471 2.64094 4.0038 3.3269 4.65399 3.60129V8.02572H3.04563C1.36882 8.02572 0 9.39764 0 11.0439V28.9818C0 30.6624 1.36882 32 3.04563 32H14.2357C15.9125 32 17.2471 30.6281 17.2471 28.9818V27.6099C17.8631 27.7813 18.5133 27.8499 19.1635 27.8499C23.4753 27.8499 27 24.3173 27 19.9957C27 15.6742 23.4753 12.1758 19.1635 12.1758ZM5.40684 1.16613H11.8745C12.251 1.16613 12.5589 1.47481 12.5589 1.85209C12.5589 2.22937 12.251 2.53805 11.8745 2.53805H5.40684C5.03042 2.53805 4.72243 2.22937 4.72243 1.85209C4.68821 1.47481 4.9962 1.16613 5.40684 1.16613ZM11.4297 3.77278V8.02572H5.81749V3.77278H11.4297ZM1.19772 11.0439C1.19772 10.0493 2.01901 9.22615 3.04563 9.22615H14.2357C15.2281 9.22615 16.0494 10.0493 16.0494 11.0439V12.8274C15.3308 13.1361 14.6806 13.5477 14.0989 14.0622H1.19772V11.0439ZM1.19772 15.2626H12.9354C11.9087 16.6345 11.327 18.3151 11.327 20.03C11.327 21.7792 11.9087 23.4598 12.9354 24.7974H1.19772V15.2626ZM16.0494 29.0161C16.0494 30.0107 15.2281 30.8339 14.2357 30.8339H3.04563C2.01901 30.8339 1.19772 30.0107 1.19772 29.0161V26.0322H14.0989C14.6806 26.5466 15.365 26.9582 16.0494 27.2669V29.0161ZM19.1635 26.6838C18.3764 26.6838 17.5894 26.5466 16.8707 26.2722C16.0836 25.9636 15.3308 25.5177 14.7148 24.9689C13.3118 23.6999 12.5247 21.9164 12.5247 20.03C12.5247 18.1436 13.3118 16.3601 14.7148 15.0911C15.3308 14.508 16.0836 14.0622 16.8707 13.7878C17.5894 13.5134 18.3764 13.3762 19.1635 13.3762C22.8251 13.3762 25.8023 16.3601 25.8023 20.03C25.8023 23.6999 22.8251 26.6838 19.1635 26.6838Z" fill="white"/>
<path d="M23.8175 19.4126C23.4753 19.4126 23.2015 19.687 23.2015 20.03C23.2015 20.5102 23.1331 20.9561 22.962 21.4019C22.8593 21.7106 22.9962 22.0536 23.3384 22.1565C23.4068 22.1908 23.4753 22.1908 23.5437 22.1908C23.7833 22.1908 24.0228 22.0536 24.0913 21.7792C24.2966 21.1961 24.3992 20.6131 24.3992 19.9957V19.9614C24.3992 19.687 24.1597 19.4126 23.8175 19.4126Z" fill="white"/>
<path d="M22.4144 15.9143C22.1407 15.7085 21.7643 15.7428 21.5589 16.0171C21.3536 16.2915 21.3878 16.6688 21.6616 16.8746C22.038 17.1833 22.346 17.5263 22.5856 17.9035C22.6882 18.075 22.8935 18.1779 23.0989 18.1779C23.2015 18.1779 23.3042 18.1436 23.4068 18.075C23.6806 17.9035 23.7833 17.5263 23.6122 17.2519C23.3042 16.7374 22.8935 16.2915 22.4144 15.9143Z" fill="white"/>
<path d="M21.6958 23.2197C21.3194 23.5284 20.9087 23.7342 20.4639 23.9057C20.1559 23.9743 19.9848 24.3173 20.0875 24.6602C20.1559 24.9003 20.3954 25.0718 20.6692 25.0718C20.7376 25.0718 20.8061 25.0718 20.8745 25.0375C21.4563 24.8317 21.9696 24.5573 22.4487 24.1801C22.7224 23.9743 22.7567 23.597 22.5513 23.3226C22.3118 23.0482 21.9354 23.0139 21.6958 23.2197Z" fill="white"/>
<path d="M18.2738 24.0086C17.8289 23.9057 17.384 23.7342 16.9734 23.4598C16.6996 23.2883 16.3232 23.3569 16.1521 23.6313C15.981 23.9057 16.0494 24.283 16.3232 24.4544C16.8365 24.7974 17.384 25.0032 18 25.1404C18.0342 25.1404 18.1027 25.1404 18.1369 25.1404C18.4106 25.1404 18.6502 24.9346 18.7186 24.6602C18.7871 24.3859 18.5817 24.0772 18.2738 24.0086Z" fill="white"/>
<path d="M15.1255 20.4759C15.0913 20.1329 14.7833 19.8928 14.4753 19.9271C14.1331 19.9614 13.8935 20.2701 13.9278 20.5788C13.9962 21.1961 14.1673 21.7792 14.4068 22.328C14.5095 22.5338 14.7148 22.671 14.9544 22.671C15.057 22.671 15.1255 22.6367 15.2281 22.6024C15.5361 22.4652 15.6388 22.0879 15.5019 21.8135C15.2966 21.3676 15.1597 20.9218 15.1255 20.4759Z" fill="white"/>
<path d="M19.7795 14.7824C19.5741 14.7481 19.3688 14.7481 19.1635 14.7481C18.7529 14.7481 18.3764 14.7824 17.9658 14.8853C17.6578 14.9539 17.4525 15.2969 17.5209 15.6056C17.5894 15.88 17.8289 16.0857 18.1027 16.0857C18.1369 16.0857 18.2053 16.0857 18.2395 16.0857C18.5475 16.0171 18.8555 15.9829 19.1635 15.9829C19.3004 15.9829 19.4715 15.9829 19.6426 16.0171C19.9848 16.0514 20.2586 15.8114 20.2928 15.5027C20.327 15.1254 20.0875 14.851 19.7795 14.7824Z" fill="white"/>
<path d="M15.4677 16.2915C15.0228 16.7374 14.6806 17.2176 14.4068 17.7663C14.27 18.075 14.4068 18.418 14.6806 18.5552C14.749 18.5895 14.8517 18.6238 14.9544 18.6238C15.1939 18.6238 15.3992 18.4866 15.5019 18.2808C15.7072 17.8692 15.981 17.492 16.3232 17.149C16.5627 16.9089 16.5627 16.5316 16.3232 16.2915C16.0837 16.0514 15.7072 16.0514 15.4677 16.2915Z" fill="white"/>
<path d="M19.1635 12.1758C18.5133 12.1758 17.8631 12.2444 17.2471 12.4159V11.0439C17.2471 9.36334 15.8783 8.02572 14.2357 8.02572H12.6274V3.60129C13.2776 3.2926 13.7567 2.64094 13.7567 1.88639C13.7567 0.857449 12.9011 0 11.8745 0H5.40684C4.38023 0 3.52471 0.857449 3.52471 1.88639C3.52471 2.64094 4.0038 3.3269 4.65399 3.60129V8.02572H3.04563C1.36882 8.02572 0 9.39764 0 11.0439V28.9818C0 30.6624 1.36882 32 3.04563 32H14.2357C15.9125 32 17.2471 30.6281 17.2471 28.9818V27.6099C17.8631 27.7813 18.5133 27.8499 19.1635 27.8499C23.4753 27.8499 27 24.3173 27 19.9957C27 15.6742 23.4753 12.1758 19.1635 12.1758ZM5.40684 1.16613H11.8745C12.251 1.16613 12.5589 1.47481 12.5589 1.85209C12.5589 2.22937 12.251 2.53805 11.8745 2.53805H5.40684C5.03042 2.53805 4.72243 2.22937 4.72243 1.85209C4.68821 1.47481 4.9962 1.16613 5.40684 1.16613ZM11.4297 3.77278V8.02572H5.81749V3.77278H11.4297ZM1.19772 11.0439C1.19772 10.0493 2.01901 9.22615 3.04563 9.22615H14.2357C15.2281 9.22615 16.0494 10.0493 16.0494 11.0439V12.8274C15.3308 13.1361 14.6806 13.5477 14.0989 14.0622H1.19772V11.0439ZM1.19772 15.2626H12.9354C11.9087 16.6345 11.327 18.3151 11.327 20.03C11.327 21.7792 11.9087 23.4598 12.9354 24.7974H1.19772V15.2626ZM16.0494 29.0161C16.0494 30.0107 15.2281 30.8339 14.2357 30.8339H3.04563C2.01901 30.8339 1.19772 30.0107 1.19772 29.0161V26.0322H14.0989C14.6806 26.5466 15.365 26.9582 16.0494 27.2669V29.0161ZM19.1635 26.6838C18.3764 26.6838 17.5894 26.5466 16.8707 26.2722C16.0836 25.9636 15.3308 25.5177 14.7148 24.9689C13.3118 23.6999 12.5247 21.9164 12.5247 20.03C12.5247 18.1436 13.3118 16.3601 14.7148 15.0911C15.3308 14.508 16.0836 14.0622 16.8707 13.7878C17.5894 13.5134 18.3764 13.3762 19.1635 13.3762C22.8251 13.3762 25.8023 16.3601 25.8023 20.03C25.8023 23.6999 22.8251 26.6838 19.1635 26.6838Z" stroke="url(#paint0_linear_31_170)" stroke-width="2" mask="url(#path-1-inside-1_31_170)"/>
<path d="M23.8175 19.4126C23.4753 19.4126 23.2015 19.687 23.2015 20.03C23.2015 20.5102 23.1331 20.9561 22.962 21.4019C22.8593 21.7106 22.9962 22.0536 23.3384 22.1565C23.4068 22.1908 23.4753 22.1908 23.5437 22.1908C23.7833 22.1908 24.0228 22.0536 24.0913 21.7792C24.2966 21.1961 24.3992 20.6131 24.3992 19.9957V19.9614C24.3992 19.687 24.1597 19.4126 23.8175 19.4126Z" stroke="url(#paint1_linear_31_170)" stroke-width="2" mask="url(#path-1-inside-1_31_170)"/>
<path d="M22.4144 15.9143C22.1407 15.7085 21.7643 15.7428 21.5589 16.0171C21.3536 16.2915 21.3878 16.6688 21.6616 16.8746C22.038 17.1833 22.346 17.5263 22.5856 17.9035C22.6882 18.075 22.8935 18.1779 23.0989 18.1779C23.2015 18.1779 23.3042 18.1436 23.4068 18.075C23.6806 17.9035 23.7833 17.5263 23.6122 17.2519C23.3042 16.7374 22.8935 16.2915 22.4144 15.9143Z" stroke="url(#paint2_linear_31_170)" stroke-width="2" mask="url(#path-1-inside-1_31_170)"/>
<path d="M21.6958 23.2197C21.3194 23.5284 20.9087 23.7342 20.4639 23.9057C20.1559 23.9743 19.9848 24.3173 20.0875 24.6602C20.1559 24.9003 20.3954 25.0718 20.6692 25.0718C20.7376 25.0718 20.8061 25.0718 20.8745 25.0375C21.4563 24.8317 21.9696 24.5573 22.4487 24.1801C22.7224 23.9743 22.7567 23.597 22.5513 23.3226C22.3118 23.0482 21.9354 23.0139 21.6958 23.2197Z" stroke="url(#paint3_linear_31_170)" stroke-width="2" mask="url(#path-1-inside-1_31_170)"/>
<path d="M18.2738 24.0086C17.8289 23.9057 17.384 23.7342 16.9734 23.4598C16.6996 23.2883 16.3232 23.3569 16.1521 23.6313C15.981 23.9057 16.0494 24.283 16.3232 24.4544C16.8365 24.7974 17.384 25.0032 18 25.1404C18.0342 25.1404 18.1027 25.1404 18.1369 25.1404C18.4106 25.1404 18.6502 24.9346 18.7186 24.6602C18.7871 24.3859 18.5817 24.0772 18.2738 24.0086Z" stroke="url(#paint4_linear_31_170)" stroke-width="2" mask="url(#path-1-inside-1_31_170)"/>
<path d="M15.1255 20.4759C15.0913 20.1329 14.7833 19.8928 14.4753 19.9271C14.1331 19.9614 13.8935 20.2701 13.9278 20.5788C13.9962 21.1961 14.1673 21.7792 14.4068 22.328C14.5095 22.5338 14.7148 22.671 14.9544 22.671C15.057 22.671 15.1255 22.6367 15.2281 22.6024C15.5361 22.4652 15.6388 22.0879 15.5019 21.8135C15.2966 21.3676 15.1597 20.9218 15.1255 20.4759Z" stroke="url(#paint5_linear_31_170)" stroke-width="2" mask="url(#path-1-inside-1_31_170)"/>
<path d="M19.7795 14.7824C19.5741 14.7481 19.3688 14.7481 19.1635 14.7481C18.7529 14.7481 18.3764 14.7824 17.9658 14.8853C17.6578 14.9539 17.4525 15.2969 17.5209 15.6056C17.5894 15.88 17.8289 16.0857 18.1027 16.0857C18.1369 16.0857 18.2053 16.0857 18.2395 16.0857C18.5475 16.0171 18.8555 15.9829 19.1635 15.9829C19.3004 15.9829 19.4715 15.9829 19.6426 16.0171C19.9848 16.0514 20.2586 15.8114 20.2928 15.5027C20.327 15.1254 20.0875 14.851 19.7795 14.7824Z" stroke="url(#paint6_linear_31_170)" stroke-width="2" mask="url(#path-1-inside-1_31_170)"/>
<path d="M15.4677 16.2915C15.0228 16.7374 14.6806 17.2176 14.4068 17.7663C14.27 18.075 14.4068 18.418 14.6806 18.5552C14.749 18.5895 14.8517 18.6238 14.9544 18.6238C15.1939 18.6238 15.3992 18.4866 15.5019 18.2808C15.7072 17.8692 15.981 17.492 16.3232 17.149C16.5627 16.9089 16.5627 16.5316 16.3232 16.2915C16.0837 16.0514 15.7072 16.0514 15.4677 16.2915Z" stroke="url(#paint7_linear_31_170)" stroke-width="2" mask="url(#path-1-inside-1_31_170)"/>
<defs>
<linearGradient id="paint0_linear_31_170" x1="0" y1="0" x2="31.5436" y2="26.6149" gradientUnits="userSpaceOnUse">
<stop stop-color="#C10046"/>
<stop offset="1" stop-color="#D752B3"/>
</linearGradient>
<linearGradient id="paint1_linear_31_170" x1="0" y1="0" x2="31.5436" y2="26.6149" gradientUnits="userSpaceOnUse">
<stop stop-color="#C10046"/>
<stop offset="1" stop-color="#D752B3"/>
</linearGradient>
<linearGradient id="paint2_linear_31_170" x1="0" y1="0" x2="31.5436" y2="26.6149" gradientUnits="userSpaceOnUse">
<stop stop-color="#C10046"/>
<stop offset="1" stop-color="#D752B3"/>
</linearGradient>
<linearGradient id="paint3_linear_31_170" x1="0" y1="0" x2="31.5436" y2="26.6149" gradientUnits="userSpaceOnUse">
<stop stop-color="#C10046"/>
<stop offset="1" stop-color="#D752B3"/>
</linearGradient>
<linearGradient id="paint4_linear_31_170" x1="0" y1="0" x2="31.5436" y2="26.6149" gradientUnits="userSpaceOnUse">
<stop stop-color="#C10046"/>
<stop offset="1" stop-color="#D752B3"/>
</linearGradient>
<linearGradient id="paint5_linear_31_170" x1="0" y1="0" x2="31.5436" y2="26.6149" gradientUnits="userSpaceOnUse">
<stop stop-color="#C10046"/>
<stop offset="1" stop-color="#D752B3"/>
</linearGradient>
<linearGradient id="paint6_linear_31_170" x1="0" y1="0" x2="31.5436" y2="26.6149" gradientUnits="userSpaceOnUse">
<stop stop-color="#C10046"/>
<stop offset="1" stop-color="#D752B3"/>
</linearGradient>
<linearGradient id="paint7_linear_31_170" x1="0" y1="0" x2="31.5436" y2="26.6149" gradientUnits="userSpaceOnUse">
<stop stop-color="#C10046"/>
<stop offset="1" stop-color="#D752B3"/>
</linearGradient>
</defs>
</svg>
