<svg width="52" height="34" viewBox="0 0 52 34" fill="none" xmlns="http://www.w3.org/2000/svg">
<path d="M40.7 15.7692H45.6C48.3062 15.7692 50.5 17.9734 50.5 20.6923V23.1538C50.5 25.8728 48.3062 28.0769 45.6 28.0769M40.7 15.7692L36.9168 4.36626C36.2499 2.35596 34.3774 1 32.2683 1H21.1M40.7 15.7692H21.1M6.4 15.7692L10.1832 4.36626C10.8501 2.35596 12.7226 1 14.8317 1H21.1M6.4 15.7692H21.1M6.4 15.7692C3.6938 15.7692 1.5 17.9734 1.5 20.6923V23.1538C1.5 25.8728 3.6938 28.0769 6.4 28.0769M21.1 15.7692V1M16.2 28.0769H35.8M16.2 28.0769C16.2 30.7959 14.0062 33 11.3 33C8.5938 33 6.4 30.7959 6.4 28.0769M16.2 28.0769C16.2 25.358 14.0062 23.1538 11.3 23.1538C8.5938 23.1538 6.4 25.358 6.4 28.0769M35.8 28.0769C35.8 30.7959 37.9938 33 40.7 33C43.4062 33 45.6 30.7959 45.6 28.0769M35.8 28.0769C35.8 25.358 37.9938 23.1538 40.7 23.1538C43.4062 23.1538 45.6 25.358 45.6 28.0769" stroke="#111111" stroke-width="2"/>
<path d="M40.7 15.7692H45.6C48.3062 15.7692 50.5 17.9734 50.5 20.6923V23.1538C50.5 25.8728 48.3062 28.0769 45.6 28.0769M40.7 15.7692L36.9168 4.36626C36.2499 2.35596 34.3774 1 32.2683 1H21.1M40.7 15.7692H21.1M6.4 15.7692L10.1832 4.36626C10.8501 2.35596 12.7226 1 14.8317 1H21.1M6.4 15.7692H21.1M6.4 15.7692C3.6938 15.7692 1.5 17.9734 1.5 20.6923V23.1538C1.5 25.8728 3.6938 28.0769 6.4 28.0769M21.1 15.7692V1M16.2 28.0769H35.8M16.2 28.0769C16.2 30.7959 14.0062 33 11.3 33C8.5938 33 6.4 30.7959 6.4 28.0769M16.2 28.0769C16.2 25.358 14.0062 23.1538 11.3 23.1538C8.5938 23.1538 6.4 25.358 6.4 28.0769M35.8 28.0769C35.8 30.7959 37.9938 33 40.7 33C43.4062 33 45.6 30.7959 45.6 28.0769M35.8 28.0769C35.8 25.358 37.9938 23.1538 40.7 23.1538C43.4062 23.1538 45.6 25.358 45.6 28.0769" stroke="url(#paint0_linear_31_401)" stroke-width="2"/>
<defs>
<linearGradient id="paint0_linear_31_401" x1="1.5" y1="1" x2="30.7999" y2="45.8654" gradientUnits="userSpaceOnUse">
<stop stop-color="#C10046"/>
<stop offset="1" stop-color="#D752B3"/>
</linearGradient>
</defs>
</svg>
