<svg width="42" height="42" viewBox="0 0 42 42" fill="none" xmlns="http://www.w3.org/2000/svg">
<path d="M33.5 13.5C33.5 20.4036 27.9036 26 21 26M33.5 13.5C33.5 6.59644 27.9036 1 21 1C14.0964 1 8.5 6.59644 8.5 13.5M33.5 13.5C33.5 16.4167 35 23 41 26M21 26C14.0964 26 8.5 20.4036 8.5 13.5M21 26C11.335 26 3.5 32.7157 3.5 41M21 26C30.665 26 38.5 32.7157 38.5 41M8.5 13.5C8.5 16.4167 7 23 1 26M26 3.5C26 6.83333 23 13.5 11 13.5" stroke="#111111" stroke-width="2" stroke-linecap="round"/>
<path d="M33.5 13.5C33.5 20.4036 27.9036 26 21 26M33.5 13.5C33.5 6.59644 27.9036 1 21 1C14.0964 1 8.5 6.59644 8.5 13.5M33.5 13.5C33.5 16.4167 35 23 41 26M21 26C14.0964 26 8.5 20.4036 8.5 13.5M21 26C11.335 26 3.5 32.7157 3.5 41M21 26C30.665 26 38.5 32.7157 38.5 41M8.5 13.5C8.5 16.4167 7 23 1 26M26 3.5C26 6.83333 23 13.5 11 13.5" stroke="url(#paint0_linear_31_262)" stroke-width="2" stroke-linecap="round"/>
<defs>
<linearGradient id="paint0_linear_31_262" x1="1" y1="1" x2="41" y2="41" gradientUnits="userSpaceOnUse">
<stop stop-color="#C10046"/>
<stop offset="1" stop-color="#D752B3"/>
</linearGradient>
</defs>
</svg>
