<svg width="14" height="14" viewBox="0 0 14 14" fill="none" xmlns="http://www.w3.org/2000/svg">
<path d="M10.5001 0.937936C11.5559 1.54754 12.4342 2.42232 13.048 3.47568C13.6619 4.52903 13.9899 5.72444 13.9998 6.94355C14.0096 8.16266 13.7009 9.36321 13.1042 10.4263C12.5075 11.4895 11.6434 12.3783 10.5976 13.0049C9.55179 13.6315 8.36046 13.9741 7.14156 13.9987C5.92265 14.0234 4.71844 13.7293 3.64813 13.1456C2.57782 12.5618 1.67853 11.7086 1.03928 10.6705C0.400028 9.6324 0.042987 8.44533 0.00350012 7.22681L0 7.00001L0.00350012 6.77321C0.0427028 5.56429 0.394488 4.38615 1.02456 3.35366C1.65463 2.32117 2.54149 1.46956 3.59867 0.881853C4.65585 0.294147 5.84727 -0.00959767 7.05679 0.000231175C8.26631 0.01006 9.45264 0.333127 10.5001 0.937936ZM7.00009 2.79996C6.82863 2.79998 6.66315 2.86293 6.53502 2.97686C6.40689 3.09079 6.32504 3.24779 6.30498 3.41807L6.30008 3.49997V7.00001L6.30638 7.09171C6.32234 7.21316 6.36989 7.3283 6.44428 7.42562L6.50518 7.49562L8.60521 9.59564L8.67101 9.65304C8.79377 9.74829 8.94473 9.79999 9.10011 9.79999C9.25549 9.79999 9.40646 9.74829 9.52922 9.65304L9.59502 9.59494L9.65312 9.52914C9.74837 9.40638 9.80006 9.25541 9.80006 9.10004C9.80006 8.94466 9.74837 8.79369 9.65312 8.67093L9.59502 8.60513L7.7001 6.70951V3.49997L7.69519 3.41807C7.67513 3.24779 7.59328 3.09079 7.46515 2.97686C7.33703 2.86293 7.17154 2.79998 7.00009 2.79996Z" fill="white"/>
<path d="M10.5001 0.937936C11.5559 1.54754 12.4342 2.42232 13.048 3.47568C13.6619 4.52903 13.9899 5.72444 13.9998 6.94355C14.0096 8.16266 13.7009 9.36321 13.1042 10.4263C12.5075 11.4895 11.6434 12.3783 10.5976 13.0049C9.55179 13.6315 8.36046 13.9741 7.14156 13.9987C5.92265 14.0234 4.71844 13.7293 3.64813 13.1456C2.57782 12.5618 1.67853 11.7086 1.03928 10.6705C0.400028 9.6324 0.042987 8.44533 0.00350012 7.22681L0 7.00001L0.00350012 6.77321C0.0427028 5.56429 0.394488 4.38615 1.02456 3.35366C1.65463 2.32117 2.54149 1.46956 3.59867 0.881853C4.65585 0.294147 5.84727 -0.00959767 7.05679 0.000231175C8.26631 0.01006 9.45264 0.333127 10.5001 0.937936ZM7.00009 2.79996C6.82863 2.79998 6.66315 2.86293 6.53502 2.97686C6.40689 3.09079 6.32504 3.24779 6.30498 3.41807L6.30008 3.49997V7.00001L6.30638 7.09171C6.32234 7.21316 6.36989 7.3283 6.44428 7.42562L6.50518 7.49562L8.60521 9.59564L8.67101 9.65304C8.79377 9.74829 8.94473 9.79999 9.10011 9.79999C9.25549 9.79999 9.40646 9.74829 9.52922 9.65304L9.59502 9.59494L9.65312 9.52914C9.74837 9.40638 9.80006 9.25541 9.80006 9.10004C9.80006 8.94466 9.74837 8.79369 9.65312 8.67093L9.59502 8.60513L7.7001 6.70951V3.49997L7.69519 3.41807C7.67513 3.24779 7.59328 3.09079 7.46515 2.97686C7.33703 2.86293 7.17154 2.79998 7.00009 2.79996Z" fill="url(#paint0_linear_192_8)"/>
<defs>
<linearGradient id="paint0_linear_192_8" x1="0" y1="0" x2="15.0758" y2="0.848003" gradientUnits="userSpaceOnUse">
<stop stop-color="#C10046"/>
<stop offset="1" stop-color="#D752B3"/>
</linearGradient>
</defs>
</svg>
