<svg width="29" height="34" viewBox="0 0 29 34" fill="none" xmlns="http://www.w3.org/2000/svg">
<path d="M21 4.23683C21 6.02447 16.6348 7.47365 11.25 7.47365C5.86522 7.47365 1.5 6.02447 1.5 4.23683M21 4.23683C21 2.44918 16.6348 1 11.25 1C5.86522 1 1.5 2.44918 1.5 4.23683M21 4.23683V10.7105M1.5 4.23683V10.7105C1.5 12.4981 5.86522 13.9473 11.25 13.9473C16.6348 13.9473 21 12.4981 21 10.7105M27.5 13.7631C27.5 15.5508 23.1348 16.9999 17.75 16.9999C12.3652 16.9999 8 15.5508 8 13.7631V20.2368M27.5 13.7631C27.5 12.3538 24.7869 11.1548 21 10.7105M27.5 13.7631V20.2368C27.5 22.0245 23.1348 23.4737 17.75 23.4737C12.3652 23.4737 8 22.0245 8 20.2368M1.5 23.2895C1.5 25.0771 5.86522 26.5263 11.25 26.5263C16.6348 26.5263 21 25.0771 21 23.2895V29.7632C21 31.5508 16.6348 33 11.25 33C5.86522 33 1.5 31.5508 1.5 29.7632V23.2895ZM1.5 23.2895C1.5 21.8801 4.21312 20.6812 8 20.2368" stroke="#282828" stroke-width="2"/>
<path d="M21 4.23683C21 6.02447 16.6348 7.47365 11.25 7.47365C5.86522 7.47365 1.5 6.02447 1.5 4.23683M21 4.23683C21 2.44918 16.6348 1 11.25 1C5.86522 1 1.5 2.44918 1.5 4.23683M21 4.23683V10.7105M1.5 4.23683V10.7105C1.5 12.4981 5.86522 13.9473 11.25 13.9473C16.6348 13.9473 21 12.4981 21 10.7105M27.5 13.7631C27.5 15.5508 23.1348 16.9999 17.75 16.9999C12.3652 16.9999 8 15.5508 8 13.7631V20.2368M27.5 13.7631C27.5 12.3538 24.7869 11.1548 21 10.7105M27.5 13.7631V20.2368C27.5 22.0245 23.1348 23.4737 17.75 23.4737C12.3652 23.4737 8 22.0245 8 20.2368M1.5 23.2895C1.5 25.0771 5.86522 26.5263 11.25 26.5263C16.6348 26.5263 21 25.0771 21 23.2895V29.7632C21 31.5508 16.6348 33 11.25 33C5.86522 33 1.5 31.5508 1.5 29.7632V23.2895ZM1.5 23.2895C1.5 21.8801 4.21312 20.6812 8 20.2368" stroke="url(#paint0_linear_31_101)" stroke-width="2"/>
<defs>
<linearGradient id="paint0_linear_31_101" x1="1.5" y1="1" x2="32.8224" y2="26.4494" gradientUnits="userSpaceOnUse">
<stop stop-color="#C10046"/>
<stop offset="1" stop-color="#D752B3"/>
</linearGradient>
</defs>
</svg>
