<svg width="42" height="34" viewBox="0 0 42 34" fill="none" xmlns="http://www.w3.org/2000/svg">
<path d="M1 9H41M9 25H17M25 25H33M7.4 33H34.6C36.8402 33 37.9603 33 38.816 32.564C39.5686 32.1805 40.1805 31.5686 40.564 30.816C41 29.9603 41 28.8402 41 26.6V7.4C41 5.15979 41 4.03968 40.564 3.18404C40.1805 2.43139 39.5686 1.81947 38.816 1.43597C37.9603 1 36.8402 1 34.6 1H7.4C5.15979 1 4.03968 1 3.18404 1.43597C2.43139 1.81947 1.81947 2.43139 1.43597 3.18404C1 4.03968 1 5.15979 1 7.4V26.6C1 28.8402 1 29.9603 1.43597 30.816C1.81947 31.5686 2.43139 32.1805 3.18404 32.564C4.03968 33 5.15979 33 7.4 33Z" stroke="#111111" stroke-width="2" stroke-linecap="round"/>
<path d="M1 9H41M9 25H17M25 25H33M7.4 33H34.6C36.8402 33 37.9603 33 38.816 32.564C39.5686 32.1805 40.1805 31.5686 40.564 30.816C41 29.9603 41 28.8402 41 26.6V7.4C41 5.15979 41 4.03968 40.564 3.18404C40.1805 2.43139 39.5686 1.81947 38.816 1.43597C37.9603 1 36.8402 1 34.6 1H7.4C5.15979 1 4.03968 1 3.18404 1.43597C2.43139 1.81947 1.81947 2.43139 1.43597 3.18404C1 4.03968 1 5.15979 1 7.4V26.6C1 28.8402 1 29.9603 1.43597 30.816C1.81947 31.5686 2.43139 32.1805 3.18404 32.564C4.03968 33 5.15979 33 7.4 33Z" stroke="url(#paint0_linear_31_400)" stroke-width="2" stroke-linecap="round"/>
<defs>
<linearGradient id="paint0_linear_31_400" x1="1" y1="1" x2="32.2195" y2="40.0244" gradientUnits="userSpaceOnUse">
<stop stop-color="#C10046"/>
<stop offset="1" stop-color="#D752B3"/>
</linearGradient>
</defs>
</svg>
