<svg width="5" height="9" viewBox="0 0 5 9" fill="none" xmlns="http://www.w3.org/2000/svg">
<path d="M0.176092 8.32391C0.0633405 8.21112 -1.93129e-08 8.05817 -2.6284e-08 7.89869C-3.3255e-08 7.73921 0.0633405 7.58626 0.176092 7.47348L3.1532 4.49637L0.176092 1.51926C0.0665357 1.40583 0.00591404 1.2539 0.00728435 1.09621C0.00865467 0.938515 0.0719072 0.787667 0.183418 0.676156C0.294929 0.564644 0.445777 0.501393 0.603472 0.500023C0.761166 0.498652 0.91309 0.559274 1.02652 0.66883L4.42885 4.07115C4.5416 4.18394 4.60494 4.33689 4.60494 4.49637C4.60494 4.65585 4.5416 4.8088 4.42885 4.92158L1.02652 8.32391C0.913737 8.43666 0.760787 8.5 0.601308 8.5C0.441828 8.5 0.288878 8.43666 0.176092 8.32391Z" fill="#787878"/>
</svg>
