<svg width="34" height="34" viewBox="0 0 34 34" fill="none" xmlns="http://www.w3.org/2000/svg">
<path d="M6.33333 4.55556V11.6667M6.33333 4.55556C6.33333 2.59188 7.92521 1 9.88889 1H24.1111C26.0748 1 27.6667 2.59188 27.6667 4.55556M6.33333 4.55556H4.55556C2.59188 4.55556 1 6.14743 1 8.11111C1 10.0748 2.59188 11.6667 4.55556 11.6667H6.33333M6.33333 11.6667C6.33333 17.5577 11.109 22.3333 17 22.3333M27.6667 11.6667V4.55556M27.6667 11.6667C27.6667 17.5577 22.891 22.3333 17 22.3333M27.6667 11.6667H29.4444C31.4081 11.6667 33 10.0748 33 8.11111C33 6.14743 31.4081 4.55556 29.4444 4.55556L27.6667 4.55556M17 22.3333V25.8889M17 25.8889C17 29.8162 18.406 33 22.3333 33M17 25.8889C17 29.8162 15.594 33 11.6667 33M22.3333 33H11.6667M22.3333 33H24.1111M11.6667 33H9.88889" stroke="#282828" stroke-width="2" stroke-linecap="round"/>
<path d="M6.33333 4.55556V11.6667M6.33333 4.55556C6.33333 2.59188 7.92521 1 9.88889 1H24.1111C26.0748 1 27.6667 2.59188 27.6667 4.55556M6.33333 4.55556H4.55556C2.59188 4.55556 1 6.14743 1 8.11111C1 10.0748 2.59188 11.6667 4.55556 11.6667H6.33333M6.33333 11.6667C6.33333 17.5577 11.109 22.3333 17 22.3333M27.6667 11.6667V4.55556M27.6667 11.6667C27.6667 17.5577 22.891 22.3333 17 22.3333M27.6667 11.6667H29.4444C31.4081 11.6667 33 10.0748 33 8.11111C33 6.14743 31.4081 4.55556 29.4444 4.55556L27.6667 4.55556M17 22.3333V25.8889M17 25.8889C17 29.8162 18.406 33 22.3333 33M17 25.8889C17 29.8162 15.594 33 11.6667 33M22.3333 33H11.6667M22.3333 33H24.1111M11.6667 33H9.88889" stroke="url(#paint0_linear_31_98)" stroke-width="2" stroke-linecap="round"/>
<defs>
<linearGradient id="paint0_linear_31_98" x1="1" y1="1" x2="33" y2="33" gradientUnits="userSpaceOnUse">
<stop stop-color="#C10046"/>
<stop offset="1" stop-color="#D752B3"/>
</linearGradient>
</defs>
</svg>
