<svg width="42" height="42" viewBox="0 0 42 42" fill="none" xmlns="http://www.w3.org/2000/svg">
<path d="M37.8352 15.4327L37.035 16.0323L37.0403 16.0394L37.0456 16.0463L37.8352 15.4327ZM36.7912 12.8204L37.7825 12.6883L37.7808 12.6766L36.7912 12.8204ZM36.2692 9.22857L35.2785 9.3651L35.2796 9.3724L36.2692 9.22857ZM32.5498 5.50612L32.7143 4.51975L32.7041 4.51805L32.6938 4.51655L32.5498 5.50612ZM28.9608 4.98367L29.1049 3.9941L29.1024 3.99374L28.9608 4.98367ZM26.3507 3.93878L25.7534 4.74078L25.7742 4.75624L25.7957 4.77062L26.3507 3.93878ZM23.5449 1.84898L22.9445 2.64875L22.9475 2.65098L23.5449 1.84898ZM18.3246 1.84898L18.9249 2.64874L18.3246 1.84898ZM15.4535 4.00408L14.8532 3.20432L15.4535 4.00408ZM12.8434 5.04898L12.7111 4.05777L12.7039 4.05873L12.6967 4.05979L12.8434 5.04898ZM9.31974 5.57143L9.45649 6.56208L9.46641 6.56062L9.31974 5.57143ZM5.60033 9.29388L4.61391 9.12961L4.61221 9.13982L4.61072 9.15005L5.60033 9.29388ZM5.0783 12.8857L4.0887 12.7419L4.08834 12.7444L5.0783 12.8857ZM4.03426 15.498L4.83449 16.0976L4.85113 16.0754L4.86652 16.0523L4.03426 15.498ZM1.88091 18.3714L2.68115 18.9711H2.68115L1.88091 18.3714ZM1.88091 23.5959L2.68115 22.9962L2.67499 22.988L2.66866 22.9799L1.88091 23.5959ZM4.03426 26.4694L4.83449 25.8697L4.03426 26.4694ZM5.0783 29.0816L4.08699 29.2137L4.0887 29.2255L5.0783 29.0816ZM5.60033 32.6735L6.59099 32.5369L6.58993 32.5296L5.60033 32.6735ZM9.31974 36.3959L9.15521 37.3823L9.16543 37.384L9.17568 37.3855L9.31974 36.3959ZM12.9086 36.9184L12.7646 37.9079L12.7671 37.9083L12.9086 36.9184ZM15.5188 37.9633L16.1191 37.1635L16.0969 37.1468L16.0738 37.1314L15.5188 37.9633ZM18.3899 40.1184L18.9902 39.3186L18.3899 40.1184ZM23.6101 40.1184L23.0098 39.3186L23.0016 39.3248L22.9935 39.3311L23.6101 40.1184ZM26.4812 37.9633L27.0816 38.763L26.4812 37.9633ZM29.0914 36.9184L29.2236 37.9096L29.2354 37.9079L29.0914 36.9184ZM32.6803 36.3959L32.5435 35.4053L32.5362 35.4063L32.6803 36.3959ZM36.3997 32.6735L37.3861 32.8377L37.3878 32.8275L37.3893 32.8173L36.3997 32.6735ZM36.9217 29.0816L37.9113 29.2255L37.9117 29.2229L36.9217 29.0816ZM37.9657 26.4694L37.1655 25.8697L37.1489 25.8919L37.1335 25.915L37.9657 26.4694ZM40.1191 23.5959L40.9193 24.1956L40.1191 23.5959ZM40.1191 18.3714L39.3295 18.9851L39.3313 18.9874L40.1191 18.3714ZM20.9945 16.6766L20.2407 17.3337C20.4306 17.5516 20.7055 17.6766 20.9945 17.6766C21.2835 17.6766 21.5584 17.5516 21.7483 17.3337L20.9945 16.6766ZM14.0114 22.505L14.7953 21.8842L14.0114 22.505ZM27.9777 22.505L27.1938 21.8842L27.9777 22.505ZM20.5777 28.7697L19.9217 29.5245L20.5777 28.7697ZM20.8802 28.9838L20.5992 29.9435L20.8802 28.9838ZM21.4114 28.7697L22.0673 29.5245L21.4114 28.7697ZM21.1089 28.9838L21.3898 29.9435L21.1089 28.9838ZM38.6355 14.833C38.1596 14.1979 37.8923 13.5134 37.7824 12.6884L35.7999 12.9525C35.951 14.0866 36.3363 15.1 37.035 16.0323L38.6355 14.833ZM37.7808 12.6766L37.2588 9.08475L35.2796 9.3724L35.8016 12.9642L37.7808 12.6766ZM37.2598 9.09204C36.936 6.7423 35.0809 4.9145 32.7143 4.51975L32.3852 6.49249C33.9338 6.7508 35.0803 7.92709 35.2785 9.3651L37.2598 9.09204ZM32.6938 4.51655L29.1049 3.9941L28.8168 5.97324L32.4057 6.49569L32.6938 4.51655ZM29.1024 3.99374C28.365 3.88832 27.5907 3.56393 26.9057 3.10693L25.7957 4.77062C26.6769 5.35852 27.7296 5.8178 28.8193 5.97361L29.1024 3.99374ZM26.9481 3.13678L24.1422 1.04698L22.9475 2.65098L25.7534 4.74078L26.9481 3.13678ZM24.1452 1.04921C23.1707 0.317736 22.0407 0 20.9347 0V2C21.6559 2 22.353 2.20471 22.9445 2.64874L24.1452 1.04921ZM20.9347 0C19.8288 0 18.6988 0.317735 17.7243 1.04921L18.9249 2.64874C19.5165 2.20471 20.2136 2 20.9347 2V0ZM17.7243 1.04921L14.8532 3.20432L16.0538 4.80385L18.9249 2.64874L17.7243 1.04921ZM14.8532 3.20432C14.2188 3.6805 13.5351 3.94782 12.7111 4.05777L12.9757 6.04019C14.1093 5.88892 15.1222 5.50317 16.0538 4.80385L14.8532 3.20432ZM12.6967 4.05979L9.17307 4.58224L9.46641 6.56062L12.9901 6.03817L12.6967 4.05979ZM9.18299 4.58082C6.83387 4.9051 5.00813 6.76235 4.61391 9.12961L6.58674 9.45815C6.84505 7.90704 8.02095 6.7602 9.45649 6.56204L9.18299 4.58082ZM4.61072 9.15005L4.0887 12.7419L6.06791 13.0295L6.58993 9.4377L4.61072 9.15005ZM4.08834 12.7444C3.98294 13.4828 3.65868 14.258 3.202 14.9436L4.86652 16.0523C5.45389 15.1706 5.91265 14.1172 6.06827 13.027L4.08834 12.7444ZM3.23402 14.8983L1.08068 17.7717L2.68115 18.9711L4.83449 16.0976L3.23402 14.8983ZM1.08068 17.7717C-0.354384 19.6867 -0.37023 22.3405 1.09316 24.2119L2.66866 22.9799C1.78295 21.8473 1.76711 20.1908 2.68115 18.9711L1.08068 17.7717ZM1.08068 24.1956L3.23402 27.0691L4.83449 25.8697L2.68115 22.9962L1.08068 24.1956ZM3.23402 27.0691C3.70991 27.7041 3.97715 28.3887 4.08706 29.2137L6.06955 28.9496C5.91845 27.8154 5.53315 26.802 4.83449 25.8697L3.23402 27.0691ZM4.0887 29.2255L4.61072 32.8173L6.58993 32.5296L6.06791 28.9378L4.0887 29.2255ZM4.60969 32.81C4.93353 35.1597 6.78863 36.9875 9.15521 37.3823L9.48427 35.4095C7.93568 35.1512 6.78915 33.9749 6.59096 32.5369L4.60969 32.81ZM9.17568 37.3855L12.7646 37.9079L13.0527 35.9288L9.4638 35.4063L9.17568 37.3855ZM12.7671 37.9083C13.5045 38.0137 14.2788 38.3381 14.9637 38.7951L16.0738 37.1314C15.1926 36.5435 14.1399 36.0842 13.0502 35.9284L12.7671 37.9083ZM14.9184 38.763L17.7896 40.9181L18.9902 39.3186L16.1191 37.1635L14.9184 38.763ZM17.7896 40.9181C19.7035 42.3548 22.3563 42.3706 24.2267 40.9056L22.9935 39.3311C21.8623 40.2171 20.2084 40.233 18.9902 39.3186L17.7896 40.9181ZM24.2104 40.9181L27.0816 38.763L25.8809 37.1635L23.0098 39.3186L24.2104 40.9181ZM27.0816 38.763C27.716 38.2868 28.3997 38.0195 29.2236 37.9096L28.9591 35.9272C27.8254 36.0784 26.8126 36.4642 25.8809 37.1635L27.0816 38.763ZM29.2354 37.9079L32.8243 37.3855L32.5362 35.4063L28.9473 35.9288L29.2354 37.9079ZM32.817 37.3865C35.1661 37.0622 36.9919 35.205 37.3861 32.8377L35.4133 32.5092C35.155 34.0603 33.9791 35.2071 32.5435 35.4053L32.817 37.3865ZM37.3893 32.8173L37.9113 29.2255L35.9321 28.9378L35.4101 32.5296L37.3893 32.8173ZM37.9117 29.2229C38.0171 28.4846 38.3413 27.7093 38.798 27.0238L37.1335 25.915C36.5461 26.7968 36.0873 27.8501 35.9317 28.9403L37.9117 29.2229ZM38.766 27.0691L40.9193 24.1956L39.3189 22.9962L37.1655 25.8697L38.766 27.0691ZM40.9193 24.1956C42.3544 22.2806 42.3702 19.6269 40.9068 17.7554L39.3313 18.9874C40.217 20.1201 40.2329 21.7765 39.3189 22.9962L40.9193 24.1956ZM40.9087 17.7578L38.6248 14.819L37.0456 16.0463L39.3295 18.9851L40.9087 17.7578ZM21.7483 16.0195C19.8525 13.8447 16.5712 13.1745 14.0813 15.2621L15.3662 16.7947C16.8844 15.5218 18.9376 15.8388 20.2407 17.3337L21.7483 16.0195ZM14.0813 15.2621C11.6696 17.284 11.3117 20.7068 13.2274 23.1258L14.7953 21.8842C13.5635 20.3288 13.7698 18.1331 15.3662 16.7947L14.0813 15.2621ZM28.7616 23.1258C30.6683 20.7183 30.3675 17.2681 27.8973 15.2534L26.6333 16.8033C28.24 18.1138 28.4346 20.3173 27.1938 21.8842L28.7616 23.1258ZM27.8973 15.2534C25.3834 13.2031 22.144 13.8361 20.2407 16.0195L21.7483 17.3337C23.044 15.8473 25.0702 15.5286 26.6333 16.8033L27.8973 15.2534ZM13.2274 23.1258C13.9372 24.022 15.3115 25.3567 16.619 26.5677C17.9459 27.7966 19.2693 28.9575 19.9217 29.5245L21.2336 28.0149C20.5882 27.454 19.2827 26.3087 17.978 25.1003C16.6539 23.8739 15.3941 22.6402 14.7953 21.8842L13.2274 23.1258ZM22.0673 29.5245C22.7197 28.9575 24.0431 27.7966 25.37 26.5677C26.6775 25.3567 28.0519 24.022 28.7616 23.1258L27.1938 21.8842C26.595 22.6402 25.3351 23.8739 24.011 25.1003C22.7064 26.3087 21.4008 27.454 20.7554 28.0149L22.0673 29.5245ZM19.9217 29.5245C19.9826 29.5774 20.0713 29.6554 20.1574 29.719C20.2555 29.7915 20.402 29.8858 20.5992 29.9435L21.1611 28.024C21.2151 28.0399 21.26 28.06 21.2941 28.0784C21.3257 28.0956 21.3443 28.1093 21.3459 28.1105C21.3469 28.1113 21.3399 28.106 21.3185 28.0881C21.2971 28.07 21.2716 28.0479 21.2336 28.0149L19.9217 29.5245ZM20.7554 28.0149C20.7174 28.0479 20.692 28.07 20.6705 28.0881C20.6492 28.106 20.6421 28.1113 20.6432 28.1105C20.6448 28.1093 20.6633 28.0956 20.695 28.0784C20.729 28.06 20.7739 28.0399 20.8279 28.024L21.3898 29.9435C21.587 29.8858 21.7336 29.7915 21.8317 29.719C21.9178 29.6554 22.0065 29.5774 22.0673 29.5245L20.7554 28.0149ZM20.5992 29.9435C20.8566 30.0188 21.1325 30.0188 21.3898 29.9435L20.8279 28.024C20.9375 27.992 21.0516 27.992 21.1611 28.024L20.5992 29.9435Z" fill="url(#paint0_linear_31_224)"/>
<defs>
<linearGradient id="paint0_linear_31_224" x1="1" y1="1" x2="41" y2="41" gradientUnits="userSpaceOnUse">
<stop stop-color="#C10046"/>
<stop offset="1" stop-color="#D752B3"/>
</linearGradient>
</defs>
</svg>
