<svg width="34" height="34" viewBox="0 0 34 34" fill="none" xmlns="http://www.w3.org/2000/svg">
<path d="M31.7143 14.4807C31.7143 13.9285 31.2666 13.4807 30.7143 13.4807C30.162 13.4807 29.7143 13.9285 29.7143 14.4807H31.7143ZM4.28571 14.472C4.28571 13.9198 3.838 13.472 3.28571 13.472C2.73343 13.472 2.28571 13.9198 2.28571 14.472H4.28571ZM5.22708 32.6329L5.66179 31.7323L5.22708 32.6329ZM3.67325 31.1608L4.55395 30.6871L4.55395 30.6871L3.67325 31.1608ZM30.3268 31.1608L29.4461 30.6871L29.4461 30.6871L30.3268 31.1608ZM28.7729 32.6329L28.3382 31.7323H28.3382L28.7729 32.6329ZM5.56734 15.4807C6.11962 15.483 6.56916 15.0371 6.57142 14.4848C6.57368 13.9325 6.12779 13.483 5.57551 13.4807L5.56734 15.4807ZM3.84444 14.4737L3.84853 13.4737H3.84444V14.4737ZM30.1556 14.4737L30.2026 13.4748L30.1791 13.4737H30.1556V14.4737ZM28.4286 13.4737C27.8763 13.4737 27.4286 13.9214 27.4286 14.4737C27.4286 15.026 27.8763 15.4737 28.4286 15.4737V13.4737ZM1.19377 13.5541L0.313064 14.0278L1.19377 13.5541ZM1.97068 14.2901L2.4054 13.3895H2.4054L1.97068 14.2901ZM32.8062 13.5541L31.9255 13.0804V13.0804L32.8062 13.5541ZM32.0293 14.2901L32.464 15.1907L32.464 15.1907L32.0293 14.2901ZM32.0293 7.92041L32.464 7.01984L32.464 7.01984L32.0293 7.92041ZM32.8062 8.65644L31.9255 9.13011V9.13011L32.8062 8.65644ZM1.97068 7.92041L1.53597 7.01984H1.53597L1.97068 7.92041ZM1.19377 8.65644L0.313064 8.18277L0.313064 8.18277L1.19377 8.65644ZM23.5771 6.89135C23.1102 7.18627 22.9707 7.80388 23.2656 8.27083C23.5605 8.73779 24.1782 8.87725 24.6451 8.58233L23.5771 6.89135ZM9.3549 8.58233C9.82185 8.87725 10.4395 8.73779 10.7344 8.27083C11.0293 7.80388 10.8898 7.18627 10.4229 6.89135L9.3549 8.58233ZM23.1111 17.8421C23.1111 18.3944 23.5588 18.8421 24.1111 18.8421C24.6634 18.8421 25.1111 18.3944 25.1111 17.8421H23.1111ZM8.88889 17.8421C8.88889 18.3944 9.3366 18.8421 9.88889 18.8421C10.4412 18.8421 10.8889 18.3944 10.8889 17.8421H8.88889ZM16 33C16 33.5523 16.4477 34 17 34C17.5523 34 18 33.5523 18 33H16ZM18 14.4737C18 13.9214 17.5523 13.4737 17 13.4737C16.4477 13.4737 16 13.9214 16 14.4737H18ZM29.7143 14.4807V27.6105H31.7143V14.4807H29.7143ZM25.5333 32H8.9746V34H25.5333V32ZM4.28571 27.6105V14.472H2.28571V27.6105H4.28571ZM8.9746 32C7.96331 32 7.26184 31.9993 6.71649 31.9571C6.18133 31.9157 5.8825 31.8388 5.66179 31.7323L4.79237 33.5334C5.33224 33.794 5.91152 33.9008 6.56215 33.9511C7.2026 34.0007 7.9946 34 8.9746 34V32ZM2.28571 27.6105C2.28571 28.5364 2.28485 29.2942 2.33785 29.9088C2.39201 30.5368 2.50782 31.1051 2.79254 31.6345L4.55395 30.6871C4.45114 30.496 4.37318 30.2324 4.33046 29.737C4.28658 29.2282 4.28571 28.5712 4.28571 27.6105H2.28571ZM5.66179 31.7323C5.17618 31.4979 4.79152 31.1289 4.55395 30.6871L2.79254 31.6345C3.23674 32.4604 3.93994 33.122 4.79237 33.5334L5.66179 31.7323ZM29.7143 27.6105C29.7143 28.5712 29.7134 29.2282 29.6695 29.737C29.6268 30.2324 29.5489 30.496 29.4461 30.6871L31.2075 31.6345C31.4922 31.1051 31.608 30.5368 31.6621 29.9088C31.7152 29.2942 31.7143 28.5364 31.7143 27.6105H29.7143ZM25.5333 34C27.4545 34 28.199 34.0203 29.2076 33.5334L28.3382 31.7323C27.8257 31.9797 27.5948 32 25.5333 32V34ZM29.4461 30.6871C29.2085 31.1289 28.8238 31.4979 28.3382 31.7323L29.2076 33.5334C30.0601 33.122 30.7633 32.4604 31.2075 31.6345L29.4461 30.6871ZM3.84444 8.73684H30.1556V6.73684H3.84444V8.73684ZM32 10.4316V11.7789H34V10.4316H32ZM2 11.7789V10.4316H0V11.7789H2ZM5.57551 13.4807L3.84853 13.4737L3.84036 15.4737L5.56734 15.4807L5.57551 13.4807ZM30.1556 13.4737H28.4286V15.4737H30.1556V13.4737ZM0 11.7789C0 12.2332 -0.000865817 12.6373 0.0279191 12.9711C0.0578567 13.3182 0.125227 13.6785 0.313064 14.0278L2.07447 13.0804C2.06854 13.0694 2.03903 13.0138 2.02052 12.7992C2.00087 12.5713 2 12.268 2 11.7789H0ZM3.84444 13.4737C3.33098 13.4737 3.00287 13.473 2.75398 13.4537C2.51526 13.4352 2.43596 13.4043 2.4054 13.3895L1.53597 15.1907C1.8857 15.3595 2.24545 15.4203 2.59963 15.4478C2.94363 15.4744 3.36226 15.4737 3.84444 15.4737V13.4737ZM0.313064 14.0278C0.586817 14.5368 1.01805 14.9407 1.53597 15.1907L2.4054 13.3895C2.2543 13.3166 2.1416 13.2052 2.07447 13.0804L0.313064 14.0278ZM32 11.7789C32 12.268 31.9991 12.5713 31.9795 12.7992C31.961 13.0138 31.9315 13.0694 31.9255 13.0804L33.6869 14.0278C33.8748 13.6785 33.9421 13.3182 33.9721 12.9711C34.0009 12.6373 34 12.2332 34 11.7789H32ZM30.1085 15.4726C30.4225 15.4874 30.8369 15.4875 31.2339 15.4578C31.5824 15.4318 32.0851 15.3736 32.464 15.1907L31.5946 13.3895C31.6165 13.379 31.5872 13.3954 31.4718 13.4168C31.3687 13.436 31.2371 13.452 31.0848 13.4634C30.7797 13.4862 30.4473 13.4863 30.2026 13.4748L30.1085 15.4726ZM31.9255 13.0804C31.8584 13.2052 31.7457 13.3166 31.5946 13.3895L32.464 15.1907C32.982 14.9407 33.4132 14.5368 33.6869 14.0278L31.9255 13.0804ZM30.1556 8.73684C30.669 8.73684 30.9971 8.73754 31.246 8.75681C31.4847 8.77528 31.564 8.80623 31.5946 8.82098L32.464 7.01984C32.1143 6.85102 31.7546 6.79018 31.4004 6.76277C31.0564 6.73614 30.6377 6.73684 30.1556 6.73684V8.73684ZM34 10.4316C34 9.97736 34.0009 9.57324 33.9721 9.23947C33.9421 8.89234 33.8748 8.53202 33.6869 8.18277L31.9255 9.13011C31.9315 9.14113 31.961 9.19676 31.9795 9.41131C31.9991 9.63924 32 9.94255 32 10.4316H34ZM31.5946 8.82098C31.7457 8.89392 31.8584 9.00529 31.9255 9.13011L33.6869 8.18277C33.4132 7.67377 32.982 7.26985 32.464 7.01984L31.5946 8.82098ZM3.84444 6.73684C3.36226 6.73684 2.94363 6.73614 2.59963 6.76277C2.24545 6.79018 1.8857 6.85102 1.53597 7.01984L2.4054 8.82098C2.43596 8.80623 2.51526 8.77528 2.75398 8.75681C3.00287 8.73754 3.33098 8.73684 3.84444 8.73684V6.73684ZM2 10.4316C2 9.94255 2.00087 9.63924 2.02052 9.41132C2.03903 9.19676 2.06854 9.14113 2.07447 9.13011L0.313064 8.18277C0.125227 8.53202 0.0578567 8.89233 0.0279191 9.23947C-0.000865817 9.57324 0 9.97736 0 10.4316H2ZM1.53597 7.01984C1.01805 7.26985 0.586817 7.67377 0.313064 8.18277L2.07447 9.13011C2.1416 9.00529 2.2543 8.89392 2.4054 8.82098L1.53597 7.01984ZM17.9298 8.10489C18.3419 7.06393 19.177 5.4837 20.3097 4.18304C21.4617 2.86011 22.7651 2 24.1111 2V0C21.9015 0 20.0938 1.38551 18.8014 2.86959C17.4896 4.37595 16.547 6.16414 16.0702 7.36879L17.9298 8.10489ZM24.1111 2C25.6566 2 26.3588 2.70565 26.4596 3.27853C26.5699 3.90552 26.164 5.25756 23.5771 6.89135L24.6451 8.58233C27.3916 6.8477 28.7635 4.83132 28.4293 2.932C28.0857 0.978557 26.1211 0 24.1111 0V2ZM17.9298 7.36879C17.453 6.16414 16.5104 4.37595 15.1986 2.86959C13.9062 1.38551 12.0985 0 9.88889 0V2C11.2349 2 12.5383 2.86011 13.6903 4.18304C14.823 5.4837 15.6581 7.06393 16.0702 8.10489L17.9298 7.36879ZM9.88889 0C7.87886 0 5.91434 0.978557 5.57068 2.932C5.23654 4.83132 6.6084 6.8477 9.3549 8.58233L10.4229 6.89135C7.83604 5.25756 7.43013 3.90552 7.54043 3.27853C7.64121 2.70565 8.34336 2 9.88889 2V0ZM16.6045 8.6553C18.2284 9.35459 19.8252 10.127 21.0375 11.4618C22.217 12.7604 23.1111 14.6845 23.1111 17.8421H25.1111C25.1111 14.2629 24.0793 11.8361 22.518 10.1171C20.9896 8.43438 19.0309 7.52261 17.3955 6.81838L16.6045 8.6553ZM16.6045 6.81838C14.9691 7.52261 13.0104 8.43438 11.482 10.1171C9.92067 11.8361 8.88889 14.2629 8.88889 17.8421H10.8889C10.8889 14.6845 11.783 12.7604 12.9625 11.4618C14.1748 10.127 15.7716 9.35459 17.3955 8.6553L16.6045 6.81838ZM18 33V14.4737H16V33H18Z" fill="url(#paint0_linear_31_95)"/>
<defs>
<linearGradient id="paint0_linear_31_95" x1="1" y1="1" x2="33" y2="33" gradientUnits="userSpaceOnUse">
<stop stop-color="#C10046"/>
<stop offset="1" stop-color="#D752B3"/>
</linearGradient>
</defs>
</svg>
