<svg width="48" height="42" viewBox="0 0 48 42" fill="none" xmlns="http://www.w3.org/2000/svg">
<path fill-rule="evenodd" clip-rule="evenodd" d="M23.9842 6.28231C19.3857 1.18406 11.7174 -0.187356 5.9558 4.48112C0.194181 9.14959 -0.616974 16.955 3.90766 22.4765C7.66958 27.0672 19.0545 36.7493 22.7858 39.883C23.2033 40.2336 23.412 40.4089 23.6555 40.4778C23.868 40.5379 24.1005 40.5379 24.313 40.4778C24.5565 40.4089 24.7652 40.2336 25.1827 39.883C28.914 36.7493 40.2989 27.0672 44.0608 22.4765C48.5855 16.955 47.8733 9.10048 42.0127 4.48112C36.152 -0.138249 28.5828 1.18406 23.9842 6.28231Z" stroke="black" stroke-width="2" stroke-linecap="round" stroke-linejoin="round"/>
<path fill-rule="evenodd" clip-rule="evenodd" d="M23.9842 6.28231C19.3857 1.18406 11.7174 -0.187356 5.9558 4.48112C0.194181 9.14959 -0.616974 16.955 3.90766 22.4765C7.66958 27.0672 19.0545 36.7493 22.7858 39.883C23.2033 40.2336 23.412 40.4089 23.6555 40.4778C23.868 40.5379 24.1005 40.5379 24.313 40.4778C24.5565 40.4089 24.7652 40.2336 25.1827 39.883C28.914 36.7493 40.2989 27.0672 44.0608 22.4765C48.5855 16.955 47.8733 9.10048 42.0127 4.48112C36.152 -0.138249 28.5828 1.18406 23.9842 6.28231Z" stroke="url(#paint0_linear_121_390)" stroke-width="2" stroke-linecap="round" stroke-linejoin="round"/>
<defs>
<linearGradient id="paint0_linear_121_390" x1="1" y1="1.62378" x2="39.3586" y2="46.9847" gradientUnits="userSpaceOnUse">
<stop stop-color="#C10046"/>
<stop offset="1" stop-color="#D752B3"/>
</linearGradient>
</defs>
</svg>
