<svg width="12" height="14" viewBox="0 0 12 14" fill="none" xmlns="http://www.w3.org/2000/svg">
<path fill-rule="evenodd" clip-rule="evenodd" d="M6 13.2998L6.531 13.794C6.46132 13.8593 6.37851 13.9111 6.28732 13.9465C6.19613 13.9818 6.09837 14 5.99963 14C5.90089 14 5.80312 13.9818 5.71193 13.9465C5.62074 13.9111 5.53793 13.8593 5.46825 13.794L5.46375 13.7891L5.451 13.7772L5.4045 13.7331C5.14012 13.4789 4.88008 13.2208 4.6245 12.9589C3.9828 12.3027 3.36835 11.6236 2.7825 10.9233C2.1135 10.1184 1.4295 9.20837 0.90975 8.30958C0.40125 7.42829 0 6.47351 0 5.59992C0 2.42266 2.694 0 6 0C9.306 0 12 2.42266 12 5.59992C12 6.47351 11.5988 7.42829 11.0903 8.30888C10.5705 9.20907 9.88725 10.1184 9.2175 10.9233C8.39804 11.9031 7.52277 12.841 6.5955 13.7331L6.549 13.7772L6.53625 13.7891L6.53175 13.7933L6 13.2998ZM6 7.69989C6.59674 7.69989 7.16903 7.47864 7.59099 7.08482C8.01295 6.691 8.25 6.15687 8.25 5.59992C8.25 5.04297 8.01295 4.50884 7.59099 4.11502C7.16903 3.7212 6.59674 3.49995 6 3.49995C5.40326 3.49995 4.83097 3.7212 4.40901 4.11502C3.98705 4.50884 3.75 5.04297 3.75 5.59992C3.75 6.15687 3.98705 6.691 4.40901 7.08482C4.83097 7.47864 5.40326 7.69989 6 7.69989Z" fill="white"/>
<path fill-rule="evenodd" clip-rule="evenodd" d="M6 13.2998L6.531 13.794C6.46132 13.8593 6.37851 13.9111 6.28732 13.9465C6.19613 13.9818 6.09837 14 5.99963 14C5.90089 14 5.80312 13.9818 5.71193 13.9465C5.62074 13.9111 5.53793 13.8593 5.46825 13.794L5.46375 13.7891L5.451 13.7772L5.4045 13.7331C5.14012 13.4789 4.88008 13.2208 4.6245 12.9589C3.9828 12.3027 3.36835 11.6236 2.7825 10.9233C2.1135 10.1184 1.4295 9.20837 0.90975 8.30958C0.40125 7.42829 0 6.47351 0 5.59992C0 2.42266 2.694 0 6 0C9.306 0 12 2.42266 12 5.59992C12 6.47351 11.5988 7.42829 11.0903 8.30888C10.5705 9.20907 9.88725 10.1184 9.2175 10.9233C8.39804 11.9031 7.52277 12.841 6.5955 13.7331L6.549 13.7772L6.53625 13.7891L6.53175 13.7933L6 13.2998ZM6 7.69989C6.59674 7.69989 7.16903 7.47864 7.59099 7.08482C8.01295 6.691 8.25 6.15687 8.25 5.59992C8.25 5.04297 8.01295 4.50884 7.59099 4.11502C7.16903 3.7212 6.59674 3.49995 6 3.49995C5.40326 3.49995 4.83097 3.7212 4.40901 4.11502C3.98705 4.50884 3.75 5.04297 3.75 5.59992C3.75 6.15687 3.98705 6.691 4.40901 7.08482C4.83097 7.47864 5.40326 7.69989 6 7.69989Z" fill="url(#paint0_linear_192_12)"/>
<defs>
<linearGradient id="paint0_linear_192_12" x1="0" y1="0" x2="12.9329" y2="0.623552" gradientUnits="userSpaceOnUse">
<stop stop-color="#C10046"/>
<stop offset="1" stop-color="#D752B3"/>
</linearGradient>
</defs>
</svg>
