<svg width="40" height="49" viewBox="0 0 40 49" fill="none" xmlns="http://www.w3.org/2000/svg">
<path fill-rule="evenodd" clip-rule="evenodd" d="M5.85823 5.9447C9.6089 2.13837 14.696 0 20.0002 0C25.3045 0 30.3915 2.13837 34.1422 5.9447C37.8929 9.75102 40 14.9135 40 20.2965C40 25.6794 37.8929 30.8419 34.1422 34.6482L20.0002 49L5.85823 34.6482C4.00096 32.7636 2.52767 30.5262 1.52251 28.0637C0.517354 25.6012 0 22.9619 0 20.2965C0 17.6311 0.517354 14.9918 1.52251 12.5293C2.52767 10.0668 4.00096 7.82933 5.85823 5.9447Z" fill="black"/>
<path fill-rule="evenodd" clip-rule="evenodd" d="M5.85823 5.9447C9.6089 2.13837 14.696 0 20.0002 0C25.3045 0 30.3915 2.13837 34.1422 5.9447C37.8929 9.75102 40 14.9135 40 20.2965C40 25.6794 37.8929 30.8419 34.1422 34.6482L20.0002 49L5.85823 34.6482C4.00096 32.7636 2.52767 30.5262 1.52251 28.0637C0.517354 25.6012 0 22.9619 0 20.2965C0 17.6311 0.517354 14.9918 1.52251 12.5293C2.52767 10.0668 4.00096 7.82933 5.85823 5.9447Z" fill="url(#paint0_linear_80_475)"/>
<path fill-rule="evenodd" clip-rule="evenodd" d="M15.3333 18H24.6667L27 21.7389L20.3889 28.8429C20.2865 28.9434 20.1463 29 20 29C19.8537 29 19.7135 28.9434 19.6111 28.8429L13 21.7389L15.3333 18Z" fill="#282828"/>
<defs>
<linearGradient id="paint0_linear_80_475" x1="0" y1="0" x2="43.1191" y2="1.97996" gradientUnits="userSpaceOnUse">
<stop stop-color="#C10046"/>
<stop offset="1" stop-color="#D752B3"/>
</linearGradient>
</defs>
</svg>
