<svg width="42" height="42" viewBox="0 0 42 42" fill="none" xmlns="http://www.w3.org/2000/svg">
<path d="M9.88889 11.7748L20.2143 1.32922C20.6482 0.890258 21.3518 0.890258 21.7857 1.32922L32.1111 11.7748M1 20.7672L21 41M12.1111 30.8836L18.7153 23.8685C19.1526 23.4039 19.885 23.4033 20.3232 23.8672L35.4444 39.876M34.3333 20.7672C34.3333 22.0088 33.3384 23.0153 32.1111 23.0153C30.8838 23.0153 29.8889 22.0088 29.8889 20.7672C29.8889 19.5256 30.8838 18.5191 32.1111 18.5191C33.3384 18.5191 34.3333 19.5256 34.3333 20.7672ZM8.11111 41H33.8889C36.378 41 37.6226 41 38.5733 40.5099C39.4096 40.0789 40.0895 39.3911 40.5156 38.545C41 37.5833 41 36.3242 41 33.8061V18.9687C41 16.4506 41 15.1916 40.5156 14.2298C40.0895 13.3838 39.4096 12.696 38.5733 12.2649C37.6226 11.7748 36.378 11.7748 33.8889 11.7748H8.11111C5.62199 11.7748 4.37743 11.7748 3.42671 12.2649C2.59043 12.696 1.91052 13.3838 1.48442 14.2298C1 15.1916 1 16.4506 1 18.9687V33.8061C1 36.3242 1 37.5833 1.48442 38.545C1.91052 39.3911 2.59043 40.0789 3.42671 40.5099C4.37743 41 5.62199 41 8.11111 41Z" stroke="#111111" stroke-width="2" stroke-linecap="round"/>
<path d="M9.88889 11.7748L20.2143 1.32922C20.6482 0.890258 21.3518 0.890258 21.7857 1.32922L32.1111 11.7748M1 20.7672L21 41M12.1111 30.8836L18.7153 23.8685C19.1526 23.4039 19.885 23.4033 20.3232 23.8672L35.4444 39.876M34.3333 20.7672C34.3333 22.0088 33.3384 23.0153 32.1111 23.0153C30.8838 23.0153 29.8889 22.0088 29.8889 20.7672C29.8889 19.5256 30.8838 18.5191 32.1111 18.5191C33.3384 18.5191 34.3333 19.5256 34.3333 20.7672ZM8.11111 41H33.8889C36.378 41 37.6226 41 38.5733 40.5099C39.4096 40.0789 40.0895 39.3911 40.5156 38.545C41 37.5833 41 36.3242 41 33.8061V18.9687C41 16.4506 41 15.1916 40.5156 14.2298C40.0895 13.3838 39.4096 12.696 38.5733 12.2649C37.6226 11.7748 36.378 11.7748 33.8889 11.7748H8.11111C5.62199 11.7748 4.37743 11.7748 3.42671 12.2649C2.59043 12.696 1.91052 13.3838 1.48442 14.2298C1 15.1916 1 16.4506 1 18.9687V33.8061C1 36.3242 1 37.5833 1.48442 38.545C1.91052 39.3911 2.59043 40.0789 3.42671 40.5099C4.37743 41 5.62199 41 8.11111 41Z" stroke="url(#paint0_linear_31_289)" stroke-width="2" stroke-linecap="round"/>
<defs>
<linearGradient id="paint0_linear_31_289" x1="1" y1="1" x2="41" y2="41" gradientUnits="userSpaceOnUse">
<stop stop-color="#C10046"/>
<stop offset="1" stop-color="#D752B3"/>
</linearGradient>
</defs>
</svg>
