<svg width="34" height="34" viewBox="0 0 34 34" fill="none" xmlns="http://www.w3.org/2000/svg">
<path d="M22.3333 17L15.8508 23.4826C15.5036 23.8297 14.9408 23.8297 14.5937 23.4826L11.6667 20.5556M11.6667 4.55556H6.68889C4.69759 4.55556 3.70194 4.55556 2.94137 4.94309C2.27235 5.28397 1.72842 5.8279 1.38753 6.49692C1 7.2575 1 8.25315 1 10.2444V27.3111C1 29.3024 1 30.2981 1.38753 31.0586C1.72842 31.7277 2.27235 32.2716 2.94137 32.6125C3.70194 33 4.69759 33 6.68889 33H27.3111C29.3024 33 30.2981 33 31.0586 32.6125C31.7277 32.2716 32.2716 31.7277 32.6125 31.0586C33 30.2981 33 29.3024 33 27.3111V10.2444C33 8.25315 33 7.2575 32.6125 6.49692C32.2716 5.8279 31.7277 5.28397 31.0586 4.94309C30.2981 4.55556 29.3024 4.55556 27.3111 4.55556H22.3333M11.6667 4.55556H22.3333M11.6667 4.55556V3.66667C11.6667 2.19391 10.4728 1 9 1C7.52724 1 6.33333 2.19391 6.33333 3.66667V4.55556M22.3333 4.55556V3.66667C22.3333 2.19391 23.5272 1 25 1C26.4728 1 27.6667 2.19391 27.6667 3.66667V4.55556" stroke="#282828" stroke-width="2" stroke-linecap="round"/>
<path d="M22.3333 17L15.8508 23.4826C15.5036 23.8297 14.9408 23.8297 14.5937 23.4826L11.6667 20.5556M11.6667 4.55556H6.68889C4.69759 4.55556 3.70194 4.55556 2.94137 4.94309C2.27235 5.28397 1.72842 5.8279 1.38753 6.49692C1 7.2575 1 8.25315 1 10.2444V27.3111C1 29.3024 1 30.2981 1.38753 31.0586C1.72842 31.7277 2.27235 32.2716 2.94137 32.6125C3.70194 33 4.69759 33 6.68889 33H27.3111C29.3024 33 30.2981 33 31.0586 32.6125C31.7277 32.2716 32.2716 31.7277 32.6125 31.0586C33 30.2981 33 29.3024 33 27.3111V10.2444C33 8.25315 33 7.2575 32.6125 6.49692C32.2716 5.8279 31.7277 5.28397 31.0586 4.94309C30.2981 4.55556 29.3024 4.55556 27.3111 4.55556H22.3333M11.6667 4.55556H22.3333M11.6667 4.55556V3.66667C11.6667 2.19391 10.4728 1 9 1C7.52724 1 6.33333 2.19391 6.33333 3.66667V4.55556M22.3333 4.55556V3.66667C22.3333 2.19391 23.5272 1 25 1C26.4728 1 27.6667 2.19391 27.6667 3.66667V4.55556" stroke="url(#paint0_linear_31_92)" stroke-width="2" stroke-linecap="round"/>
<defs>
<linearGradient id="paint0_linear_31_92" x1="1" y1="1" x2="33" y2="33" gradientUnits="userSpaceOnUse">
<stop stop-color="#C10046"/>
<stop offset="1" stop-color="#D752B3"/>
</linearGradient>
</defs>
</svg>
