<svg width="14" height="14" viewBox="0 0 14 14" fill="none" xmlns="http://www.w3.org/2000/svg">
<path d="M14 0.49595L11.7855 13.4172C11.7855 13.4172 11.4756 14.313 10.6244 13.8834L5.51495 9.34918L5.49126 9.33582C6.18143 8.61856 11.5333 3.04925 11.7673 2.79681C12.1294 2.40583 11.9046 2.17307 11.4841 2.46841L3.57869 8.27892L0.528786 7.09122C0.528786 7.09122 0.0488212 6.89362 0.00264736 6.46397C-0.044134 6.03361 0.544582 5.80086 0.544582 5.80086L12.9781 0.155604C12.9781 0.155604 14 -0.364058 14 0.49595Z" fill="white"/>
<path d="M14 0.49595L11.7855 13.4172C11.7855 13.4172 11.4756 14.313 10.6244 13.8834L5.51495 9.34918L5.49126 9.33582C6.18143 8.61856 11.5333 3.04925 11.7673 2.79681C12.1294 2.40583 11.9046 2.17307 11.4841 2.46841L3.57869 8.27892L0.528786 7.09122C0.528786 7.09122 0.0488212 6.89362 0.00264736 6.46397C-0.044134 6.03361 0.544582 5.80086 0.544582 5.80086L12.9781 0.155604C12.9781 0.155604 14 -0.364058 14 0.49595Z" fill="url(#paint0_linear_182_3799)"/>
<defs>
<linearGradient id="paint0_linear_182_3799" x1="0" y1="0" x2="15.0758" y2="0.848014" gradientUnits="userSpaceOnUse">
<stop stop-color="#C10046"/>
<stop offset="1" stop-color="#D752B3"/>
</linearGradient>
</defs>
</svg>
