<svg width="33" height="34" viewBox="0 0 33 34" fill="none" xmlns="http://www.w3.org/2000/svg">
<path d="M8.29412 14.9958V30.9909C8.29412 32.0951 7.4777 32.9903 6.47059 32.9903H2.82353C1.81642 32.9903 1 32.0951 1 30.9909V16.9951C1 15.8909 1.81642 14.9958 2.82353 14.9958H8.29412C12.3225 14.9958 15.5882 11.4151 15.5882 6.99818V4.99879C15.5882 2.79032 17.2211 1 19.2353 1C21.2495 1 22.8824 2.79032 22.8824 4.99879V14.9958H28.3529C30.3672 14.9958 32 16.7861 32 18.9945L30.1765 28.9915C29.6377 31.5113 28.1508 33.1415 26.5294 32.9903H13.7647C10.7434 32.9903 8.29412 30.3048 8.29412 26.9921" stroke="#282828" stroke-width="2" stroke-linecap="round" stroke-linejoin="round"/>
<path d="M8.29412 14.9958V30.9909C8.29412 32.0951 7.4777 32.9903 6.47059 32.9903H2.82353C1.81642 32.9903 1 32.0951 1 30.9909V16.9951C1 15.8909 1.81642 14.9958 2.82353 14.9958H8.29412C12.3225 14.9958 15.5882 11.4151 15.5882 6.99818V4.99879C15.5882 2.79032 17.2211 1 19.2353 1C21.2495 1 22.8824 2.79032 22.8824 4.99879V14.9958H28.3529C30.3672 14.9958 32 16.7861 32 18.9945L30.1765 28.9915C29.6377 31.5113 28.1508 33.1415 26.5294 32.9903H13.7647C10.7434 32.9903 8.29412 30.3048 8.29412 26.9921" stroke="url(#paint0_linear_31_89)" stroke-width="2" stroke-linecap="round" stroke-linejoin="round"/>
<defs>
<linearGradient id="paint0_linear_31_89" x1="1" y1="1" x2="32.9839" y2="31.9844" gradientUnits="userSpaceOnUse">
<stop stop-color="#C10046"/>
<stop offset="1" stop-color="#D752B3"/>
</linearGradient>
</defs>
</svg>
