<svg width="40" height="41" viewBox="0 0 40 41" fill="none" xmlns="http://www.w3.org/2000/svg">
<rect y="0.5" width="40" height="40" rx="20" fill="#7C509A"/>
<path d="M26.2539 10.0459C22.4424 9.31803 18.4843 9.31803 14.6728 10.0459C12.9869 10.4099 10.8613 12.4479 10.4948 14.0493C9.83508 17.1792 9.83508 20.3819 10.4948 23.5118C10.9346 25.1131 13.0602 27.1512 14.6728 27.5152C14.7461 27.5152 14.8194 27.5879 14.8194 27.6607V32.2464C14.8194 32.4648 15.1126 32.6103 15.2592 32.392L17.4581 30.1355C17.4581 30.1355 19.2173 28.3158 19.5105 28.0247C19.5105 28.0247 19.5838 27.9519 19.6571 27.9519C21.856 28.0247 24.1283 27.8063 26.3272 27.4424C28.0131 27.0784 30.1387 25.0403 30.5052 23.439C31.1649 20.3091 31.1649 17.1064 30.5052 13.9765C30.0654 12.4479 27.9398 10.4099 26.2539 10.0459ZM26.3272 23.7302C25.9607 24.458 25.5209 25.0403 24.788 25.4043C24.5681 25.4771 24.3482 25.5499 24.1283 25.6227C23.8351 25.5499 23.6152 25.4771 23.3953 25.4043C21.0497 24.458 18.8508 23.1478 17.0916 21.2553C16.1387 20.1635 15.3325 18.9261 14.6728 17.6159C14.3796 16.9608 14.0864 16.3785 13.8665 15.7234C13.6466 15.1411 14.0131 14.5588 14.3796 14.1221C14.7461 13.6853 15.1859 13.3942 15.699 13.1758C16.0654 12.9575 16.4319 13.103 16.7251 13.3942C17.3115 14.1221 17.8979 14.85 18.3377 15.6506C18.6309 16.1601 18.5576 16.7425 18.0445 17.1064C17.8979 17.1792 17.8246 17.252 17.678 17.3976C17.6047 17.4703 17.4581 17.5431 17.3848 17.6887C17.2382 17.9071 17.2382 18.1254 17.3115 18.3438C17.8979 20.0179 18.9974 21.3281 20.6832 22.056C20.9764 22.2016 21.1963 22.2744 21.5628 22.2744C22.0759 22.2016 22.2958 21.6193 22.6623 21.3281C23.0288 21.037 23.4686 21.037 23.9084 21.2553C24.2749 21.4737 24.6414 21.7649 25.0811 22.056C25.4476 22.3472 25.8141 22.5655 26.1806 22.8567C26.4005 23.0023 26.4738 23.3662 26.3272 23.7302ZM23.2487 18.271C23.1021 18.271 23.1754 18.271 23.2487 18.271C22.9555 18.271 22.8822 18.1254 22.8089 17.9071C22.8089 17.7615 22.8089 17.5431 22.7356 17.3976C22.6623 17.1064 22.5157 16.8152 22.2225 16.5969C22.0759 16.5241 21.9293 16.4513 21.7827 16.3785C21.5628 16.3057 21.4162 16.3057 21.1963 16.3057C20.9764 16.2329 20.9031 16.0874 20.9031 15.869C20.9031 15.7234 21.123 15.5778 21.2696 15.5778C22.4424 15.6506 23.322 16.3057 23.4686 17.6887C23.4686 17.7615 23.4686 17.9071 23.4686 17.9799C23.4686 18.1254 23.3953 18.271 23.2487 18.271ZM22.5157 15.0683C22.1492 14.9227 21.7827 14.7772 21.3429 14.7044C21.1963 14.7044 20.9764 14.6316 20.8298 14.6316C20.6099 14.6316 20.4634 14.486 20.5366 14.2676C20.5366 14.0493 20.6832 13.9037 20.9031 13.9765C21.6361 14.0493 22.2958 14.1949 22.9555 14.486C24.2749 15.1411 25.0079 16.2329 25.2277 17.6887C25.2277 17.7615 25.2277 17.8343 25.2277 17.9071C25.2277 18.0526 25.2277 18.1982 25.2277 18.4166C25.2277 18.4894 25.2277 18.5622 25.2277 18.635C25.1545 18.9261 24.6414 18.9989 24.5681 18.635C24.5681 18.5622 24.4948 18.4166 24.4948 18.3438C24.4948 17.6887 24.3482 17.0336 24.055 16.4513C23.6152 15.7962 23.1021 15.3595 22.5157 15.0683ZM26.4738 19.4356C26.2539 19.4356 26.1073 19.2173 26.1073 18.9989C26.1073 18.5622 26.034 18.1254 25.9607 17.6887C25.6675 15.3595 23.7618 13.467 21.4895 13.103C21.123 13.0302 20.7565 13.0302 20.4634 12.9575C20.2435 12.9575 19.9503 12.9575 19.877 12.6663C19.8037 12.4479 20.0236 12.2296 20.2435 12.2296C20.3168 12.2296 20.3901 12.2296 20.3901 12.2296C20.5367 12.2296 23.3953 12.3024 20.3901 12.2296C23.4686 12.3024 26.034 14.3404 26.5471 17.3976C26.6204 17.9071 26.6937 18.4166 26.6937 18.9989C26.8403 19.2173 26.6937 19.4356 26.4738 19.4356Z" fill="white"/>
</svg>
