<svg width="44" height="34" viewBox="0 0 44 34" fill="none" xmlns="http://www.w3.org/2000/svg">
<path d="M1.5 9.70312C12.8218 -1.90104 31.1782 -1.90104 42.5 9.70312M7.80756 16.1681C15.6458 8.13444 28.354 8.13444 36.1922 16.1681M14.1154 22.6331C18.47 18.1699 25.5301 18.1699 29.8846 22.6331M24.2301 30.7143C24.2301 31.9766 23.2316 33 22 33C20.7683 33 19.7699 31.9766 19.7699 30.7143C19.7699 29.4519 20.7683 28.4286 22 28.4286C23.2316 28.4286 24.2301 29.4519 24.2301 30.7143Z" stroke="#111111" stroke-width="2" stroke-linecap="round"/>
<path d="M1.5 9.70312C12.8218 -1.90104 31.1782 -1.90104 42.5 9.70312M7.80756 16.1681C15.6458 8.13444 28.354 8.13444 36.1922 16.1681M14.1154 22.6331C18.47 18.1699 25.5301 18.1699 29.8846 22.6331M24.2301 30.7143C24.2301 31.9766 23.2316 33 22 33C20.7683 33 19.7699 31.9766 19.7699 30.7143C19.7699 29.4519 20.7683 28.4286 22 28.4286C23.2316 28.4286 24.2301 29.4519 24.2301 30.7143Z" stroke="url(#paint0_linear_31_399)" stroke-width="2" stroke-linecap="round"/>
<defs>
<linearGradient id="paint0_linear_31_399" x1="1.5" y1="1" x2="32.5418" y2="40.7723" gradientUnits="userSpaceOnUse">
<stop stop-color="#C10046"/>
<stop offset="1" stop-color="#D752B3"/>
</linearGradient>
</defs>
</svg>
